<?xml version="1.0" encoding="utf-8" standalone="no"?>
<!DOCTYPE svg PUBLIC "-//W3C//DTD SVG 1.1//EN"
  "http://www.w3.org/Graphics/SVG/1.1/DTD/svg11.dtd">
<!-- Created with matplotlib (https://matplotlib.org/) -->
<svg height="720pt" version="1.1" viewBox="0 0 720 720" width="720pt" xmlns="http://www.w3.org/2000/svg" xmlns:xlink="http://www.w3.org/1999/xlink">
 <metadata>
  <rdf:RDF xmlns:cc="http://creativecommons.org/ns#" xmlns:dc="http://purl.org/dc/elements/1.1/" xmlns:rdf="http://www.w3.org/1999/02/22-rdf-syntax-ns#">
   <cc:Work>
    <dc:type rdf:resource="http://purl.org/dc/dcmitype/StillImage"/>
    <dc:date>2021-06-29T09:59:56.542054</dc:date>
    <dc:format>image/svg+xml</dc:format>
    <dc:creator>
     <cc:Agent>
      <dc:title>Matplotlib v3.3.2, https://matplotlib.org/</dc:title>
     </cc:Agent>
    </dc:creator>
   </cc:Work>
  </rdf:RDF>
 </metadata>
 <defs>
  <style type="text/css">*{stroke-linecap:butt;stroke-linejoin:round;}</style>
 </defs>
 <g id="figure_1">
  <g id="patch_1">
   <path d="M 0 720 
L 720 720 
L 720 0 
L 0 0 
z
" style="fill:#ffffff;"/>
  </g>
  <g id="axes_1">
   <g id="patch_2">
    <path d="M 90 630 
L 648 630 
L 648 86.4 
L 90 86.4 
z
" style="fill:#ffffff;"/>
   </g>
   <g id="matplotlib.axis_1">
    <g id="xtick_1">
     <g id="line2d_1">
      <path clip-path="url(#p9fd0b36ed5)" d="M 90 630 
L 90 86.4 
" style="fill:none;stroke:#b0b0b0;stroke-linecap:square;stroke-width:0.8;"/>
     </g>
     <g id="line2d_2">
      <defs>
       <path d="M 0 0 
L 0 3.5 
" id="mfd3c95d204" style="stroke:#000000;stroke-width:0.8;"/>
      </defs>
      <g>
       <use style="stroke:#000000;stroke-width:0.8;" x="90" xlink:href="#mfd3c95d204" y="630"/>
      </g>
     </g>
     <g id="text_1">
      <!-- 0.0 -->
      <g transform="translate(74.096875 652.196875)scale(0.2 -0.2)">
       <defs>
        <path d="M 31.78125 66.40625 
Q 24.171875 66.40625 20.328125 58.90625 
Q 16.5 51.421875 16.5 36.375 
Q 16.5 21.390625 20.328125 13.890625 
Q 24.171875 6.390625 31.78125 6.390625 
Q 39.453125 6.390625 43.28125 13.890625 
Q 47.125 21.390625 47.125 36.375 
Q 47.125 51.421875 43.28125 58.90625 
Q 39.453125 66.40625 31.78125 66.40625 
z
M 31.78125 74.21875 
Q 44.046875 74.21875 50.515625 64.515625 
Q 56.984375 54.828125 56.984375 36.375 
Q 56.984375 17.96875 50.515625 8.265625 
Q 44.046875 -1.421875 31.78125 -1.421875 
Q 19.53125 -1.421875 13.0625 8.265625 
Q 6.59375 17.96875 6.59375 36.375 
Q 6.59375 54.828125 13.0625 64.515625 
Q 19.53125 74.21875 31.78125 74.21875 
z
" id="DejaVuSans-48"/>
        <path d="M 10.6875 12.40625 
L 21 12.40625 
L 21 0 
L 10.6875 0 
z
" id="DejaVuSans-46"/>
       </defs>
       <use xlink:href="#DejaVuSans-48"/>
       <use x="63.623047" xlink:href="#DejaVuSans-46"/>
       <use x="95.410156" xlink:href="#DejaVuSans-48"/>
      </g>
     </g>
    </g>
    <g id="xtick_2">
     <g id="line2d_3">
      <path clip-path="url(#p9fd0b36ed5)" d="M 169.082314 630 
L 169.082314 86.4 
" style="fill:none;stroke:#b0b0b0;stroke-linecap:square;stroke-width:0.8;"/>
     </g>
     <g id="line2d_4">
      <g>
       <use style="stroke:#000000;stroke-width:0.8;" x="169.082314" xlink:href="#mfd3c95d204" y="630"/>
      </g>
     </g>
     <g id="text_2">
      <!-- 0.1 -->
      <g transform="translate(153.179189 652.196875)scale(0.2 -0.2)">
       <defs>
        <path d="M 12.40625 8.296875 
L 28.515625 8.296875 
L 28.515625 63.921875 
L 10.984375 60.40625 
L 10.984375 69.390625 
L 28.421875 72.90625 
L 38.28125 72.90625 
L 38.28125 8.296875 
L 54.390625 8.296875 
L 54.390625 0 
L 12.40625 0 
z
" id="DejaVuSans-49"/>
       </defs>
       <use xlink:href="#DejaVuSans-48"/>
       <use x="63.623047" xlink:href="#DejaVuSans-46"/>
       <use x="95.410156" xlink:href="#DejaVuSans-49"/>
      </g>
     </g>
    </g>
    <g id="xtick_3">
     <g id="line2d_5">
      <path clip-path="url(#p9fd0b36ed5)" d="M 248.164629 630 
L 248.164629 86.4 
" style="fill:none;stroke:#b0b0b0;stroke-linecap:square;stroke-width:0.8;"/>
     </g>
     <g id="line2d_6">
      <g>
       <use style="stroke:#000000;stroke-width:0.8;" x="248.164629" xlink:href="#mfd3c95d204" y="630"/>
      </g>
     </g>
     <g id="text_3">
      <!-- 0.2 -->
      <g transform="translate(232.261504 652.196875)scale(0.2 -0.2)">
       <defs>
        <path d="M 19.1875 8.296875 
L 53.609375 8.296875 
L 53.609375 0 
L 7.328125 0 
L 7.328125 8.296875 
Q 12.9375 14.109375 22.625 23.890625 
Q 32.328125 33.6875 34.8125 36.53125 
Q 39.546875 41.84375 41.421875 45.53125 
Q 43.3125 49.21875 43.3125 52.78125 
Q 43.3125 58.59375 39.234375 62.25 
Q 35.15625 65.921875 28.609375 65.921875 
Q 23.96875 65.921875 18.8125 64.3125 
Q 13.671875 62.703125 7.8125 59.421875 
L 7.8125 69.390625 
Q 13.765625 71.78125 18.9375 73 
Q 24.125 74.21875 28.421875 74.21875 
Q 39.75 74.21875 46.484375 68.546875 
Q 53.21875 62.890625 53.21875 53.421875 
Q 53.21875 48.921875 51.53125 44.890625 
Q 49.859375 40.875 45.40625 35.40625 
Q 44.1875 33.984375 37.640625 27.21875 
Q 31.109375 20.453125 19.1875 8.296875 
z
" id="DejaVuSans-50"/>
       </defs>
       <use xlink:href="#DejaVuSans-48"/>
       <use x="63.623047" xlink:href="#DejaVuSans-46"/>
       <use x="95.410156" xlink:href="#DejaVuSans-50"/>
      </g>
     </g>
    </g>
    <g id="xtick_4">
     <g id="line2d_7">
      <path clip-path="url(#p9fd0b36ed5)" d="M 327.246943 630 
L 327.246943 86.4 
" style="fill:none;stroke:#b0b0b0;stroke-linecap:square;stroke-width:0.8;"/>
     </g>
     <g id="line2d_8">
      <g>
       <use style="stroke:#000000;stroke-width:0.8;" x="327.246943" xlink:href="#mfd3c95d204" y="630"/>
      </g>
     </g>
     <g id="text_4">
      <!-- 0.3 -->
      <g transform="translate(311.343818 652.196875)scale(0.2 -0.2)">
       <defs>
        <path d="M 40.578125 39.3125 
Q 47.65625 37.796875 51.625 33 
Q 55.609375 28.21875 55.609375 21.1875 
Q 55.609375 10.40625 48.1875 4.484375 
Q 40.765625 -1.421875 27.09375 -1.421875 
Q 22.515625 -1.421875 17.65625 -0.515625 
Q 12.796875 0.390625 7.625 2.203125 
L 7.625 11.71875 
Q 11.71875 9.328125 16.59375 8.109375 
Q 21.484375 6.890625 26.8125 6.890625 
Q 36.078125 6.890625 40.9375 10.546875 
Q 45.796875 14.203125 45.796875 21.1875 
Q 45.796875 27.640625 41.28125 31.265625 
Q 36.765625 34.90625 28.71875 34.90625 
L 20.21875 34.90625 
L 20.21875 43.015625 
L 29.109375 43.015625 
Q 36.375 43.015625 40.234375 45.921875 
Q 44.09375 48.828125 44.09375 54.296875 
Q 44.09375 59.90625 40.109375 62.90625 
Q 36.140625 65.921875 28.71875 65.921875 
Q 24.65625 65.921875 20.015625 65.03125 
Q 15.375 64.15625 9.8125 62.3125 
L 9.8125 71.09375 
Q 15.4375 72.65625 20.34375 73.4375 
Q 25.25 74.21875 29.59375 74.21875 
Q 40.828125 74.21875 47.359375 69.109375 
Q 53.90625 64.015625 53.90625 55.328125 
Q 53.90625 49.265625 50.4375 45.09375 
Q 46.96875 40.921875 40.578125 39.3125 
z
" id="DejaVuSans-51"/>
       </defs>
       <use xlink:href="#DejaVuSans-48"/>
       <use x="63.623047" xlink:href="#DejaVuSans-46"/>
       <use x="95.410156" xlink:href="#DejaVuSans-51"/>
      </g>
     </g>
    </g>
    <g id="xtick_5">
     <g id="line2d_9">
      <path clip-path="url(#p9fd0b36ed5)" d="M 406.329258 630 
L 406.329258 86.4 
" style="fill:none;stroke:#b0b0b0;stroke-linecap:square;stroke-width:0.8;"/>
     </g>
     <g id="line2d_10">
      <g>
       <use style="stroke:#000000;stroke-width:0.8;" x="406.329258" xlink:href="#mfd3c95d204" y="630"/>
      </g>
     </g>
     <g id="text_5">
      <!-- 0.4 -->
      <g transform="translate(390.426133 652.196875)scale(0.2 -0.2)">
       <defs>
        <path d="M 37.796875 64.3125 
L 12.890625 25.390625 
L 37.796875 25.390625 
z
M 35.203125 72.90625 
L 47.609375 72.90625 
L 47.609375 25.390625 
L 58.015625 25.390625 
L 58.015625 17.1875 
L 47.609375 17.1875 
L 47.609375 0 
L 37.796875 0 
L 37.796875 17.1875 
L 4.890625 17.1875 
L 4.890625 26.703125 
z
" id="DejaVuSans-52"/>
       </defs>
       <use xlink:href="#DejaVuSans-48"/>
       <use x="63.623047" xlink:href="#DejaVuSans-46"/>
       <use x="95.410156" xlink:href="#DejaVuSans-52"/>
      </g>
     </g>
    </g>
    <g id="xtick_6">
     <g id="line2d_11">
      <path clip-path="url(#p9fd0b36ed5)" d="M 485.411572 630 
L 485.411572 86.4 
" style="fill:none;stroke:#b0b0b0;stroke-linecap:square;stroke-width:0.8;"/>
     </g>
     <g id="line2d_12">
      <g>
       <use style="stroke:#000000;stroke-width:0.8;" x="485.411572" xlink:href="#mfd3c95d204" y="630"/>
      </g>
     </g>
     <g id="text_6">
      <!-- 0.5 -->
      <g transform="translate(469.508447 652.196875)scale(0.2 -0.2)">
       <defs>
        <path d="M 10.796875 72.90625 
L 49.515625 72.90625 
L 49.515625 64.59375 
L 19.828125 64.59375 
L 19.828125 46.734375 
Q 21.96875 47.46875 24.109375 47.828125 
Q 26.265625 48.1875 28.421875 48.1875 
Q 40.625 48.1875 47.75 41.5 
Q 54.890625 34.8125 54.890625 23.390625 
Q 54.890625 11.625 47.5625 5.09375 
Q 40.234375 -1.421875 26.90625 -1.421875 
Q 22.3125 -1.421875 17.546875 -0.640625 
Q 12.796875 0.140625 7.71875 1.703125 
L 7.71875 11.625 
Q 12.109375 9.234375 16.796875 8.0625 
Q 21.484375 6.890625 26.703125 6.890625 
Q 35.15625 6.890625 40.078125 11.328125 
Q 45.015625 15.765625 45.015625 23.390625 
Q 45.015625 31 40.078125 35.4375 
Q 35.15625 39.890625 26.703125 39.890625 
Q 22.75 39.890625 18.8125 39.015625 
Q 14.890625 38.140625 10.796875 36.28125 
z
" id="DejaVuSans-53"/>
       </defs>
       <use xlink:href="#DejaVuSans-48"/>
       <use x="63.623047" xlink:href="#DejaVuSans-46"/>
       <use x="95.410156" xlink:href="#DejaVuSans-53"/>
      </g>
     </g>
    </g>
    <g id="xtick_7">
     <g id="line2d_13">
      <path clip-path="url(#p9fd0b36ed5)" d="M 564.493886 630 
L 564.493886 86.4 
" style="fill:none;stroke:#b0b0b0;stroke-linecap:square;stroke-width:0.8;"/>
     </g>
     <g id="line2d_14">
      <g>
       <use style="stroke:#000000;stroke-width:0.8;" x="564.493886" xlink:href="#mfd3c95d204" y="630"/>
      </g>
     </g>
     <g id="text_7">
      <!-- 0.6 -->
      <g transform="translate(548.590761 652.196875)scale(0.2 -0.2)">
       <defs>
        <path d="M 33.015625 40.375 
Q 26.375 40.375 22.484375 35.828125 
Q 18.609375 31.296875 18.609375 23.390625 
Q 18.609375 15.53125 22.484375 10.953125 
Q 26.375 6.390625 33.015625 6.390625 
Q 39.65625 6.390625 43.53125 10.953125 
Q 47.40625 15.53125 47.40625 23.390625 
Q 47.40625 31.296875 43.53125 35.828125 
Q 39.65625 40.375 33.015625 40.375 
z
M 52.59375 71.296875 
L 52.59375 62.3125 
Q 48.875 64.0625 45.09375 64.984375 
Q 41.3125 65.921875 37.59375 65.921875 
Q 27.828125 65.921875 22.671875 59.328125 
Q 17.53125 52.734375 16.796875 39.40625 
Q 19.671875 43.65625 24.015625 45.921875 
Q 28.375 48.1875 33.59375 48.1875 
Q 44.578125 48.1875 50.953125 41.515625 
Q 57.328125 34.859375 57.328125 23.390625 
Q 57.328125 12.15625 50.6875 5.359375 
Q 44.046875 -1.421875 33.015625 -1.421875 
Q 20.359375 -1.421875 13.671875 8.265625 
Q 6.984375 17.96875 6.984375 36.375 
Q 6.984375 53.65625 15.1875 63.9375 
Q 23.390625 74.21875 37.203125 74.21875 
Q 40.921875 74.21875 44.703125 73.484375 
Q 48.484375 72.75 52.59375 71.296875 
z
" id="DejaVuSans-54"/>
       </defs>
       <use xlink:href="#DejaVuSans-48"/>
       <use x="63.623047" xlink:href="#DejaVuSans-46"/>
       <use x="95.410156" xlink:href="#DejaVuSans-54"/>
      </g>
     </g>
    </g>
    <g id="xtick_8">
     <g id="line2d_15">
      <path clip-path="url(#p9fd0b36ed5)" d="M 643.576201 630 
L 643.576201 86.4 
" style="fill:none;stroke:#b0b0b0;stroke-linecap:square;stroke-width:0.8;"/>
     </g>
     <g id="line2d_16">
      <g>
       <use style="stroke:#000000;stroke-width:0.8;" x="643.576201" xlink:href="#mfd3c95d204" y="630"/>
      </g>
     </g>
     <g id="text_8">
      <!-- 0.7 -->
      <g transform="translate(627.673076 652.196875)scale(0.2 -0.2)">
       <defs>
        <path d="M 8.203125 72.90625 
L 55.078125 72.90625 
L 55.078125 68.703125 
L 28.609375 0 
L 18.3125 0 
L 43.21875 64.59375 
L 8.203125 64.59375 
z
" id="DejaVuSans-55"/>
       </defs>
       <use xlink:href="#DejaVuSans-48"/>
       <use x="63.623047" xlink:href="#DejaVuSans-46"/>
       <use x="95.410156" xlink:href="#DejaVuSans-55"/>
      </g>
     </g>
    </g>
    <g id="text_9">
     <!-- Beta Before -->
     <g transform="translate(339.533594 667.954687)scale(0.1 -0.1)">
      <defs>
       <path d="M 19.671875 34.8125 
L 19.671875 8.109375 
L 35.5 8.109375 
Q 43.453125 8.109375 47.28125 11.40625 
Q 51.125 14.703125 51.125 21.484375 
Q 51.125 28.328125 47.28125 31.5625 
Q 43.453125 34.8125 35.5 34.8125 
z
M 19.671875 64.796875 
L 19.671875 42.828125 
L 34.28125 42.828125 
Q 41.5 42.828125 45.03125 45.53125 
Q 48.578125 48.25 48.578125 53.8125 
Q 48.578125 59.328125 45.03125 62.0625 
Q 41.5 64.796875 34.28125 64.796875 
z
M 9.8125 72.90625 
L 35.015625 72.90625 
Q 46.296875 72.90625 52.390625 68.21875 
Q 58.5 63.53125 58.5 54.890625 
Q 58.5 48.1875 55.375 44.234375 
Q 52.25 40.28125 46.1875 39.3125 
Q 53.46875 37.75 57.5 32.78125 
Q 61.53125 27.828125 61.53125 20.40625 
Q 61.53125 10.640625 54.890625 5.3125 
Q 48.25 0 35.984375 0 
L 9.8125 0 
z
" id="DejaVuSans-66"/>
       <path d="M 56.203125 29.59375 
L 56.203125 25.203125 
L 14.890625 25.203125 
Q 15.484375 15.921875 20.484375 11.0625 
Q 25.484375 6.203125 34.421875 6.203125 
Q 39.59375 6.203125 44.453125 7.46875 
Q 49.3125 8.734375 54.109375 11.28125 
L 54.109375 2.78125 
Q 49.265625 0.734375 44.1875 -0.34375 
Q 39.109375 -1.421875 33.890625 -1.421875 
Q 20.796875 -1.421875 13.15625 6.1875 
Q 5.515625 13.8125 5.515625 26.8125 
Q 5.515625 40.234375 12.765625 48.109375 
Q 20.015625 56 32.328125 56 
Q 43.359375 56 49.78125 48.890625 
Q 56.203125 41.796875 56.203125 29.59375 
z
M 47.21875 32.234375 
Q 47.125 39.59375 43.09375 43.984375 
Q 39.0625 48.390625 32.421875 48.390625 
Q 24.90625 48.390625 20.390625 44.140625 
Q 15.875 39.890625 15.1875 32.171875 
z
" id="DejaVuSans-101"/>
       <path d="M 18.3125 70.21875 
L 18.3125 54.6875 
L 36.8125 54.6875 
L 36.8125 47.703125 
L 18.3125 47.703125 
L 18.3125 18.015625 
Q 18.3125 11.328125 20.140625 9.421875 
Q 21.96875 7.515625 27.59375 7.515625 
L 36.8125 7.515625 
L 36.8125 0 
L 27.59375 0 
Q 17.1875 0 13.234375 3.875 
Q 9.28125 7.765625 9.28125 18.015625 
L 9.28125 47.703125 
L 2.6875 47.703125 
L 2.6875 54.6875 
L 9.28125 54.6875 
L 9.28125 70.21875 
z
" id="DejaVuSans-116"/>
       <path d="M 34.28125 27.484375 
Q 23.390625 27.484375 19.1875 25 
Q 14.984375 22.515625 14.984375 16.5 
Q 14.984375 11.71875 18.140625 8.90625 
Q 21.296875 6.109375 26.703125 6.109375 
Q 34.1875 6.109375 38.703125 11.40625 
Q 43.21875 16.703125 43.21875 25.484375 
L 43.21875 27.484375 
z
M 52.203125 31.203125 
L 52.203125 0 
L 43.21875 0 
L 43.21875 8.296875 
Q 40.140625 3.328125 35.546875 0.953125 
Q 30.953125 -1.421875 24.3125 -1.421875 
Q 15.921875 -1.421875 10.953125 3.296875 
Q 6 8.015625 6 15.921875 
Q 6 25.140625 12.171875 29.828125 
Q 18.359375 34.515625 30.609375 34.515625 
L 43.21875 34.515625 
L 43.21875 35.40625 
Q 43.21875 41.609375 39.140625 45 
Q 35.0625 48.390625 27.6875 48.390625 
Q 23 48.390625 18.546875 47.265625 
Q 14.109375 46.140625 10.015625 43.890625 
L 10.015625 52.203125 
Q 14.9375 54.109375 19.578125 55.046875 
Q 24.21875 56 28.609375 56 
Q 40.484375 56 46.34375 49.84375 
Q 52.203125 43.703125 52.203125 31.203125 
z
" id="DejaVuSans-97"/>
       <path id="DejaVuSans-32"/>
       <path d="M 37.109375 75.984375 
L 37.109375 68.5 
L 28.515625 68.5 
Q 23.6875 68.5 21.796875 66.546875 
Q 19.921875 64.59375 19.921875 59.515625 
L 19.921875 54.6875 
L 34.71875 54.6875 
L 34.71875 47.703125 
L 19.921875 47.703125 
L 19.921875 0 
L 10.890625 0 
L 10.890625 47.703125 
L 2.296875 47.703125 
L 2.296875 54.6875 
L 10.890625 54.6875 
L 10.890625 58.5 
Q 10.890625 67.625 15.140625 71.796875 
Q 19.390625 75.984375 28.609375 75.984375 
z
" id="DejaVuSans-102"/>
       <path d="M 30.609375 48.390625 
Q 23.390625 48.390625 19.1875 42.75 
Q 14.984375 37.109375 14.984375 27.296875 
Q 14.984375 17.484375 19.15625 11.84375 
Q 23.34375 6.203125 30.609375 6.203125 
Q 37.796875 6.203125 41.984375 11.859375 
Q 46.1875 17.53125 46.1875 27.296875 
Q 46.1875 37.015625 41.984375 42.703125 
Q 37.796875 48.390625 30.609375 48.390625 
z
M 30.609375 56 
Q 42.328125 56 49.015625 48.375 
Q 55.71875 40.765625 55.71875 27.296875 
Q 55.71875 13.875 49.015625 6.21875 
Q 42.328125 -1.421875 30.609375 -1.421875 
Q 18.84375 -1.421875 12.171875 6.21875 
Q 5.515625 13.875 5.515625 27.296875 
Q 5.515625 40.765625 12.171875 48.375 
Q 18.84375 56 30.609375 56 
z
" id="DejaVuSans-111"/>
       <path d="M 41.109375 46.296875 
Q 39.59375 47.171875 37.8125 47.578125 
Q 36.03125 48 33.890625 48 
Q 26.265625 48 22.1875 43.046875 
Q 18.109375 38.09375 18.109375 28.8125 
L 18.109375 0 
L 9.078125 0 
L 9.078125 54.6875 
L 18.109375 54.6875 
L 18.109375 46.1875 
Q 20.953125 51.171875 25.484375 53.578125 
Q 30.03125 56 36.53125 56 
Q 37.453125 56 38.578125 55.875 
Q 39.703125 55.765625 41.0625 55.515625 
z
" id="DejaVuSans-114"/>
      </defs>
      <use xlink:href="#DejaVuSans-66"/>
      <use x="68.603516" xlink:href="#DejaVuSans-101"/>
      <use x="130.126953" xlink:href="#DejaVuSans-116"/>
      <use x="169.335938" xlink:href="#DejaVuSans-97"/>
      <use x="230.615234" xlink:href="#DejaVuSans-32"/>
      <use x="262.402344" xlink:href="#DejaVuSans-66"/>
      <use x="331.005859" xlink:href="#DejaVuSans-101"/>
      <use x="392.529297" xlink:href="#DejaVuSans-102"/>
      <use x="427.734375" xlink:href="#DejaVuSans-111"/>
      <use x="488.916016" xlink:href="#DejaVuSans-114"/>
      <use x="527.779297" xlink:href="#DejaVuSans-101"/>
     </g>
    </g>
   </g>
   <g id="matplotlib.axis_2">
    <g id="ytick_1">
     <g id="line2d_17">
      <path clip-path="url(#p9fd0b36ed5)" d="M 90 630 
L 648 630 
" style="fill:none;stroke:#b0b0b0;stroke-linecap:square;stroke-width:0.8;"/>
     </g>
     <g id="line2d_18">
      <defs>
       <path d="M 0 0 
L -3.5 0 
" id="mee3470a975" style="stroke:#000000;stroke-width:0.8;"/>
      </defs>
      <g>
       <use style="stroke:#000000;stroke-width:0.8;" x="90" xlink:href="#mee3470a975" y="630"/>
      </g>
     </g>
     <g id="text_10">
      <!-- 0.0 -->
      <g transform="translate(51.19375 637.598438)scale(0.2 -0.2)">
       <use xlink:href="#DejaVuSans-48"/>
       <use x="63.623047" xlink:href="#DejaVuSans-46"/>
       <use x="95.410156" xlink:href="#DejaVuSans-48"/>
      </g>
     </g>
    </g>
    <g id="ytick_2">
     <g id="line2d_19">
      <path clip-path="url(#p9fd0b36ed5)" d="M 90 552.95852 
L 648 552.95852 
" style="fill:none;stroke:#b0b0b0;stroke-linecap:square;stroke-width:0.8;"/>
     </g>
     <g id="line2d_20">
      <g>
       <use style="stroke:#000000;stroke-width:0.8;" x="90" xlink:href="#mee3470a975" y="552.95852"/>
      </g>
     </g>
     <g id="text_11">
      <!-- 0.1 -->
      <g transform="translate(51.19375 560.556957)scale(0.2 -0.2)">
       <use xlink:href="#DejaVuSans-48"/>
       <use x="63.623047" xlink:href="#DejaVuSans-46"/>
       <use x="95.410156" xlink:href="#DejaVuSans-49"/>
      </g>
     </g>
    </g>
    <g id="ytick_3">
     <g id="line2d_21">
      <path clip-path="url(#p9fd0b36ed5)" d="M 90 475.917039 
L 648 475.917039 
" style="fill:none;stroke:#b0b0b0;stroke-linecap:square;stroke-width:0.8;"/>
     </g>
     <g id="line2d_22">
      <g>
       <use style="stroke:#000000;stroke-width:0.8;" x="90" xlink:href="#mee3470a975" y="475.917039"/>
      </g>
     </g>
     <g id="text_12">
      <!-- 0.2 -->
      <g transform="translate(51.19375 483.515477)scale(0.2 -0.2)">
       <use xlink:href="#DejaVuSans-48"/>
       <use x="63.623047" xlink:href="#DejaVuSans-46"/>
       <use x="95.410156" xlink:href="#DejaVuSans-50"/>
      </g>
     </g>
    </g>
    <g id="ytick_4">
     <g id="line2d_23">
      <path clip-path="url(#p9fd0b36ed5)" d="M 90 398.875559 
L 648 398.875559 
" style="fill:none;stroke:#b0b0b0;stroke-linecap:square;stroke-width:0.8;"/>
     </g>
     <g id="line2d_24">
      <g>
       <use style="stroke:#000000;stroke-width:0.8;" x="90" xlink:href="#mee3470a975" y="398.875559"/>
      </g>
     </g>
     <g id="text_13">
      <!-- 0.3 -->
      <g transform="translate(51.19375 406.473996)scale(0.2 -0.2)">
       <use xlink:href="#DejaVuSans-48"/>
       <use x="63.623047" xlink:href="#DejaVuSans-46"/>
       <use x="95.410156" xlink:href="#DejaVuSans-51"/>
      </g>
     </g>
    </g>
    <g id="ytick_5">
     <g id="line2d_25">
      <path clip-path="url(#p9fd0b36ed5)" d="M 90 321.834078 
L 648 321.834078 
" style="fill:none;stroke:#b0b0b0;stroke-linecap:square;stroke-width:0.8;"/>
     </g>
     <g id="line2d_26">
      <g>
       <use style="stroke:#000000;stroke-width:0.8;" x="90" xlink:href="#mee3470a975" y="321.834078"/>
      </g>
     </g>
     <g id="text_14">
      <!-- 0.4 -->
      <g transform="translate(51.19375 329.432516)scale(0.2 -0.2)">
       <use xlink:href="#DejaVuSans-48"/>
       <use x="63.623047" xlink:href="#DejaVuSans-46"/>
       <use x="95.410156" xlink:href="#DejaVuSans-52"/>
      </g>
     </g>
    </g>
    <g id="ytick_6">
     <g id="line2d_27">
      <path clip-path="url(#p9fd0b36ed5)" d="M 90 244.792598 
L 648 244.792598 
" style="fill:none;stroke:#b0b0b0;stroke-linecap:square;stroke-width:0.8;"/>
     </g>
     <g id="line2d_28">
      <g>
       <use style="stroke:#000000;stroke-width:0.8;" x="90" xlink:href="#mee3470a975" y="244.792598"/>
      </g>
     </g>
     <g id="text_15">
      <!-- 0.5 -->
      <g transform="translate(51.19375 252.391035)scale(0.2 -0.2)">
       <use xlink:href="#DejaVuSans-48"/>
       <use x="63.623047" xlink:href="#DejaVuSans-46"/>
       <use x="95.410156" xlink:href="#DejaVuSans-53"/>
      </g>
     </g>
    </g>
    <g id="ytick_7">
     <g id="line2d_29">
      <path clip-path="url(#p9fd0b36ed5)" d="M 90 167.751117 
L 648 167.751117 
" style="fill:none;stroke:#b0b0b0;stroke-linecap:square;stroke-width:0.8;"/>
     </g>
     <g id="line2d_30">
      <g>
       <use style="stroke:#000000;stroke-width:0.8;" x="90" xlink:href="#mee3470a975" y="167.751117"/>
      </g>
     </g>
     <g id="text_16">
      <!-- 0.6 -->
      <g transform="translate(51.19375 175.349555)scale(0.2 -0.2)">
       <use xlink:href="#DejaVuSans-48"/>
       <use x="63.623047" xlink:href="#DejaVuSans-46"/>
       <use x="95.410156" xlink:href="#DejaVuSans-54"/>
      </g>
     </g>
    </g>
    <g id="ytick_8">
     <g id="line2d_31">
      <path clip-path="url(#p9fd0b36ed5)" d="M 90 90.709637 
L 648 90.709637 
" style="fill:none;stroke:#b0b0b0;stroke-linecap:square;stroke-width:0.8;"/>
     </g>
     <g id="line2d_32">
      <g>
       <use style="stroke:#000000;stroke-width:0.8;" x="90" xlink:href="#mee3470a975" y="90.709637"/>
      </g>
     </g>
     <g id="text_17">
      <!-- 0.7 -->
      <g transform="translate(51.19375 98.308074)scale(0.2 -0.2)">
       <use xlink:href="#DejaVuSans-48"/>
       <use x="63.623047" xlink:href="#DejaVuSans-46"/>
       <use x="95.410156" xlink:href="#DejaVuSans-55"/>
      </g>
     </g>
    </g>
    <g id="text_18">
     <!-- Beta After -->
     <g transform="translate(45.114062 383.324219)rotate(-90)scale(0.1 -0.1)">
      <defs>
       <path d="M 34.1875 63.1875 
L 20.796875 26.90625 
L 47.609375 26.90625 
z
M 28.609375 72.90625 
L 39.796875 72.90625 
L 67.578125 0 
L 57.328125 0 
L 50.6875 18.703125 
L 17.828125 18.703125 
L 11.1875 0 
L 0.78125 0 
z
" id="DejaVuSans-65"/>
      </defs>
      <use xlink:href="#DejaVuSans-66"/>
      <use x="68.603516" xlink:href="#DejaVuSans-101"/>
      <use x="130.126953" xlink:href="#DejaVuSans-116"/>
      <use x="169.335938" xlink:href="#DejaVuSans-97"/>
      <use x="230.615234" xlink:href="#DejaVuSans-32"/>
      <use x="262.402344" xlink:href="#DejaVuSans-65"/>
      <use x="327.185547" xlink:href="#DejaVuSans-102"/>
      <use x="360.640625" xlink:href="#DejaVuSans-116"/>
      <use x="399.849609" xlink:href="#DejaVuSans-101"/>
      <use x="461.373047" xlink:href="#DejaVuSans-114"/>
     </g>
    </g>
   </g>
   <g id="line2d_33">
    <defs>
     <path d="M 0 3 
C 0.795609 3 1.55874 2.683901 2.12132 2.12132 
C 2.683901 1.55874 3 0.795609 3 0 
C 3 -0.795609 2.683901 -1.55874 2.12132 -2.12132 
C 1.55874 -2.683901 0.795609 -3 0 -3 
C -0.795609 -3 -1.55874 -2.683901 -2.12132 -2.12132 
C -2.683901 -1.55874 -3 -0.795609 -3 0 
C -3 0.795609 -2.683901 1.55874 -2.12132 2.12132 
C -1.55874 2.683901 -0.795609 3 0 3 
z
" id="m377efc41e3" style="stroke:#0000ff;"/>
    </defs>
    <g clip-path="url(#p9fd0b36ed5)">
     <use style="fill:#0000ff;stroke:#0000ff;" x="329.269098" xlink:href="#m377efc41e3" y="551.099134"/>
     <use style="fill:#0000ff;stroke:#0000ff;" x="269.392981" xlink:href="#m377efc41e3" y="563.606393"/>
     <use style="fill:#0000ff;stroke:#0000ff;" x="229.758368" xlink:href="#m377efc41e3" y="554.463538"/>
     <use style="fill:#0000ff;stroke:#0000ff;" x="385.914541" xlink:href="#m377efc41e3" y="553.826371"/>
     <use style="fill:#0000ff;stroke:#0000ff;" x="157.441099" xlink:href="#m377efc41e3" y="571.86664"/>
     <use style="fill:#0000ff;stroke:#0000ff;" x="329.766015" xlink:href="#m377efc41e3" y="565.381693"/>
     <use style="fill:#0000ff;stroke:#0000ff;" x="209.465862" xlink:href="#m377efc41e3" y="567.723"/>
     <use style="fill:#0000ff;stroke:#0000ff;" x="280.18629" xlink:href="#m377efc41e3" y="548.290546"/>
     <use style="fill:#0000ff;stroke:#0000ff;" x="204.557839" xlink:href="#m377efc41e3" y="577.129076"/>
     <use style="fill:#0000ff;stroke:#0000ff;" x="332.62396" xlink:href="#m377efc41e3" y="570.195947"/>
     <use style="fill:#0000ff;stroke:#0000ff;" x="181.141478" xlink:href="#m377efc41e3" y="564.278123"/>
     <use style="fill:#0000ff;stroke:#0000ff;" x="231.235253" xlink:href="#m377efc41e3" y="522.498179"/>
     <use style="fill:#0000ff;stroke:#0000ff;" x="318.674632" xlink:href="#m377efc41e3" y="560.917977"/>
     <use style="fill:#0000ff;stroke:#0000ff;" x="221.744062" xlink:href="#m377efc41e3" y="562.946639"/>
     <use style="fill:#0000ff;stroke:#0000ff;" x="300.400877" xlink:href="#m377efc41e3" y="576.500375"/>
     <use style="fill:#0000ff;stroke:#0000ff;" x="234.303563" xlink:href="#m377efc41e3" y="580.887309"/>
     <use style="fill:#0000ff;stroke:#0000ff;" x="239.243034" xlink:href="#m377efc41e3" y="561.015602"/>
     <use style="fill:#0000ff;stroke:#0000ff;" x="334.205698" xlink:href="#m377efc41e3" y="562.742751"/>
     <use style="fill:#0000ff;stroke:#0000ff;" x="259.53458" xlink:href="#m377efc41e3" y="536.438943"/>
     <use style="fill:#0000ff;stroke:#0000ff;" x="230.194115" xlink:href="#m377efc41e3" y="557.849785"/>
     <use style="fill:#0000ff;stroke:#0000ff;" x="295.034992" xlink:href="#m377efc41e3" y="522.600586"/>
     <use style="fill:#0000ff;stroke:#0000ff;" x="568.917686" xlink:href="#m377efc41e3" y="567.530905"/>
     <use style="fill:#0000ff;stroke:#0000ff;" x="247.52599" xlink:href="#m377efc41e3" y="559.46337"/>
     <use style="fill:#0000ff;stroke:#0000ff;" x="354.956608" xlink:href="#m377efc41e3" y="563.069468"/>
     <use style="fill:#0000ff;stroke:#0000ff;" x="360.146866" xlink:href="#m377efc41e3" y="567.025947"/>
     <use style="fill:#0000ff;stroke:#0000ff;" x="189.738749" xlink:href="#m377efc41e3" y="584.208579"/>
     <use style="fill:#0000ff;stroke:#0000ff;" x="226.820564" xlink:href="#m377efc41e3" y="572.137103"/>
     <use style="fill:#0000ff;stroke:#0000ff;" x="204.247789" xlink:href="#m377efc41e3" y="551.493925"/>
     <use style="fill:#0000ff;stroke:#0000ff;" x="305.388416" xlink:href="#m377efc41e3" y="572.712478"/>
     <use style="fill:#0000ff;stroke:#0000ff;" x="234.006519" xlink:href="#m377efc41e3" y="565.43894"/>
     <use style="fill:#0000ff;stroke:#0000ff;" x="262.814791" xlink:href="#m377efc41e3" y="550.192056"/>
     <use style="fill:#0000ff;stroke:#0000ff;" x="330.840824" xlink:href="#m377efc41e3" y="568.665119"/>
    </g>
   </g>
   <g id="line2d_34">
    <path clip-path="url(#p9fd0b36ed5)" d="M 616.367074 575.079909 
L 616.367074 547.057372 
" style="fill:none;stroke:#0000ff;stroke-linecap:square;stroke-width:1.5;"/>
   </g>
   <g id="line2d_35">
    <defs>
     <path d="M 0 3 
C 0.795609 3 1.55874 2.683901 2.12132 2.12132 
C 2.683901 1.55874 3 0.795609 3 0 
C 3 -0.795609 2.683901 -1.55874 2.12132 -2.12132 
C 1.55874 -2.683901 0.795609 -3 0 -3 
C -0.795609 -3 -1.55874 -2.683901 -2.12132 -2.12132 
C -2.683901 -1.55874 -3 -0.795609 -3 0 
C -3 0.795609 -2.683901 1.55874 -2.12132 2.12132 
C -1.55874 2.683901 -0.795609 3 0 3 
z
" id="m1d1ef0f02c" style="stroke:#0000ff;"/>
    </defs>
    <g clip-path="url(#p9fd0b36ed5)">
     <use style="fill-opacity:0;stroke:#0000ff;" x="616.367074" xlink:href="#m1d1ef0f02c" y="561.068641"/>
    </g>
   </g>
   <g id="line2d_36">
    <defs>
     <path d="M -3 3 
L 3 -3 
M -3 -3 
L 3 3 
" id="m282035f552" style="stroke:#ff0000;"/>
    </defs>
    <g clip-path="url(#p9fd0b36ed5)">
     <use style="fill:#ff0000;stroke:#ff0000;" x="196.073647" xlink:href="#m282035f552" y="574.086706"/>
     <use style="fill:#ff0000;stroke:#ff0000;" x="233.632837" xlink:href="#m282035f552" y="588.79183"/>
     <use style="fill:#ff0000;stroke:#ff0000;" x="217.461128" xlink:href="#m282035f552" y="564.555444"/>
     <use style="fill:#ff0000;stroke:#ff0000;" x="272.329119" xlink:href="#m282035f552" y="555.338132"/>
     <use style="fill:#ff0000;stroke:#ff0000;" x="248.149611" xlink:href="#m282035f552" y="567.548384"/>
     <use style="fill:#ff0000;stroke:#ff0000;" x="406.105261" xlink:href="#m282035f552" y="553.298454"/>
     <use style="fill:#ff0000;stroke:#ff0000;" x="279.55071" xlink:href="#m282035f552" y="542.916418"/>
     <use style="fill:#ff0000;stroke:#ff0000;" x="208.618414" xlink:href="#m282035f552" y="577.355341"/>
     <use style="fill:#ff0000;stroke:#ff0000;" x="204.16272" xlink:href="#m282035f552" y="573.199478"/>
     <use style="fill:#ff0000;stroke:#ff0000;" x="268.892787" xlink:href="#m282035f552" y="588.106577"/>
     <use style="fill:#ff0000;stroke:#ff0000;" x="320.304757" xlink:href="#m282035f552" y="590.444808"/>
     <use style="fill:#ff0000;stroke:#ff0000;" x="404.124195" xlink:href="#m282035f552" y="553.295967"/>
     <use style="fill:#ff0000;stroke:#ff0000;" x="384.811559" xlink:href="#m282035f552" y="566.082665"/>
     <use style="fill:#ff0000;stroke:#ff0000;" x="249.812171" xlink:href="#m282035f552" y="552.155841"/>
     <use style="fill:#ff0000;stroke:#ff0000;" x="273.391307" xlink:href="#m282035f552" y="557.904216"/>
     <use style="fill:#ff0000;stroke:#ff0000;" x="331.149721" xlink:href="#m282035f552" y="583.092032"/>
     <use style="fill:#ff0000;stroke:#ff0000;" x="180.463123" xlink:href="#m282035f552" y="578.070093"/>
     <use style="fill:#ff0000;stroke:#ff0000;" x="254.82122" xlink:href="#m282035f552" y="563.312228"/>
     <use style="fill:#ff0000;stroke:#ff0000;" x="315.200873" xlink:href="#m282035f552" y="555.864508"/>
     <use style="fill:#ff0000;stroke:#ff0000;" x="194.973929" xlink:href="#m282035f552" y="578.116408"/>
     <use style="fill:#ff0000;stroke:#ff0000;" x="176.946462" xlink:href="#m282035f552" y="536.593201"/>
     <use style="fill:#ff0000;stroke:#ff0000;" x="185.181237" xlink:href="#m282035f552" y="563.51828"/>
     <use style="fill:#ff0000;stroke:#ff0000;" x="183.238714" xlink:href="#m282035f552" y="570.830488"/>
     <use style="fill:#ff0000;stroke:#ff0000;" x="269.591518" xlink:href="#m282035f552" y="595.839104"/>
     <use style="fill:#ff0000;stroke:#ff0000;" x="224.409674" xlink:href="#m282035f552" y="574.077832"/>
     <use style="fill:#ff0000;stroke:#ff0000;" x="232.887621" xlink:href="#m282035f552" y="565.413429"/>
     <use style="fill:#ff0000;stroke:#ff0000;" x="454.680977" xlink:href="#m282035f552" y="562.944191"/>
     <use style="fill:#ff0000;stroke:#ff0000;" x="255.573529" xlink:href="#m282035f552" y="546.11855"/>
     <use style="fill:#ff0000;stroke:#ff0000;" x="433.274497" xlink:href="#m282035f552" y="569.379285"/>
     <use style="fill:#ff0000;stroke:#ff0000;" x="228.252235" xlink:href="#m282035f552" y="564.137767"/>
     <use style="fill:#ff0000;stroke:#ff0000;" x="328.425081" xlink:href="#m282035f552" y="549.920103"/>
     <use style="fill:#ff0000;stroke:#ff0000;" x="257.143511" xlink:href="#m282035f552" y="574.884401"/>
     <use style="fill:#ff0000;stroke:#ff0000;" x="252.19481" xlink:href="#m282035f552" y="575.167963"/>
     <use style="fill:#ff0000;stroke:#ff0000;" x="241.932031" xlink:href="#m282035f552" y="555.218851"/>
     <use style="fill:#ff0000;stroke:#ff0000;" x="179.423303" xlink:href="#m282035f552" y="568.120919"/>
     <use style="fill:#ff0000;stroke:#ff0000;" x="204.533172" xlink:href="#m282035f552" y="562.587018"/>
     <use style="fill:#ff0000;stroke:#ff0000;" x="261.20694" xlink:href="#m282035f552" y="571.804486"/>
     <use style="fill:#ff0000;stroke:#ff0000;" x="241.140816" xlink:href="#m282035f552" y="568.216978"/>
     <use style="fill:#ff0000;stroke:#ff0000;" x="272.066791" xlink:href="#m282035f552" y="592.930994"/>
     <use style="fill:#ff0000;stroke:#ff0000;" x="243.053975" xlink:href="#m282035f552" y="556.249237"/>
     <use style="fill:#ff0000;stroke:#ff0000;" x="194.15186" xlink:href="#m282035f552" y="578.878532"/>
     <use style="fill:#ff0000;stroke:#ff0000;" x="415.697694" xlink:href="#m282035f552" y="566.679865"/>
     <use style="fill:#ff0000;stroke:#ff0000;" x="258.478372" xlink:href="#m282035f552" y="571.994837"/>
    </g>
   </g>
   <g id="line2d_37">
    <path clip-path="url(#p9fd0b36ed5)" d="M 608.458843 580.816628 
L 608.458843 554.301598 
" style="fill:none;stroke:#ff0000;stroke-linecap:square;stroke-width:1.5;"/>
   </g>
   <g id="line2d_38">
    <defs>
     <path d="M 0 3 
C 0.795609 3 1.55874 2.683901 2.12132 2.12132 
C 2.683901 1.55874 3 0.795609 3 0 
C 3 -0.795609 2.683901 -1.55874 2.12132 -2.12132 
C 1.55874 -2.683901 0.795609 -3 0 -3 
C -0.795609 -3 -1.55874 -2.683901 -2.12132 -2.12132 
C -2.683901 -1.55874 -3 -0.795609 -3 0 
C -3 0.795609 -2.683901 1.55874 -2.12132 2.12132 
C -1.55874 2.683901 -0.795609 3 0 3 
z
" id="mbc6a3114de" style="stroke:#ff0000;"/>
    </defs>
    <g clip-path="url(#p9fd0b36ed5)">
     <use style="fill-opacity:0;stroke:#ff0000;" x="608.458843" xlink:href="#mbc6a3114de" y="567.559113"/>
    </g>
   </g>
   <g id="line2d_39">
    <defs>
     <path d="M 0 3 
C 0.795609 3 1.55874 2.683901 2.12132 2.12132 
C 2.683901 1.55874 3 0.795609 3 0 
C 3 -0.795609 2.683901 -1.55874 2.12132 -2.12132 
C 1.55874 -2.683901 0.795609 -3 0 -3 
C -0.795609 -3 -1.55874 -2.683901 -2.12132 -2.12132 
C -2.683901 -1.55874 -3 -0.795609 -3 0 
C -3 0.795609 -2.683901 1.55874 -2.12132 2.12132 
C -1.55874 2.683901 -0.795609 3 0 3 
z
" id="mf187ebe2d9" style="stroke:#008000;"/>
    </defs>
    <g clip-path="url(#p9fd0b36ed5)">
     <use style="fill:#008000;stroke:#008000;" x="178.697563" xlink:href="#mf187ebe2d9" y="572.390389"/>
     <use style="fill:#008000;stroke:#008000;" x="161.915799" xlink:href="#mf187ebe2d9" y="553.108368"/>
     <use style="fill:#008000;stroke:#008000;" x="157.020191" xlink:href="#mf187ebe2d9" y="575.401063"/>
     <use style="fill:#008000;stroke:#008000;" x="169.879455" xlink:href="#mf187ebe2d9" y="572.67245"/>
     <use style="fill:#008000;stroke:#008000;" x="173.486059" xlink:href="#mf187ebe2d9" y="566.399995"/>
     <use style="fill:#008000;stroke:#008000;" x="172.308185" xlink:href="#mf187ebe2d9" y="570.793445"/>
     <use style="fill:#008000;stroke:#008000;" x="175.751853" xlink:href="#mf187ebe2d9" y="571.371711"/>
     <use style="fill:#008000;stroke:#008000;" x="187.742227" xlink:href="#mf187ebe2d9" y="571.773076"/>
     <use style="fill:#008000;stroke:#008000;" x="166.53635" xlink:href="#mf187ebe2d9" y="558.936592"/>
     <use style="fill:#008000;stroke:#008000;" x="170.780454" xlink:href="#mf187ebe2d9" y="575.269868"/>
     <use style="fill:#008000;stroke:#008000;" x="164.839145" xlink:href="#mf187ebe2d9" y="566.227944"/>
     <use style="fill:#008000;stroke:#008000;" x="165.566884" xlink:href="#mf187ebe2d9" y="571.27241"/>
     <use style="fill:#008000;stroke:#008000;" x="189.884258" xlink:href="#mf187ebe2d9" y="569.579169"/>
     <use style="fill:#008000;stroke:#008000;" x="165.565223" xlink:href="#mf187ebe2d9" y="563.120997"/>
     <use style="fill:#008000;stroke:#008000;" x="168.274224" xlink:href="#mf187ebe2d9" y="562.9394"/>
     <use style="fill:#008000;stroke:#008000;" x="176.167438" xlink:href="#mf187ebe2d9" y="568.562681"/>
     <use style="fill:#008000;stroke:#008000;" x="170.955772" xlink:href="#mf187ebe2d9" y="566.141576"/>
     <use style="fill:#008000;stroke:#008000;" x="167.163344" xlink:href="#mf187ebe2d9" y="572.138662"/>
     <use style="fill:#008000;stroke:#008000;" x="171.347499" xlink:href="#mf187ebe2d9" y="568.026835"/>
     <use style="fill:#008000;stroke:#008000;" x="180.738813" xlink:href="#mf187ebe2d9" y="573.403759"/>
     <use style="fill:#008000;stroke:#008000;" x="171.379646" xlink:href="#mf187ebe2d9" y="553.807398"/>
    </g>
   </g>
   <g id="line2d_40">
    <path clip-path="url(#p9fd0b36ed5)" d="M 624.275306 575.079909 
L 624.275306 547.057372 
" style="fill:none;stroke:#008000;stroke-linecap:square;stroke-width:1.5;"/>
   </g>
   <g id="line2d_41">
    <defs>
     <path d="M 0 3 
C 0.795609 3 1.55874 2.683901 2.12132 2.12132 
C 2.683901 1.55874 3 0.795609 3 0 
C 3 -0.795609 2.683901 -1.55874 2.12132 -2.12132 
C 1.55874 -2.683901 0.795609 -3 0 -3 
C -0.795609 -3 -1.55874 -2.683901 -2.12132 -2.12132 
C -2.683901 -1.55874 -3 -0.795609 -3 0 
C -3 0.795609 -2.683901 1.55874 -2.12132 2.12132 
C -1.55874 2.683901 -0.795609 3 0 3 
z
" id="m60550e6d00" style="stroke:#008000;"/>
    </defs>
    <g clip-path="url(#p9fd0b36ed5)">
     <use style="fill-opacity:0;stroke:#008000;" x="624.275306" xlink:href="#m60550e6d00" y="561.068641"/>
    </g>
   </g>
   <g id="patch_3">
    <path d="M 90 630 
L 90 86.4 
" style="fill:none;stroke:#000000;stroke-linecap:square;stroke-linejoin:miter;stroke-width:0.8;"/>
   </g>
   <g id="patch_4">
    <path d="M 648 630 
L 648 86.4 
" style="fill:none;stroke:#000000;stroke-linecap:square;stroke-linejoin:miter;stroke-width:0.8;"/>
   </g>
   <g id="patch_5">
    <path d="M 90 630 
L 648 630 
" style="fill:none;stroke:#000000;stroke-linecap:square;stroke-linejoin:miter;stroke-width:0.8;"/>
   </g>
   <g id="patch_6">
    <path d="M 90 86.4 
L 648 86.4 
" style="fill:none;stroke:#000000;stroke-linecap:square;stroke-linejoin:miter;stroke-width:0.8;"/>
   </g>
   <g id="text_19">
    <!-- Stay at Home Order -->
    <g transform="translate(219.222656 80.160937)scale(0.3 -0.3)">
     <defs>
      <path d="M 53.515625 70.515625 
L 53.515625 60.890625 
Q 47.90625 63.578125 42.921875 64.890625 
Q 37.9375 66.21875 33.296875 66.21875 
Q 25.25 66.21875 20.875 63.09375 
Q 16.5 59.96875 16.5 54.203125 
Q 16.5 49.359375 19.40625 46.890625 
Q 22.3125 44.4375 30.421875 42.921875 
L 36.375 41.703125 
Q 47.40625 39.59375 52.65625 34.296875 
Q 57.90625 29 57.90625 20.125 
Q 57.90625 9.515625 50.796875 4.046875 
Q 43.703125 -1.421875 29.984375 -1.421875 
Q 24.8125 -1.421875 18.96875 -0.25 
Q 13.140625 0.921875 6.890625 3.21875 
L 6.890625 13.375 
Q 12.890625 10.015625 18.65625 8.296875 
Q 24.421875 6.59375 29.984375 6.59375 
Q 38.421875 6.59375 43.015625 9.90625 
Q 47.609375 13.234375 47.609375 19.390625 
Q 47.609375 24.75 44.3125 27.78125 
Q 41.015625 30.8125 33.5 32.328125 
L 27.484375 33.5 
Q 16.453125 35.6875 11.515625 40.375 
Q 6.59375 45.0625 6.59375 53.421875 
Q 6.59375 63.09375 13.40625 68.65625 
Q 20.21875 74.21875 32.171875 74.21875 
Q 37.3125 74.21875 42.625 73.28125 
Q 47.953125 72.359375 53.515625 70.515625 
z
" id="DejaVuSans-83"/>
      <path d="M 32.171875 -5.078125 
Q 28.375 -14.84375 24.75 -17.8125 
Q 21.140625 -20.796875 15.09375 -20.796875 
L 7.90625 -20.796875 
L 7.90625 -13.28125 
L 13.1875 -13.28125 
Q 16.890625 -13.28125 18.9375 -11.515625 
Q 21 -9.765625 23.484375 -3.21875 
L 25.09375 0.875 
L 2.984375 54.6875 
L 12.5 54.6875 
L 29.59375 11.921875 
L 46.6875 54.6875 
L 56.203125 54.6875 
z
" id="DejaVuSans-121"/>
      <path d="M 9.8125 72.90625 
L 19.671875 72.90625 
L 19.671875 43.015625 
L 55.515625 43.015625 
L 55.515625 72.90625 
L 65.375 72.90625 
L 65.375 0 
L 55.515625 0 
L 55.515625 34.71875 
L 19.671875 34.71875 
L 19.671875 0 
L 9.8125 0 
z
" id="DejaVuSans-72"/>
      <path d="M 52 44.1875 
Q 55.375 50.25 60.0625 53.125 
Q 64.75 56 71.09375 56 
Q 79.640625 56 84.28125 50.015625 
Q 88.921875 44.046875 88.921875 33.015625 
L 88.921875 0 
L 79.890625 0 
L 79.890625 32.71875 
Q 79.890625 40.578125 77.09375 44.375 
Q 74.3125 48.1875 68.609375 48.1875 
Q 61.625 48.1875 57.5625 43.546875 
Q 53.515625 38.921875 53.515625 30.90625 
L 53.515625 0 
L 44.484375 0 
L 44.484375 32.71875 
Q 44.484375 40.625 41.703125 44.40625 
Q 38.921875 48.1875 33.109375 48.1875 
Q 26.21875 48.1875 22.15625 43.53125 
Q 18.109375 38.875 18.109375 30.90625 
L 18.109375 0 
L 9.078125 0 
L 9.078125 54.6875 
L 18.109375 54.6875 
L 18.109375 46.1875 
Q 21.1875 51.21875 25.484375 53.609375 
Q 29.78125 56 35.6875 56 
Q 41.65625 56 45.828125 52.96875 
Q 50 49.953125 52 44.1875 
z
" id="DejaVuSans-109"/>
      <path d="M 39.40625 66.21875 
Q 28.65625 66.21875 22.328125 58.203125 
Q 16.015625 50.203125 16.015625 36.375 
Q 16.015625 22.609375 22.328125 14.59375 
Q 28.65625 6.59375 39.40625 6.59375 
Q 50.140625 6.59375 56.421875 14.59375 
Q 62.703125 22.609375 62.703125 36.375 
Q 62.703125 50.203125 56.421875 58.203125 
Q 50.140625 66.21875 39.40625 66.21875 
z
M 39.40625 74.21875 
Q 54.734375 74.21875 63.90625 63.9375 
Q 73.09375 53.65625 73.09375 36.375 
Q 73.09375 19.140625 63.90625 8.859375 
Q 54.734375 -1.421875 39.40625 -1.421875 
Q 24.03125 -1.421875 14.8125 8.828125 
Q 5.609375 19.09375 5.609375 36.375 
Q 5.609375 53.65625 14.8125 63.9375 
Q 24.03125 74.21875 39.40625 74.21875 
z
" id="DejaVuSans-79"/>
      <path d="M 45.40625 46.390625 
L 45.40625 75.984375 
L 54.390625 75.984375 
L 54.390625 0 
L 45.40625 0 
L 45.40625 8.203125 
Q 42.578125 3.328125 38.25 0.953125 
Q 33.9375 -1.421875 27.875 -1.421875 
Q 17.96875 -1.421875 11.734375 6.484375 
Q 5.515625 14.40625 5.515625 27.296875 
Q 5.515625 40.1875 11.734375 48.09375 
Q 17.96875 56 27.875 56 
Q 33.9375 56 38.25 53.625 
Q 42.578125 51.265625 45.40625 46.390625 
z
M 14.796875 27.296875 
Q 14.796875 17.390625 18.875 11.75 
Q 22.953125 6.109375 30.078125 6.109375 
Q 37.203125 6.109375 41.296875 11.75 
Q 45.40625 17.390625 45.40625 27.296875 
Q 45.40625 37.203125 41.296875 42.84375 
Q 37.203125 48.484375 30.078125 48.484375 
Q 22.953125 48.484375 18.875 42.84375 
Q 14.796875 37.203125 14.796875 27.296875 
z
" id="DejaVuSans-100"/>
     </defs>
     <use xlink:href="#DejaVuSans-83"/>
     <use x="63.476562" xlink:href="#DejaVuSans-116"/>
     <use x="102.685547" xlink:href="#DejaVuSans-97"/>
     <use x="163.964844" xlink:href="#DejaVuSans-121"/>
     <use x="223.144531" xlink:href="#DejaVuSans-32"/>
     <use x="254.931641" xlink:href="#DejaVuSans-97"/>
     <use x="316.210938" xlink:href="#DejaVuSans-116"/>
     <use x="355.419922" xlink:href="#DejaVuSans-32"/>
     <use x="387.207031" xlink:href="#DejaVuSans-72"/>
     <use x="462.402344" xlink:href="#DejaVuSans-111"/>
     <use x="523.583984" xlink:href="#DejaVuSans-109"/>
     <use x="620.996094" xlink:href="#DejaVuSans-101"/>
     <use x="682.519531" xlink:href="#DejaVuSans-32"/>
     <use x="714.306641" xlink:href="#DejaVuSans-79"/>
     <use x="793.017578" xlink:href="#DejaVuSans-114"/>
     <use x="832.380859" xlink:href="#DejaVuSans-100"/>
     <use x="895.857422" xlink:href="#DejaVuSans-101"/>
     <use x="957.380859" xlink:href="#DejaVuSans-114"/>
    </g>
   </g>
   <g id="legend_1">
    <g id="patch_7">
     <path d="M 250.81875 278.5375 
L 634 278.5375 
Q 638 278.5375 638 274.5375 
L 638 100.4 
Q 638 96.4 634 96.4 
L 250.81875 96.4 
Q 246.81875 96.4 246.81875 100.4 
L 246.81875 274.5375 
Q 246.81875 278.5375 250.81875 278.5375 
z
" style="fill:#ffffff;opacity:0.8;stroke:#cccccc;stroke-linejoin:miter;"/>
    </g>
    <g id="line2d_42"/>
    <g id="line2d_43">
     <g>
      <use style="fill:#0000ff;stroke:#0000ff;" x="274.81875" xlink:href="#m377efc41e3" y="112.596875"/>
     </g>
    </g>
    <g id="text_20">
     <!-- County Data -->
     <g transform="translate(310.81875 119.596875)scale(0.2 -0.2)">
      <defs>
       <path d="M 64.40625 67.28125 
L 64.40625 56.890625 
Q 59.421875 61.53125 53.78125 63.8125 
Q 48.140625 66.109375 41.796875 66.109375 
Q 29.296875 66.109375 22.65625 58.46875 
Q 16.015625 50.828125 16.015625 36.375 
Q 16.015625 21.96875 22.65625 14.328125 
Q 29.296875 6.6875 41.796875 6.6875 
Q 48.140625 6.6875 53.78125 8.984375 
Q 59.421875 11.28125 64.40625 15.921875 
L 64.40625 5.609375 
Q 59.234375 2.09375 53.4375 0.328125 
Q 47.65625 -1.421875 41.21875 -1.421875 
Q 24.65625 -1.421875 15.125 8.703125 
Q 5.609375 18.84375 5.609375 36.375 
Q 5.609375 53.953125 15.125 64.078125 
Q 24.65625 74.21875 41.21875 74.21875 
Q 47.75 74.21875 53.53125 72.484375 
Q 59.328125 70.75 64.40625 67.28125 
z
" id="DejaVuSans-67"/>
       <path d="M 8.5 21.578125 
L 8.5 54.6875 
L 17.484375 54.6875 
L 17.484375 21.921875 
Q 17.484375 14.15625 20.5 10.265625 
Q 23.53125 6.390625 29.59375 6.390625 
Q 36.859375 6.390625 41.078125 11.03125 
Q 45.3125 15.671875 45.3125 23.6875 
L 45.3125 54.6875 
L 54.296875 54.6875 
L 54.296875 0 
L 45.3125 0 
L 45.3125 8.40625 
Q 42.046875 3.421875 37.71875 1 
Q 33.40625 -1.421875 27.6875 -1.421875 
Q 18.265625 -1.421875 13.375 4.4375 
Q 8.5 10.296875 8.5 21.578125 
z
M 31.109375 56 
z
" id="DejaVuSans-117"/>
       <path d="M 54.890625 33.015625 
L 54.890625 0 
L 45.90625 0 
L 45.90625 32.71875 
Q 45.90625 40.484375 42.875 44.328125 
Q 39.84375 48.1875 33.796875 48.1875 
Q 26.515625 48.1875 22.3125 43.546875 
Q 18.109375 38.921875 18.109375 30.90625 
L 18.109375 0 
L 9.078125 0 
L 9.078125 54.6875 
L 18.109375 54.6875 
L 18.109375 46.1875 
Q 21.34375 51.125 25.703125 53.5625 
Q 30.078125 56 35.796875 56 
Q 45.21875 56 50.046875 50.171875 
Q 54.890625 44.34375 54.890625 33.015625 
z
" id="DejaVuSans-110"/>
       <path d="M 19.671875 64.796875 
L 19.671875 8.109375 
L 31.59375 8.109375 
Q 46.6875 8.109375 53.6875 14.9375 
Q 60.6875 21.78125 60.6875 36.53125 
Q 60.6875 51.171875 53.6875 57.984375 
Q 46.6875 64.796875 31.59375 64.796875 
z
M 9.8125 72.90625 
L 30.078125 72.90625 
Q 51.265625 72.90625 61.171875 64.09375 
Q 71.09375 55.28125 71.09375 36.53125 
Q 71.09375 17.671875 61.125 8.828125 
Q 51.171875 0 30.078125 0 
L 9.8125 0 
z
" id="DejaVuSans-68"/>
      </defs>
      <use xlink:href="#DejaVuSans-67"/>
      <use x="69.824219" xlink:href="#DejaVuSans-111"/>
      <use x="131.005859" xlink:href="#DejaVuSans-117"/>
      <use x="194.384766" xlink:href="#DejaVuSans-110"/>
      <use x="257.763672" xlink:href="#DejaVuSans-116"/>
      <use x="296.972656" xlink:href="#DejaVuSans-121"/>
      <use x="356.152344" xlink:href="#DejaVuSans-32"/>
      <use x="387.939453" xlink:href="#DejaVuSans-68"/>
      <use x="464.941406" xlink:href="#DejaVuSans-97"/>
      <use x="526.220703" xlink:href="#DejaVuSans-116"/>
      <use x="565.429688" xlink:href="#DejaVuSans-97"/>
     </g>
    </g>
    <g id="line2d_44">
     <path d="M 254.81875 141.953125 
L 294.81875 141.953125 
" style="fill:none;stroke:#0000ff;stroke-linecap:square;stroke-width:1.5;"/>
    </g>
    <g id="line2d_45"/>
    <g id="text_21">
     <!-- County Error Bar -->
     <g transform="translate(310.81875 148.953125)scale(0.2 -0.2)">
      <defs>
       <path d="M 9.8125 72.90625 
L 55.90625 72.90625 
L 55.90625 64.59375 
L 19.671875 64.59375 
L 19.671875 43.015625 
L 54.390625 43.015625 
L 54.390625 34.71875 
L 19.671875 34.71875 
L 19.671875 8.296875 
L 56.78125 8.296875 
L 56.78125 0 
L 9.8125 0 
z
" id="DejaVuSans-69"/>
      </defs>
      <use xlink:href="#DejaVuSans-67"/>
      <use x="69.824219" xlink:href="#DejaVuSans-111"/>
      <use x="131.005859" xlink:href="#DejaVuSans-117"/>
      <use x="194.384766" xlink:href="#DejaVuSans-110"/>
      <use x="257.763672" xlink:href="#DejaVuSans-116"/>
      <use x="296.972656" xlink:href="#DejaVuSans-121"/>
      <use x="356.152344" xlink:href="#DejaVuSans-32"/>
      <use x="387.939453" xlink:href="#DejaVuSans-69"/>
      <use x="451.123047" xlink:href="#DejaVuSans-114"/>
      <use x="490.486328" xlink:href="#DejaVuSans-114"/>
      <use x="529.349609" xlink:href="#DejaVuSans-111"/>
      <use x="590.53125" xlink:href="#DejaVuSans-114"/>
      <use x="631.644531" xlink:href="#DejaVuSans-32"/>
      <use x="663.431641" xlink:href="#DejaVuSans-66"/>
      <use x="732.035156" xlink:href="#DejaVuSans-97"/>
      <use x="793.314453" xlink:href="#DejaVuSans-114"/>
     </g>
    </g>
    <g id="line2d_46"/>
    <g id="line2d_47">
     <g>
      <use style="fill:#ff0000;stroke:#ff0000;" x="274.81875" xlink:href="#m282035f552" y="171.309375"/>
     </g>
    </g>
    <g id="text_22">
     <!-- State Data -->
     <g transform="translate(310.81875 178.309375)scale(0.2 -0.2)">
      <use xlink:href="#DejaVuSans-83"/>
      <use x="63.476562" xlink:href="#DejaVuSans-116"/>
      <use x="102.685547" xlink:href="#DejaVuSans-97"/>
      <use x="163.964844" xlink:href="#DejaVuSans-116"/>
      <use x="203.173828" xlink:href="#DejaVuSans-101"/>
      <use x="264.697266" xlink:href="#DejaVuSans-32"/>
      <use x="296.484375" xlink:href="#DejaVuSans-68"/>
      <use x="373.486328" xlink:href="#DejaVuSans-97"/>
      <use x="434.765625" xlink:href="#DejaVuSans-116"/>
      <use x="473.974609" xlink:href="#DejaVuSans-97"/>
     </g>
    </g>
    <g id="line2d_48">
     <path d="M 254.81875 200.665625 
L 294.81875 200.665625 
" style="fill:none;stroke:#ff0000;stroke-linecap:square;stroke-width:1.5;"/>
    </g>
    <g id="line2d_49"/>
    <g id="text_23">
     <!-- State Error Bar -->
     <g transform="translate(310.81875 207.665625)scale(0.2 -0.2)">
      <use xlink:href="#DejaVuSans-83"/>
      <use x="63.476562" xlink:href="#DejaVuSans-116"/>
      <use x="102.685547" xlink:href="#DejaVuSans-97"/>
      <use x="163.964844" xlink:href="#DejaVuSans-116"/>
      <use x="203.173828" xlink:href="#DejaVuSans-101"/>
      <use x="264.697266" xlink:href="#DejaVuSans-32"/>
      <use x="296.484375" xlink:href="#DejaVuSans-69"/>
      <use x="359.667969" xlink:href="#DejaVuSans-114"/>
      <use x="399.03125" xlink:href="#DejaVuSans-114"/>
      <use x="437.894531" xlink:href="#DejaVuSans-111"/>
      <use x="499.076172" xlink:href="#DejaVuSans-114"/>
      <use x="540.189453" xlink:href="#DejaVuSans-32"/>
      <use x="571.976562" xlink:href="#DejaVuSans-66"/>
      <use x="640.580078" xlink:href="#DejaVuSans-97"/>
      <use x="701.859375" xlink:href="#DejaVuSans-114"/>
     </g>
    </g>
    <g id="line2d_50"/>
    <g id="line2d_51">
     <g>
      <use style="fill:#008000;stroke:#008000;" x="274.81875" xlink:href="#mf187ebe2d9" y="230.021875"/>
     </g>
    </g>
    <g id="text_24">
     <!-- Late Stay At Home County Data -->
     <g transform="translate(310.81875 237.021875)scale(0.2 -0.2)">
      <defs>
       <path d="M 9.8125 72.90625 
L 19.671875 72.90625 
L 19.671875 8.296875 
L 55.171875 8.296875 
L 55.171875 0 
L 9.8125 0 
z
" id="DejaVuSans-76"/>
      </defs>
      <use xlink:href="#DejaVuSans-76"/>
      <use x="55.712891" xlink:href="#DejaVuSans-97"/>
      <use x="116.992188" xlink:href="#DejaVuSans-116"/>
      <use x="156.201172" xlink:href="#DejaVuSans-101"/>
      <use x="217.724609" xlink:href="#DejaVuSans-32"/>
      <use x="249.511719" xlink:href="#DejaVuSans-83"/>
      <use x="312.988281" xlink:href="#DejaVuSans-116"/>
      <use x="352.197266" xlink:href="#DejaVuSans-97"/>
      <use x="413.476562" xlink:href="#DejaVuSans-121"/>
      <use x="472.65625" xlink:href="#DejaVuSans-32"/>
      <use x="504.443359" xlink:href="#DejaVuSans-65"/>
      <use x="571.101562" xlink:href="#DejaVuSans-116"/>
      <use x="610.310547" xlink:href="#DejaVuSans-32"/>
      <use x="642.097656" xlink:href="#DejaVuSans-72"/>
      <use x="717.292969" xlink:href="#DejaVuSans-111"/>
      <use x="778.474609" xlink:href="#DejaVuSans-109"/>
      <use x="875.886719" xlink:href="#DejaVuSans-101"/>
      <use x="937.410156" xlink:href="#DejaVuSans-32"/>
      <use x="969.197266" xlink:href="#DejaVuSans-67"/>
      <use x="1039.021484" xlink:href="#DejaVuSans-111"/>
      <use x="1100.203125" xlink:href="#DejaVuSans-117"/>
      <use x="1163.582031" xlink:href="#DejaVuSans-110"/>
      <use x="1226.960938" xlink:href="#DejaVuSans-116"/>
      <use x="1266.169922" xlink:href="#DejaVuSans-121"/>
      <use x="1325.349609" xlink:href="#DejaVuSans-32"/>
      <use x="1357.136719" xlink:href="#DejaVuSans-68"/>
      <use x="1434.138672" xlink:href="#DejaVuSans-97"/>
      <use x="1495.417969" xlink:href="#DejaVuSans-116"/>
      <use x="1534.626953" xlink:href="#DejaVuSans-97"/>
     </g>
    </g>
    <g id="line2d_52">
     <path d="M 254.81875 259.378125 
L 294.81875 259.378125 
" style="fill:none;stroke:#008000;stroke-linecap:square;stroke-width:1.5;"/>
    </g>
    <g id="line2d_53"/>
    <g id="text_25">
     <!-- Late Stay At Home Error Bar -->
     <g transform="translate(310.81875 266.378125)scale(0.2 -0.2)">
      <use xlink:href="#DejaVuSans-76"/>
      <use x="55.712891" xlink:href="#DejaVuSans-97"/>
      <use x="116.992188" xlink:href="#DejaVuSans-116"/>
      <use x="156.201172" xlink:href="#DejaVuSans-101"/>
      <use x="217.724609" xlink:href="#DejaVuSans-32"/>
      <use x="249.511719" xlink:href="#DejaVuSans-83"/>
      <use x="312.988281" xlink:href="#DejaVuSans-116"/>
      <use x="352.197266" xlink:href="#DejaVuSans-97"/>
      <use x="413.476562" xlink:href="#DejaVuSans-121"/>
      <use x="472.65625" xlink:href="#DejaVuSans-32"/>
      <use x="504.443359" xlink:href="#DejaVuSans-65"/>
      <use x="571.101562" xlink:href="#DejaVuSans-116"/>
      <use x="610.310547" xlink:href="#DejaVuSans-32"/>
      <use x="642.097656" xlink:href="#DejaVuSans-72"/>
      <use x="717.292969" xlink:href="#DejaVuSans-111"/>
      <use x="778.474609" xlink:href="#DejaVuSans-109"/>
      <use x="875.886719" xlink:href="#DejaVuSans-101"/>
      <use x="937.410156" xlink:href="#DejaVuSans-32"/>
      <use x="969.197266" xlink:href="#DejaVuSans-69"/>
      <use x="1032.380859" xlink:href="#DejaVuSans-114"/>
      <use x="1071.744141" xlink:href="#DejaVuSans-114"/>
      <use x="1110.607422" xlink:href="#DejaVuSans-111"/>
      <use x="1171.789062" xlink:href="#DejaVuSans-114"/>
      <use x="1212.902344" xlink:href="#DejaVuSans-32"/>
      <use x="1244.689453" xlink:href="#DejaVuSans-66"/>
      <use x="1313.292969" xlink:href="#DejaVuSans-97"/>
      <use x="1374.572266" xlink:href="#DejaVuSans-114"/>
     </g>
    </g>
   </g>
  </g>
 </g>
 <defs>
  <clipPath id="p9fd0b36ed5">
   <rect height="543.6" width="558" x="90" y="86.4"/>
  </clipPath>
 </defs>
</svg>
