<?xml version="1.0" encoding="utf-8" standalone="no"?>
<!DOCTYPE svg PUBLIC "-//W3C//DTD SVG 1.1//EN"
  "http://www.w3.org/Graphics/SVG/1.1/DTD/svg11.dtd">
<!-- Created with matplotlib (https://matplotlib.org/) -->
<svg height="576pt" version="1.1" viewBox="0 0 1296 576" width="1296pt" xmlns="http://www.w3.org/2000/svg" xmlns:xlink="http://www.w3.org/1999/xlink">
 <metadata>
  <rdf:RDF xmlns:cc="http://creativecommons.org/ns#" xmlns:dc="http://purl.org/dc/elements/1.1/" xmlns:rdf="http://www.w3.org/1999/02/22-rdf-syntax-ns#">
   <cc:Work>
    <dc:type rdf:resource="http://purl.org/dc/dcmitype/StillImage"/>
    <dc:date>2021-07-05T20:12:22.000648</dc:date>
    <dc:format>image/svg+xml</dc:format>
    <dc:creator>
     <cc:Agent>
      <dc:title>Matplotlib v3.3.4, https://matplotlib.org/</dc:title>
     </cc:Agent>
    </dc:creator>
   </cc:Work>
  </rdf:RDF>
 </metadata>
 <defs>
  <style type="text/css">*{stroke-linecap:butt;stroke-linejoin:round;}</style>
 </defs>
 <g id="figure_1">
  <g id="patch_1">
   <path d="M 0 576 
L 1296 576 
L 1296 0 
L 0 0 
z
" style="fill:#ffffff;"/>
  </g>
  <g id="axes_1">
   <g id="patch_2">
    <path d="M 162 504 
L 1166.4 504 
L 1166.4 69.12 
L 162 69.12 
z
" style="fill:#ffffff;"/>
   </g>
   <g id="matplotlib.axis_1">
    <g id="xtick_1">
     <g id="line2d_1">
      <defs>
       <path d="M 0 0 
L 0 3.5 
" id="m9f8a23f9b7" style="stroke:#000000;stroke-width:0.8;"/>
      </defs>
      <g>
       <use style="stroke:#000000;stroke-width:0.8;" x="290.66281" xlink:href="#m9f8a23f9b7" y="504"/>
      </g>
     </g>
     <g id="text_1">
      <!-- −10 -->
      <g transform="translate(269.558122 526.196875)scale(0.2 -0.2)">
       <defs>
        <path d="M 10.59375 35.5 
L 73.1875 35.5 
L 73.1875 27.203125 
L 10.59375 27.203125 
z
" id="DejaVuSans-8722"/>
        <path d="M 12.40625 8.296875 
L 28.515625 8.296875 
L 28.515625 63.921875 
L 10.984375 60.40625 
L 10.984375 69.390625 
L 28.421875 72.90625 
L 38.28125 72.90625 
L 38.28125 8.296875 
L 54.390625 8.296875 
L 54.390625 0 
L 12.40625 0 
z
" id="DejaVuSans-49"/>
        <path d="M 31.78125 66.40625 
Q 24.171875 66.40625 20.328125 58.90625 
Q 16.5 51.421875 16.5 36.375 
Q 16.5 21.390625 20.328125 13.890625 
Q 24.171875 6.390625 31.78125 6.390625 
Q 39.453125 6.390625 43.28125 13.890625 
Q 47.125 21.390625 47.125 36.375 
Q 47.125 51.421875 43.28125 58.90625 
Q 39.453125 66.40625 31.78125 66.40625 
z
M 31.78125 74.21875 
Q 44.046875 74.21875 50.515625 64.515625 
Q 56.984375 54.828125 56.984375 36.375 
Q 56.984375 17.96875 50.515625 8.265625 
Q 44.046875 -1.421875 31.78125 -1.421875 
Q 19.53125 -1.421875 13.0625 8.265625 
Q 6.59375 17.96875 6.59375 36.375 
Q 6.59375 54.828125 13.0625 64.515625 
Q 19.53125 74.21875 31.78125 74.21875 
z
" id="DejaVuSans-48"/>
       </defs>
       <use xlink:href="#DejaVuSans-8722"/>
       <use x="83.789062" xlink:href="#DejaVuSans-49"/>
       <use x="147.412109" xlink:href="#DejaVuSans-48"/>
      </g>
     </g>
    </g>
    <g id="xtick_2">
     <g id="line2d_2">
      <g>
       <use style="stroke:#000000;stroke-width:0.8;" x="498.183471" xlink:href="#m9f8a23f9b7" y="504"/>
      </g>
     </g>
     <g id="text_2">
      <!-- 0 -->
      <g transform="translate(491.820971 526.196875)scale(0.2 -0.2)">
       <use xlink:href="#DejaVuSans-48"/>
      </g>
     </g>
    </g>
    <g id="xtick_3">
     <g id="line2d_3">
      <g>
       <use style="stroke:#000000;stroke-width:0.8;" x="705.704132" xlink:href="#m9f8a23f9b7" y="504"/>
      </g>
     </g>
     <g id="text_3">
      <!-- 10 -->
      <g transform="translate(692.979132 526.196875)scale(0.2 -0.2)">
       <use xlink:href="#DejaVuSans-49"/>
       <use x="63.623047" xlink:href="#DejaVuSans-48"/>
      </g>
     </g>
    </g>
    <g id="xtick_4">
     <g id="line2d_4">
      <g>
       <use style="stroke:#000000;stroke-width:0.8;" x="913.224793" xlink:href="#m9f8a23f9b7" y="504"/>
      </g>
     </g>
     <g id="text_4">
      <!-- 20 -->
      <g transform="translate(900.499793 526.196875)scale(0.2 -0.2)">
       <defs>
        <path d="M 19.1875 8.296875 
L 53.609375 8.296875 
L 53.609375 0 
L 7.328125 0 
L 7.328125 8.296875 
Q 12.9375 14.109375 22.625 23.890625 
Q 32.328125 33.6875 34.8125 36.53125 
Q 39.546875 41.84375 41.421875 45.53125 
Q 43.3125 49.21875 43.3125 52.78125 
Q 43.3125 58.59375 39.234375 62.25 
Q 35.15625 65.921875 28.609375 65.921875 
Q 23.96875 65.921875 18.8125 64.3125 
Q 13.671875 62.703125 7.8125 59.421875 
L 7.8125 69.390625 
Q 13.765625 71.78125 18.9375 73 
Q 24.125 74.21875 28.421875 74.21875 
Q 39.75 74.21875 46.484375 68.546875 
Q 53.21875 62.890625 53.21875 53.421875 
Q 53.21875 48.921875 51.53125 44.890625 
Q 49.859375 40.875 45.40625 35.40625 
Q 44.1875 33.984375 37.640625 27.21875 
Q 31.109375 20.453125 19.1875 8.296875 
z
" id="DejaVuSans-50"/>
       </defs>
       <use xlink:href="#DejaVuSans-50"/>
       <use x="63.623047" xlink:href="#DejaVuSans-48"/>
      </g>
     </g>
    </g>
    <g id="xtick_5">
     <g id="line2d_5">
      <g>
       <use style="stroke:#000000;stroke-width:0.8;" x="1120.745455" xlink:href="#m9f8a23f9b7" y="504"/>
      </g>
     </g>
     <g id="text_5">
      <!-- 30 -->
      <g transform="translate(1108.020455 526.196875)scale(0.2 -0.2)">
       <defs>
        <path d="M 40.578125 39.3125 
Q 47.65625 37.796875 51.625 33 
Q 55.609375 28.21875 55.609375 21.1875 
Q 55.609375 10.40625 48.1875 4.484375 
Q 40.765625 -1.421875 27.09375 -1.421875 
Q 22.515625 -1.421875 17.65625 -0.515625 
Q 12.796875 0.390625 7.625 2.203125 
L 7.625 11.71875 
Q 11.71875 9.328125 16.59375 8.109375 
Q 21.484375 6.890625 26.8125 6.890625 
Q 36.078125 6.890625 40.9375 10.546875 
Q 45.796875 14.203125 45.796875 21.1875 
Q 45.796875 27.640625 41.28125 31.265625 
Q 36.765625 34.90625 28.71875 34.90625 
L 20.21875 34.90625 
L 20.21875 43.015625 
L 29.109375 43.015625 
Q 36.375 43.015625 40.234375 45.921875 
Q 44.09375 48.828125 44.09375 54.296875 
Q 44.09375 59.90625 40.109375 62.90625 
Q 36.140625 65.921875 28.71875 65.921875 
Q 24.65625 65.921875 20.015625 65.03125 
Q 15.375 64.15625 9.8125 62.3125 
L 9.8125 71.09375 
Q 15.4375 72.65625 20.34375 73.4375 
Q 25.25 74.21875 29.59375 74.21875 
Q 40.828125 74.21875 47.359375 69.109375 
Q 53.90625 64.015625 53.90625 55.328125 
Q 53.90625 49.265625 50.4375 45.09375 
Q 46.96875 40.921875 40.578125 39.3125 
z
" id="DejaVuSans-51"/>
       </defs>
       <use xlink:href="#DejaVuSans-51"/>
       <use x="63.623047" xlink:href="#DejaVuSans-48"/>
      </g>
     </g>
    </g>
   </g>
   <g id="matplotlib.axis_2">
    <g id="ytick_1">
     <g id="line2d_6">
      <defs>
       <path d="M 0 0 
L -3.5 0 
" id="mf7ecca52cc" style="stroke:#000000;stroke-width:0.8;"/>
      </defs>
      <g>
       <use style="stroke:#000000;stroke-width:0.8;" x="162" xlink:href="#mf7ecca52cc" y="504"/>
      </g>
     </g>
     <g id="text_6">
      <!-- 0.00 -->
      <g transform="translate(110.46875 511.598437)scale(0.2 -0.2)">
       <defs>
        <path d="M 10.6875 12.40625 
L 21 12.40625 
L 21 0 
L 10.6875 0 
z
" id="DejaVuSans-46"/>
       </defs>
       <use xlink:href="#DejaVuSans-48"/>
       <use x="63.623047" xlink:href="#DejaVuSans-46"/>
       <use x="95.410156" xlink:href="#DejaVuSans-48"/>
       <use x="159.033203" xlink:href="#DejaVuSans-48"/>
      </g>
     </g>
    </g>
    <g id="ytick_2">
     <g id="line2d_7">
      <g>
       <use style="stroke:#000000;stroke-width:0.8;" x="162" xlink:href="#mf7ecca52cc" y="449.64"/>
      </g>
     </g>
     <g id="text_7">
      <!-- 0.02 -->
      <g transform="translate(110.46875 457.238438)scale(0.2 -0.2)">
       <use xlink:href="#DejaVuSans-48"/>
       <use x="63.623047" xlink:href="#DejaVuSans-46"/>
       <use x="95.410156" xlink:href="#DejaVuSans-48"/>
       <use x="159.033203" xlink:href="#DejaVuSans-50"/>
      </g>
     </g>
    </g>
    <g id="ytick_3">
     <g id="line2d_8">
      <g>
       <use style="stroke:#000000;stroke-width:0.8;" x="162" xlink:href="#mf7ecca52cc" y="395.28"/>
      </g>
     </g>
     <g id="text_8">
      <!-- 0.04 -->
      <g transform="translate(110.46875 402.878438)scale(0.2 -0.2)">
       <defs>
        <path d="M 37.796875 64.3125 
L 12.890625 25.390625 
L 37.796875 25.390625 
z
M 35.203125 72.90625 
L 47.609375 72.90625 
L 47.609375 25.390625 
L 58.015625 25.390625 
L 58.015625 17.1875 
L 47.609375 17.1875 
L 47.609375 0 
L 37.796875 0 
L 37.796875 17.1875 
L 4.890625 17.1875 
L 4.890625 26.703125 
z
" id="DejaVuSans-52"/>
       </defs>
       <use xlink:href="#DejaVuSans-48"/>
       <use x="63.623047" xlink:href="#DejaVuSans-46"/>
       <use x="95.410156" xlink:href="#DejaVuSans-48"/>
       <use x="159.033203" xlink:href="#DejaVuSans-52"/>
      </g>
     </g>
    </g>
    <g id="ytick_4">
     <g id="line2d_9">
      <g>
       <use style="stroke:#000000;stroke-width:0.8;" x="162" xlink:href="#mf7ecca52cc" y="340.92"/>
      </g>
     </g>
     <g id="text_9">
      <!-- 0.06 -->
      <g transform="translate(110.46875 348.518438)scale(0.2 -0.2)">
       <defs>
        <path d="M 33.015625 40.375 
Q 26.375 40.375 22.484375 35.828125 
Q 18.609375 31.296875 18.609375 23.390625 
Q 18.609375 15.53125 22.484375 10.953125 
Q 26.375 6.390625 33.015625 6.390625 
Q 39.65625 6.390625 43.53125 10.953125 
Q 47.40625 15.53125 47.40625 23.390625 
Q 47.40625 31.296875 43.53125 35.828125 
Q 39.65625 40.375 33.015625 40.375 
z
M 52.59375 71.296875 
L 52.59375 62.3125 
Q 48.875 64.0625 45.09375 64.984375 
Q 41.3125 65.921875 37.59375 65.921875 
Q 27.828125 65.921875 22.671875 59.328125 
Q 17.53125 52.734375 16.796875 39.40625 
Q 19.671875 43.65625 24.015625 45.921875 
Q 28.375 48.1875 33.59375 48.1875 
Q 44.578125 48.1875 50.953125 41.515625 
Q 57.328125 34.859375 57.328125 23.390625 
Q 57.328125 12.15625 50.6875 5.359375 
Q 44.046875 -1.421875 33.015625 -1.421875 
Q 20.359375 -1.421875 13.671875 8.265625 
Q 6.984375 17.96875 6.984375 36.375 
Q 6.984375 53.65625 15.1875 63.9375 
Q 23.390625 74.21875 37.203125 74.21875 
Q 40.921875 74.21875 44.703125 73.484375 
Q 48.484375 72.75 52.59375 71.296875 
z
" id="DejaVuSans-54"/>
       </defs>
       <use xlink:href="#DejaVuSans-48"/>
       <use x="63.623047" xlink:href="#DejaVuSans-46"/>
       <use x="95.410156" xlink:href="#DejaVuSans-48"/>
       <use x="159.033203" xlink:href="#DejaVuSans-54"/>
      </g>
     </g>
    </g>
    <g id="ytick_5">
     <g id="line2d_10">
      <g>
       <use style="stroke:#000000;stroke-width:0.8;" x="162" xlink:href="#mf7ecca52cc" y="286.56"/>
      </g>
     </g>
     <g id="text_10">
      <!-- 0.08 -->
      <g transform="translate(110.46875 294.158437)scale(0.2 -0.2)">
       <defs>
        <path d="M 31.78125 34.625 
Q 24.75 34.625 20.71875 30.859375 
Q 16.703125 27.09375 16.703125 20.515625 
Q 16.703125 13.921875 20.71875 10.15625 
Q 24.75 6.390625 31.78125 6.390625 
Q 38.8125 6.390625 42.859375 10.171875 
Q 46.921875 13.96875 46.921875 20.515625 
Q 46.921875 27.09375 42.890625 30.859375 
Q 38.875 34.625 31.78125 34.625 
z
M 21.921875 38.8125 
Q 15.578125 40.375 12.03125 44.71875 
Q 8.5 49.078125 8.5 55.328125 
Q 8.5 64.0625 14.71875 69.140625 
Q 20.953125 74.21875 31.78125 74.21875 
Q 42.671875 74.21875 48.875 69.140625 
Q 55.078125 64.0625 55.078125 55.328125 
Q 55.078125 49.078125 51.53125 44.71875 
Q 48 40.375 41.703125 38.8125 
Q 48.828125 37.15625 52.796875 32.3125 
Q 56.78125 27.484375 56.78125 20.515625 
Q 56.78125 9.90625 50.3125 4.234375 
Q 43.84375 -1.421875 31.78125 -1.421875 
Q 19.734375 -1.421875 13.25 4.234375 
Q 6.78125 9.90625 6.78125 20.515625 
Q 6.78125 27.484375 10.78125 32.3125 
Q 14.796875 37.15625 21.921875 38.8125 
z
M 18.3125 54.390625 
Q 18.3125 48.734375 21.84375 45.5625 
Q 25.390625 42.390625 31.78125 42.390625 
Q 38.140625 42.390625 41.71875 45.5625 
Q 45.3125 48.734375 45.3125 54.390625 
Q 45.3125 60.0625 41.71875 63.234375 
Q 38.140625 66.40625 31.78125 66.40625 
Q 25.390625 66.40625 21.84375 63.234375 
Q 18.3125 60.0625 18.3125 54.390625 
z
" id="DejaVuSans-56"/>
       </defs>
       <use xlink:href="#DejaVuSans-48"/>
       <use x="63.623047" xlink:href="#DejaVuSans-46"/>
       <use x="95.410156" xlink:href="#DejaVuSans-48"/>
       <use x="159.033203" xlink:href="#DejaVuSans-56"/>
      </g>
     </g>
    </g>
    <g id="ytick_6">
     <g id="line2d_11">
      <g>
       <use style="stroke:#000000;stroke-width:0.8;" x="162" xlink:href="#mf7ecca52cc" y="232.2"/>
      </g>
     </g>
     <g id="text_11">
      <!-- 0.10 -->
      <g transform="translate(110.46875 239.798437)scale(0.2 -0.2)">
       <use xlink:href="#DejaVuSans-48"/>
       <use x="63.623047" xlink:href="#DejaVuSans-46"/>
       <use x="95.410156" xlink:href="#DejaVuSans-49"/>
       <use x="159.033203" xlink:href="#DejaVuSans-48"/>
      </g>
     </g>
    </g>
    <g id="ytick_7">
     <g id="line2d_12">
      <g>
       <use style="stroke:#000000;stroke-width:0.8;" x="162" xlink:href="#mf7ecca52cc" y="177.84"/>
      </g>
     </g>
     <g id="text_12">
      <!-- 0.12 -->
      <g transform="translate(110.46875 185.438438)scale(0.2 -0.2)">
       <use xlink:href="#DejaVuSans-48"/>
       <use x="63.623047" xlink:href="#DejaVuSans-46"/>
       <use x="95.410156" xlink:href="#DejaVuSans-49"/>
       <use x="159.033203" xlink:href="#DejaVuSans-50"/>
      </g>
     </g>
    </g>
    <g id="ytick_8">
     <g id="line2d_13">
      <g>
       <use style="stroke:#000000;stroke-width:0.8;" x="162" xlink:href="#mf7ecca52cc" y="123.48"/>
      </g>
     </g>
     <g id="text_13">
      <!-- 0.14 -->
      <g transform="translate(110.46875 131.078437)scale(0.2 -0.2)">
       <use xlink:href="#DejaVuSans-48"/>
       <use x="63.623047" xlink:href="#DejaVuSans-46"/>
       <use x="95.410156" xlink:href="#DejaVuSans-49"/>
       <use x="159.033203" xlink:href="#DejaVuSans-52"/>
      </g>
     </g>
    </g>
    <g id="ytick_9">
     <g id="line2d_14">
      <g>
       <use style="stroke:#000000;stroke-width:0.8;" x="162" xlink:href="#mf7ecca52cc" y="69.12"/>
      </g>
     </g>
     <g id="text_14">
      <!-- 0.16 -->
      <g transform="translate(110.46875 76.718437)scale(0.2 -0.2)">
       <use xlink:href="#DejaVuSans-48"/>
       <use x="63.623047" xlink:href="#DejaVuSans-46"/>
       <use x="95.410156" xlink:href="#DejaVuSans-49"/>
       <use x="159.033203" xlink:href="#DejaVuSans-54"/>
      </g>
     </g>
    </g>
   </g>
   <g id="LineCollection_1">
    <path clip-path="url(#p3f65ee0610)" d="M 498.183471 504 
L 498.183471 163.925393 
" style="fill:none;stroke:#000000;stroke-width:6;"/>
   </g>
   <g id="line2d_15">
    <path clip-path="url(#p3f65ee0610)" d="M 207.654545 227.681797 
L 228.406612 241.577323 
L 249.158678 244.321169 
L 269.910744 242.762603 
L 290.66281 257.032462 
L 311.414876 265.979079 
L 332.166942 270.018285 
L 352.919008 272.67416 
L 373.671074 275.509805 
L 394.42314 274.06166 
L 415.175207 269.887914 
L 435.927273 285.009689 
L 456.679339 296.86628 
L 477.431405 302.371438 
L 498.183471 303.039369 
L 518.935537 308.703752 
L 539.687603 311.927519 
L 560.439669 306.19759 
L 581.191736 310.750619 
L 601.943802 310.981225 
L 622.695868 301.563392 
L 643.447934 292.726086 
L 664.2 287.610511 
L 684.952066 283.663043 
L 705.704132 264.551576 
L 726.456198 264.192976 
L 747.208264 267.982062 
L 767.960331 266.336957 
L 788.712397 260.869138 
L 809.464463 261.171566 
L 830.216529 261.880633 
L 850.968595 247.372862 
L 871.720661 258.543201 
L 892.472727 270.341664 
L 913.224793 271.073289 
L 933.97686 274.01184 
L 954.728926 281.096185 
L 975.480992 279.609009 
L 996.233058 271.811958 
L 1016.985124 278.773065 
L 1037.73719 285.810819 
L 1058.489256 289.483194 
L 1079.241322 286.49631 
L 1099.993388 277.48891 
L 1120.745455 265.039892 
" style="fill:none;stroke:#808080;stroke-linecap:square;stroke-opacity:0.4;"/>
   </g>
   <g id="line2d_16">
    <path clip-path="url(#p3f65ee0610)" d="M 326.454218 -1 
L 332.166942 20.871006 
L 352.919008 67.735218 
L 373.671074 145.253968 
L 394.42314 205.232256 
L 415.175207 216.760931 
L 435.927273 229.594565 
L 456.679339 260.931714 
L 477.431405 269.928894 
L 498.183471 286.979957 
L 518.935537 288.335132 
L 539.687603 284.496421 
L 560.439669 285.206911 
L 581.191736 302.189279 
L 601.943802 301.65226 
L 622.695868 304.575054 
L 643.447934 305.02144 
L 664.2 305.780397 
L 684.952066 324.418015 
L 705.704132 335.692669 
L 726.456198 341.475671 
L 747.208264 354.485538 
L 767.960331 362.578958 
L 788.712397 371.625095 
L 809.464463 375.22169 
L 830.216529 382.908075 
L 850.968595 376.871978 
L 871.720661 387.688875 
L 892.472727 398.27279 
L 913.224793 397.746393 
L 933.97686 390.263094 
L 954.728926 373.748015 
L 975.480992 364.822147 
L 996.233058 360.93313 
L 1016.985124 353.542689 
L 1037.73719 338.943233 
L 1058.489256 305.831074 
L 1079.241322 326.814314 
L 1099.993388 326.081912 
L 1120.745455 346.450739 
" style="fill:none;stroke:#808080;stroke-linecap:square;stroke-opacity:0.4;"/>
   </g>
   <g id="line2d_17">
    <path clip-path="url(#p3f65ee0610)" d="M 295.122649 -1 
L 311.414876 26.061039 
L 332.166942 74.164608 
L 352.919008 135.928728 
L 373.671074 145.239168 
L 394.42314 154.724332 
L 415.175207 184.672811 
L 435.927273 204.864165 
L 456.679339 230.475057 
L 477.431405 251.792195 
L 498.183471 258.302489 
L 518.935537 261.467644 
L 539.687603 269.20359 
L 560.439669 289.583131 
L 581.191736 297.20449 
L 601.943802 309.757509 
L 622.695868 296.312563 
L 643.447934 291.97163 
L 664.2 285.796449 
L 684.952066 283.734238 
L 705.704132 288.793564 
L 726.456198 290.516921 
L 747.208264 277.742057 
L 767.960331 269.764401 
L 788.712397 262.430875 
L 809.464463 261.29675 
L 830.216529 253.375211 
L 850.968595 272.037006 
L 871.720661 266.623878 
L 892.472727 261.620212 
L 913.224793 255.307534 
L 933.97686 249.253558 
L 954.728926 246.285883 
L 975.480992 238.447111 
L 996.233058 243.012496 
L 1016.985124 238.730956 
L 1037.73719 246.32926 
L 1058.489256 243.536679 
L 1079.241322 239.408263 
L 1099.993388 250.690669 
L 1120.745455 260.920792 
" style="fill:none;stroke:#808080;stroke-linecap:square;stroke-opacity:0.4;"/>
   </g>
   <g id="line2d_18">
    <path clip-path="url(#p3f65ee0610)" d="M 264.01054 -1 
L 269.910744 5.305298 
L 290.66281 36.309372 
L 311.414876 46.815537 
L 332.166942 70.154301 
L 352.919008 115.819915 
L 373.671074 149.883849 
L 394.42314 171.724072 
L 415.175207 190.086658 
L 435.927273 210.623941 
L 456.679339 220.764003 
L 477.431405 228.55499 
L 498.183471 241.436253 
L 518.935537 247.938669 
L 539.687603 253.399099 
L 560.439669 253.518948 
L 581.191736 251.32154 
L 601.943802 246.258538 
L 622.695868 232.139321 
L 643.447934 233.590759 
L 664.2 236.803195 
L 684.952066 244.247464 
L 705.704132 245.791359 
L 726.456198 254.224047 
L 747.208264 256.240362 
L 767.960331 257.270487 
L 788.712397 266.344121 
L 809.464463 275.908074 
L 830.216529 284.046618 
L 850.968595 288.876698 
L 871.720661 291.560532 
L 892.472727 290.174423 
L 913.224793 281.54447 
L 933.97686 283.13908 
L 954.728926 283.129155 
L 975.480992 283.227087 
L 996.233058 280.181575 
L 1016.985124 279.013576 
L 1037.73719 273.631575 
L 1058.489256 264.694072 
L 1079.241322 266.471953 
L 1099.993388 267.450152 
L 1120.745455 266.429567 
" style="fill:none;stroke:#808080;stroke-linecap:square;stroke-opacity:0.4;"/>
   </g>
   <g id="line2d_19">
    <path clip-path="url(#p3f65ee0610)" d="M 367.860144 -1 
L 373.671074 25.342314 
L 394.42314 72.569738 
L 415.175207 91.663835 
L 435.927273 106.714154 
L 456.679339 133.964614 
L 477.431405 159.35703 
L 498.183471 191.391344 
L 518.935537 218.649113 
L 539.687603 247.799899 
L 560.439669 263.002797 
L 581.191736 282.567886 
L 601.943802 284.497195 
L 622.695868 289.111479 
L 643.447934 282.013127 
L 664.2 294.988709 
L 684.952066 285.603899 
L 705.704132 297.223554 
L 726.456198 295.199424 
L 747.208264 293.569256 
L 767.960331 290.08005 
L 788.712397 292.750092 
L 809.464463 286.145382 
L 830.216529 292.431115 
L 850.968595 291.247471 
L 871.720661 272.412058 
L 892.472727 255.687904 
L 913.224793 243.231927 
L 933.97686 221.939137 
L 954.728926 222.181545 
L 975.480992 238.090372 
L 996.233058 243.462195 
L 1016.985124 246.185302 
L 1037.73719 256.739681 
L 1058.489256 267.73214 
L 1079.241322 283.694206 
L 1099.993388 299.966785 
L 1120.745455 309.520654 
" style="fill:none;stroke:#808080;stroke-linecap:square;stroke-opacity:0.4;"/>
   </g>
   <g id="line2d_20">
    <path clip-path="url(#p3f65ee0610)" d="M 509.71446 -1 
L 518.935537 32.077867 
L 539.687603 85.017031 
L 560.439669 84.960205 
L 581.191736 71.192982 
L 601.943802 135.269711 
L 622.695868 124.287258 
L 643.447934 130.35008 
L 664.2 167.758482 
L 684.952066 183.107566 
L 705.704132 202.400414 
L 726.456198 223.868728 
L 747.208264 221.01243 
L 767.960331 244.520847 
L 788.712397 245.663133 
L 809.464463 265.98488 
L 830.216529 275.589743 
L 850.968595 279.784918 
L 871.720661 277.100278 
L 892.472727 279.332634 
L 913.224793 277.077636 
L 933.97686 257.52918 
L 954.728926 273.859845 
L 975.480992 267.055339 
L 996.233058 292.920262 
L 1016.985124 306.02616 
L 1037.73719 309.11685 
L 1058.489256 322.975489 
L 1079.241322 328.095488 
L 1099.993388 338.125867 
L 1120.745455 349.971058 
" style="fill:none;stroke:#808080;stroke-linecap:square;stroke-opacity:0.4;"/>
   </g>
   <g id="line2d_21">
    <path clip-path="url(#p3f65ee0610)" d="M 422.728659 -1 
L 435.927273 30.538199 
L 456.679339 89.061183 
L 477.431405 93.151513 
L 498.183471 80.422152 
L 518.935537 100.904861 
L 539.687603 83.88122 
L 560.439669 39.689619 
L 581.191736 119.497094 
L 601.943802 108.014558 
L 622.695868 86.689173 
L 643.447934 89.85376 
L 664.2 159.401356 
L 684.952066 175.575014 
L 705.704132 182.643187 
L 726.456198 202.750776 
L 747.208264 223.016796 
L 767.960331 229.674719 
L 788.712397 242.663805 
L 809.464463 257.275501 
L 830.216529 250.523602 
L 850.968595 225.065087 
L 871.720661 248.704365 
L 892.472727 247.228603 
L 913.224793 258.840071 
L 933.97686 237.010691 
L 954.728926 244.98603 
L 975.480992 232.509926 
L 996.233058 226.407798 
L 1016.985124 226.071942 
L 1037.73719 268.963299 
L 1058.489256 274.101267 
L 1079.241322 300.241867 
L 1099.993388 303.410253 
L 1120.745455 299.629352 
" style="fill:none;stroke:#808080;stroke-linecap:square;stroke-opacity:0.4;"/>
   </g>
   <g id="line2d_22">
    <path clip-path="url(#p3f65ee0610)" d="M 255.982064 -1 
L 269.910744 29.439582 
L 290.66281 44.90484 
L 311.414876 86.29526 
L 332.166942 119.370454 
L 352.919008 157.476952 
L 373.671074 189.732936 
L 394.42314 216.532939 
L 415.175207 228.702223 
L 435.927273 253.400749 
L 456.679339 268.77924 
L 477.431405 280.758439 
L 498.183471 293.754366 
L 518.935537 303.995258 
L 539.687603 310.205267 
L 560.439669 315.442515 
L 581.191736 318.955909 
L 601.943802 316.264198 
L 622.695868 316.562603 
L 643.447934 314.795409 
L 664.2 321.042587 
L 684.952066 321.534382 
L 705.704132 316.004107 
L 726.456198 314.607914 
L 747.208264 319.908589 
L 767.960331 321.82449 
L 788.712397 330.006662 
L 809.464463 334.772084 
L 830.216529 325.190997 
L 850.968595 314.949282 
L 871.720661 312.175317 
L 892.472727 307.66635 
L 913.224793 295.771837 
L 933.97686 291.726085 
L 954.728926 294.553027 
L 975.480992 293.018791 
L 996.233058 292.595122 
L 1016.985124 300.116012 
L 1037.73719 311.800438 
L 1058.489256 316.005624 
L 1079.241322 318.404806 
L 1099.993388 320.833802 
L 1120.745455 320.756979 
" style="fill:none;stroke:#808080;stroke-linecap:square;stroke-opacity:0.4;"/>
   </g>
   <g id="line2d_23">
    <path clip-path="url(#p3f65ee0610)" d="M 207.654545 22.004789 
L 228.406612 67.918771 
L 249.158678 42.618855 
L 269.910744 32.322499 
L 290.66281 56.79056 
L 311.414876 151.52612 
L 332.166942 176.199376 
L 352.919008 181.400163 
L 373.671074 169.570239 
L 394.42314 160.944737 
L 415.175207 145.776244 
L 435.927273 172.591932 
L 456.679339 228.621211 
L 477.431405 251.209505 
L 498.183471 248.276511 
L 518.935537 266.785281 
L 539.687603 271.287449 
L 560.439669 270.659239 
L 581.191736 284.890629 
L 601.943802 296.634189 
L 622.695868 296.183671 
L 643.447934 307.142724 
L 664.2 311.862012 
L 684.952066 309.262002 
L 705.704132 308.660788 
L 726.456198 295.00438 
L 747.208264 288.31019 
L 767.960331 299.397913 
L 788.712397 301.365883 
L 809.464463 303.785866 
L 830.216529 316.559496 
L 850.968595 301.925959 
L 871.720661 304.451798 
L 892.472727 311.766671 
L 913.224793 313.983578 
L 933.97686 307.299791 
L 954.728926 318.18566 
L 975.480992 310.723066 
L 996.233058 299.135104 
L 1016.985124 306.236002 
L 1037.73719 300.309435 
L 1058.489256 297.327986 
L 1079.241322 300.094654 
L 1099.993388 292.036818 
L 1120.745455 295.202831 
" style="fill:none;stroke:#808080;stroke-linecap:square;stroke-opacity:0.4;"/>
   </g>
   <g id="line2d_24">
    <path clip-path="url(#p3f65ee0610)" d="M 308.153647 -1 
L 311.414876 11.950209 
L 332.166942 31.229884 
L 352.919008 19.587299 
L 373.671074 52.418397 
L 394.42314 63.101765 
L 415.175207 119.30693 
L 435.927273 142.554783 
L 456.679339 171.20532 
L 477.431405 185.535721 
L 498.183471 217.334566 
L 518.935537 235.248576 
L 539.687603 272.088563 
L 560.439669 294.373989 
L 581.191736 306.619791 
L 601.943802 322.054038 
L 622.695868 343.978858 
L 643.447934 361.999105 
L 664.2 375.486882 
L 684.952066 376.378235 
L 705.704132 382.042199 
L 726.456198 385.251453 
L 747.208264 383.13952 
L 767.960331 374.55806 
L 788.712397 367.84846 
L 809.464463 357.325101 
L 830.216529 357.942744 
L 850.968595 369.761204 
L 871.720661 368.951501 
L 892.472727 367.371492 
L 913.224793 369.73133 
L 933.97686 390.452155 
L 954.728926 409.25491 
L 975.480992 418.909123 
L 996.233058 416.674344 
L 1016.985124 420.586577 
L 1037.73719 423.883172 
L 1058.489256 422.820784 
L 1079.241322 421.576011 
L 1099.993388 416.003102 
L 1120.745455 378.673696 
" style="fill:none;stroke:#808080;stroke-linecap:square;stroke-opacity:0.4;"/>
   </g>
   <g id="line2d_25">
    <path clip-path="url(#p3f65ee0610)" d="M 503.176747 -1 
L 518.935537 70.551249 
L 539.687603 177.562885 
L 560.439669 226.606231 
L 581.191736 256.074841 
L 601.943802 283.876222 
L 622.695868 321.676308 
L 643.447934 347.919234 
L 664.2 367.922483 
L 684.952066 391.666097 
L 705.704132 394.126673 
L 726.456198 392.290335 
L 747.208264 390.827163 
L 767.960331 386.538252 
L 788.712397 377.194711 
L 809.464463 367.569011 
L 830.216529 344.882557 
L 850.968595 337.990508 
L 871.720661 337.743032 
L 892.472727 316.200114 
L 913.224793 329.662053 
L 933.97686 349.426392 
L 954.728926 325.530832 
L 975.480992 327.09282 
L 996.233058 335.4013 
L 1016.985124 324.821714 
L 1037.73719 329.638343 
L 1058.489256 341.143716 
L 1079.241322 322.531459 
L 1099.993388 328.432508 
L 1120.745455 320.514633 
" style="fill:none;stroke:#808080;stroke-linecap:square;stroke-opacity:0.4;"/>
   </g>
   <g id="line2d_26">
    <path clip-path="url(#p3f65ee0610)" d="M 505.663999 -1 
L 518.935537 5.238597 
L 539.687603 81.26361 
L 560.439669 68.273101 
L 581.191736 97.118287 
L 601.943802 127.240321 
L 622.695868 132.708701 
L 643.447934 157.999095 
L 664.2 184.960764 
L 684.952066 186.813451 
L 705.704132 196.812869 
L 726.456198 208.711948 
L 747.208264 219.55142 
L 767.960331 234.236667 
L 788.712397 250.100788 
L 809.464463 250.555872 
L 830.216529 266.597754 
L 850.968595 268.077342 
L 871.720661 271.800879 
L 892.472727 281.346753 
L 913.224793 280.405317 
L 933.97686 280.794474 
L 954.728926 283.536447 
L 975.480992 271.596906 
L 996.233058 254.9794 
L 1016.985124 240.557734 
L 1037.73719 237.316969 
L 1058.489256 231.141876 
L 1079.241322 237.824349 
L 1099.993388 229.97356 
L 1120.745455 227.807594 
" style="fill:none;stroke:#808080;stroke-linecap:square;stroke-opacity:0.4;"/>
   </g>
   <g id="line2d_27">
    <path clip-path="url(#p3f65ee0610)" d="M 500.057044 -1 
L 518.935537 42.063352 
L 539.687603 82.7106 
L 560.439669 122.416209 
L 581.191736 144.764031 
L 601.943802 172.681097 
L 622.695868 194.44665 
L 643.447934 217.098511 
L 664.2 239.103085 
L 684.952066 254.158283 
L 705.704132 262.677052 
L 726.456198 281.913106 
L 747.208264 294.080908 
L 767.960331 302.131838 
L 788.712397 299.249724 
L 809.464463 291.077086 
L 830.216529 285.967172 
L 850.968595 291.243419 
L 871.720661 295.252716 
L 892.472727 292.570318 
L 913.224793 286.724879 
L 933.97686 275.956599 
L 954.728926 269.990891 
L 975.480992 257.575861 
L 996.233058 248.801468 
L 1016.985124 242.411008 
L 1037.73719 241.544188 
L 1058.489256 241.633487 
L 1079.241322 255.697104 
L 1099.993388 256.872364 
L 1120.745455 257.977951 
" style="fill:none;stroke:#808080;stroke-linecap:square;stroke-opacity:0.4;"/>
   </g>
   <g id="line2d_28">
    <path clip-path="url(#p3f65ee0610)" d="M 370.415833 -1 
L 373.671074 10.276108 
L 394.42314 54.95564 
L 415.175207 73.577242 
L 435.927273 93.663936 
L 456.679339 118.645314 
L 477.431405 154.187491 
L 498.183471 164.446533 
L 518.935537 188.85162 
L 539.687603 212.631793 
L 560.439669 211.291173 
L 581.191736 223.863461 
L 601.943802 262.571454 
L 622.695868 265.11389 
L 643.447934 294.51329 
L 664.2 298.300204 
L 684.952066 300.876315 
L 705.704132 289.145944 
L 726.456198 308.186144 
L 747.208264 287.425418 
L 767.960331 293.580198 
L 788.712397 294.910131 
L 809.464463 248.503534 
L 830.216529 197.187441 
L 850.968595 169.228059 
L 871.720661 70.001961 
L 892.472727 100.170133 
L 913.224793 121.738434 
L 933.97686 161.18351 
L 954.728926 162.319691 
L 975.480992 162.295083 
L 996.233058 150.89161 
L 1016.985124 166.039435 
L 1037.73719 185.612021 
L 1058.489256 224.58947 
L 1079.241322 235.290767 
L 1099.993388 246.279551 
L 1120.745455 248.586015 
" style="fill:none;stroke:#808080;stroke-linecap:square;stroke-opacity:0.4;"/>
   </g>
   <g id="line2d_29">
    <path clip-path="url(#p3f65ee0610)" d="M 396.246312 -1 
L 415.175207 61.430637 
L 435.927273 72.949921 
L 456.679339 81.705334 
L 477.431405 148.924859 
L 498.183471 193.280849 
L 518.935537 221.507519 
L 539.687603 208.12929 
L 560.439669 210.49809 
L 581.191736 181.09315 
L 601.943802 155.649324 
L 622.695868 166.331946 
L 643.447934 192.796152 
L 664.2 187.204591 
L 684.952066 214.869776 
L 705.704132 229.81532 
L 726.456198 248.87986 
L 747.208264 250.999131 
L 767.960331 261.832241 
L 788.712397 259.612747 
L 809.464463 273.411578 
L 830.216529 266.697441 
L 850.968595 280.930124 
L 871.720661 290.903478 
L 892.472727 277.710404 
L 913.224793 261.976752 
L 933.97686 272.091559 
L 954.728926 252.38559 
L 975.480992 273.981075 
L 996.233058 275.232701 
L 1016.985124 280.076464 
L 1037.73719 277.955993 
L 1058.489256 297.338212 
L 1079.241322 304.355794 
L 1099.993388 298.156892 
L 1120.745455 281.760605 
" style="fill:none;stroke:#808080;stroke-linecap:square;stroke-opacity:0.4;"/>
   </g>
   <g id="line2d_30">
    <path clip-path="url(#p3f65ee0610)" d="M 411.135553 -1 
L 415.175207 24.392989 
L 435.927273 27.459241 
L 456.679339 28.888987 
L 468.412531 -1 
M 567.281706 -1 
L 581.191736 82.73108 
L 601.943802 102.852658 
L 622.695868 159.083876 
L 643.447934 172.797003 
L 664.2 227.177833 
L 684.952066 263.733509 
L 705.704132 296.541988 
L 726.456198 325.170301 
L 747.208264 350.128807 
L 767.960331 368.115239 
L 788.712397 385.886943 
L 809.464463 392.38523 
L 830.216529 397.210217 
L 850.968595 389.148844 
L 871.720661 391.36765 
L 892.472727 378.911919 
L 913.224793 380.051393 
L 933.97686 361.87374 
L 954.728926 352.091706 
L 975.480992 349.769879 
L 996.233058 341.490008 
L 1016.985124 339.557158 
L 1037.73719 335.869312 
L 1058.489256 336.780186 
L 1079.241322 336.016941 
L 1099.993388 326.633005 
L 1120.745455 320.754337 
" style="fill:none;stroke:#808080;stroke-linecap:square;stroke-opacity:0.4;"/>
   </g>
   <g id="line2d_31">
    <path clip-path="url(#p3f65ee0610)" d="M 207.654545 92.330335 
L 228.406612 109.202203 
L 249.158678 96.428893 
L 269.910744 87.427604 
L 290.66281 135.258634 
L 311.414876 160.985505 
L 332.166942 186.911076 
L 352.919008 165.914287 
L 373.671074 198.756713 
L 394.42314 231.866157 
L 415.175207 278.576109 
L 435.927273 292.377118 
L 456.679339 301.798021 
L 477.431405 313.626208 
L 498.183471 321.503133 
L 518.935537 323.785965 
L 539.687603 323.428424 
L 560.439669 298.080499 
L 581.191736 278.986833 
L 601.943802 245.639803 
L 622.695868 281.858493 
L 643.447934 277.940062 
L 664.2 288.200395 
L 684.952066 285.170477 
L 705.704132 307.550864 
L 726.456198 325.838768 
L 747.208264 339.941255 
L 767.960331 341.309646 
L 788.712397 339.292244 
L 809.464463 335.586103 
L 830.216529 337.838671 
L 850.968595 325.866742 
L 871.720661 319.623788 
L 892.472727 298.793452 
L 913.224793 285.968862 
L 933.97686 264.049704 
L 954.728926 273.043577 
L 975.480992 267.330878 
L 996.233058 255.878823 
L 1016.985124 233.609906 
L 1037.73719 254.228464 
L 1058.489256 239.255209 
L 1079.241322 234.740408 
L 1099.993388 204.029781 
L 1120.745455 262.427061 
" style="fill:none;stroke:#808080;stroke-linecap:square;stroke-opacity:0.4;"/>
   </g>
   <g id="line2d_32">
    <path clip-path="url(#p3f65ee0610)" d="M 350.236814 -1 
L 352.919008 3.752237 
L 373.671074 84.173055 
L 394.42314 1.194707 
L 415.175207 17.619212 
L 435.927273 9.839144 
L 456.679339 20.437113 
L 477.431405 6.556213 
L 498.183471 105.255818 
L 518.935537 105.320173 
L 539.687603 155.49647 
L 560.439669 170.713657 
L 581.191736 206.728983 
L 601.943802 192.232868 
L 622.695868 215.736106 
L 643.447934 255.011747 
L 664.2 281.745958 
L 684.952066 280.662557 
L 705.704132 286.622382 
L 726.456198 290.344764 
L 747.208264 281.433744 
L 767.960331 275.021398 
L 788.712397 301.14809 
L 809.464463 281.798353 
L 830.216529 264.927302 
L 850.968595 257.570194 
L 871.720661 269.121096 
L 892.472727 247.791777 
L 913.224793 233.860581 
L 933.97686 259.956887 
L 954.728926 257.719185 
L 975.480992 245.62481 
L 996.233058 239.475088 
L 1016.985124 270.044803 
L 1037.73719 266.333284 
L 1058.489256 254.717335 
L 1079.241322 273.995205 
L 1099.993388 270.18619 
L 1120.745455 270.823181 
" style="fill:none;stroke:#808080;stroke-linecap:square;stroke-opacity:0.4;"/>
   </g>
   <g id="line2d_33">
    <path clip-path="url(#p3f65ee0610)" d="M 207.654545 3.386554 
L 208.711648 -1 
M 465.490581 -1 
L 477.431405 10.137342 
L 498.183471 39.702626 
L 518.935537 78.513414 
L 539.687603 118.749256 
L 560.439669 154.647046 
L 581.191736 187.798527 
L 601.943802 199.275865 
L 622.695868 193.401297 
L 643.447934 186.749548 
L 664.2 180.214504 
L 684.952066 181.9352 
L 705.704132 203.868766 
L 726.456198 210.88848 
L 747.208264 237.881432 
L 767.960331 242.15602 
L 788.712397 245.386189 
L 809.464463 248.193764 
L 830.216529 260.064644 
L 850.968595 273.72096 
L 871.720661 287.192481 
L 892.472727 290.422263 
L 913.224793 274.063154 
L 933.97686 259.172367 
L 954.728926 251.689703 
L 975.480992 241.153272 
L 996.233058 250.764722 
L 1016.985124 266.372328 
L 1037.73719 273.28126 
L 1058.489256 277.056184 
L 1079.241322 284.634898 
L 1099.993388 295.437209 
L 1120.745455 310.395767 
" style="fill:none;stroke:#808080;stroke-linecap:square;stroke-opacity:0.4;"/>
   </g>
   <g id="line2d_34">
    <path clip-path="url(#p3f65ee0610)" d="M 235.017136 -1 
L 249.158678 39.271399 
L 269.910744 71.409312 
L 290.66281 108.497441 
L 311.414876 129.898565 
L 332.166942 145.834515 
L 352.919008 179.367132 
L 373.671074 202.652943 
L 394.42314 218.165517 
L 415.175207 228.881703 
L 435.927273 238.493884 
L 456.679339 243.272802 
L 477.431405 243.868851 
L 498.183471 256.88429 
L 518.935537 265.781107 
L 539.687603 278.947309 
L 560.439669 282.344824 
L 581.191736 288.911748 
L 601.943802 294.925705 
L 622.695868 295.971185 
L 643.447934 305.566106 
L 664.2 314.032442 
L 684.952066 318.042536 
L 705.704132 318.854065 
L 726.456198 322.312458 
L 747.208264 324.461482 
L 767.960331 318.484241 
L 788.712397 319.776703 
L 809.464463 317.102269 
L 830.216529 317.507883 
L 850.968595 313.902947 
L 871.720661 306.844963 
L 892.472727 298.852244 
L 913.224793 279.606263 
L 933.97686 273.245721 
L 954.728926 276.926582 
L 975.480992 282.175444 
L 996.233058 281.536879 
L 1016.985124 284.074739 
L 1037.73719 277.809695 
L 1058.489256 268.742596 
L 1079.241322 276.43132 
L 1099.993388 286.616069 
L 1120.745455 292.818277 
" style="fill:none;stroke:#808080;stroke-linecap:square;stroke-opacity:0.4;"/>
   </g>
   <g id="line2d_35">
    <path clip-path="url(#p3f65ee0610)" d="M 260.784652 -1 
L 269.910744 104.879371 
L 290.66281 120.376172 
L 311.414876 101.416252 
L 332.166942 146.614782 
L 352.919008 160.092925 
L 373.671074 142.044531 
L 394.42314 137.037194 
L 415.175207 223.91167 
L 435.927273 208.066707 
L 456.679339 245.492741 
L 477.431405 240.502755 
L 498.183471 241.365177 
L 518.935537 222.314306 
L 539.687603 203.055246 
L 560.439669 235.201573 
L 581.191736 243.019746 
L 601.943802 230.632604 
L 622.695868 226.129939 
L 643.447934 240.150088 
L 664.2 228.763174 
L 684.952066 237.217696 
L 705.704132 251.251465 
L 726.456198 235.882161 
L 747.208264 231.29108 
L 767.960331 216.747259 
L 788.712397 236.008446 
L 809.464463 258.418542 
L 830.216529 211.348698 
L 850.968595 234.050124 
L 871.720661 218.09206 
L 892.472727 215.360015 
L 913.224793 155.414015 
L 933.97686 200.070875 
L 954.728926 107.73873 
L 975.480992 114.44788 
L 996.233058 85.530195 
L 1016.985124 129.88364 
L 1037.73719 133.206001 
L 1058.489256 154.968787 
L 1079.241322 104.29618 
L 1099.993388 144.109523 
L 1120.745455 122.143856 
" style="fill:none;stroke:#808080;stroke-linecap:square;stroke-opacity:0.4;"/>
   </g>
   <g id="line2d_36">
    <path clip-path="url(#p3f65ee0610)" d="M 207.654545 242.720589 
L 228.406612 258.721952 
L 249.158678 259.313443 
L 269.910744 258.237977 
L 290.66281 266.952947 
L 311.414876 269.681112 
L 332.166942 271.325688 
L 352.919008 271.354511 
L 373.671074 272.148513 
L 394.42314 272.825319 
L 415.175207 264.253281 
L 435.927273 269.925823 
L 456.679339 269.206184 
L 477.431405 272.250359 
L 498.183471 268.581602 
L 518.935537 269.024219 
L 539.687603 266.736128 
L 560.439669 258.093311 
L 581.191736 259.637138 
L 601.943802 263.562494 
L 622.695868 264.203088 
L 643.447934 257.807784 
L 664.2 253.758245 
L 684.952066 249.604128 
L 705.704132 239.971457 
L 726.456198 253.986753 
L 747.208264 260.782691 
L 767.960331 264.22494 
L 788.712397 264.272279 
L 809.464463 269.459006 
L 830.216529 271.463224 
L 850.968595 267.859112 
L 871.720661 276.087057 
L 892.472727 282.861929 
L 913.224793 290.302335 
L 933.97686 291.178961 
L 954.728926 292.170105 
L 975.480992 288.986954 
L 996.233058 277.062318 
L 1016.985124 281.511226 
L 1037.73719 285.000209 
L 1058.489256 291.605143 
L 1079.241322 287.865537 
L 1099.993388 288.491291 
L 1120.745455 286.209077 
" style="fill:none;stroke:#808080;stroke-linecap:square;stroke-opacity:0.4;"/>
   </g>
   <g id="line2d_37">
    <path clip-path="url(#p3f65ee0610)" d="M 207.654545 148.205872 
L 228.406612 198.233492 
L 249.158678 235.54436 
L 269.910744 260.072383 
L 290.66281 279.006101 
L 311.414876 292.123075 
L 332.166942 300.113244 
L 352.919008 303.553198 
L 373.671074 318.024116 
L 394.42314 327.048878 
L 415.175207 330.558979 
L 435.927273 326.982997 
L 456.679339 327.984783 
L 477.431405 326.105999 
L 498.183471 315.020566 
L 518.935537 315.052717 
L 539.687603 314.11278 
L 560.439669 307.298872 
L 581.191736 300.343375 
L 601.943802 294.462153 
L 622.695868 292.501243 
L 643.447934 276.495958 
L 664.2 280.068749 
L 684.952066 284.77213 
L 705.704132 287.36 
L 726.456198 279.57131 
L 747.208264 278.912501 
L 767.960331 271.399229 
L 788.712397 246.231689 
L 809.464463 251.57901 
L 830.216529 270.971494 
L 850.968595 282.786151 
L 871.720661 289.877989 
L 892.472727 300.293996 
L 913.224793 302.301139 
L 933.97686 304.824326 
L 954.728926 321.731634 
L 975.480992 339.683136 
L 996.233058 346.318226 
L 1016.985124 346.926446 
L 1037.73719 342.486475 
L 1058.489256 342.531927 
L 1079.241322 330.46225 
L 1099.993388 319.519135 
L 1120.745455 308.193238 
" style="fill:none;stroke:#808080;stroke-linecap:square;stroke-opacity:0.4;"/>
   </g>
   <g id="line2d_38">
    <path clip-path="url(#p3f65ee0610)" d="M 383.269434 -1 
L 394.42314 55.347993 
L 415.175207 97.617806 
L 435.927273 151.159349 
L 456.679339 167.187629 
L 477.431405 207.276177 
L 498.183471 248.219016 
L 518.935537 271.79291 
L 539.687603 289.510239 
L 560.439669 304.774863 
L 581.191736 324.986583 
L 601.943802 342.549576 
L 622.695868 349.681243 
L 643.447934 357.556719 
L 664.2 360.950296 
L 684.952066 358.254269 
L 705.704132 362.756147 
L 726.456198 382.457441 
L 747.208264 387.060937 
L 767.960331 388.761459 
L 788.712397 394.457416 
L 809.464463 395.368864 
L 830.216529 398.067384 
L 850.968595 403.04262 
L 871.720661 403.715717 
L 892.472727 412.646288 
L 913.224793 410.687721 
L 933.97686 408.448613 
L 954.728926 418.206994 
L 975.480992 419.727674 
L 996.233058 412.491132 
L 1016.985124 424.791712 
L 1037.73719 424.52305 
L 1058.489256 405.522261 
L 1079.241322 387.325931 
L 1099.993388 404.663617 
L 1120.745455 409.661126 
" style="fill:none;stroke:#808080;stroke-linecap:square;stroke-opacity:0.4;"/>
   </g>
   <g id="line2d_39">
    <path clip-path="url(#p3f65ee0610)" d="M 270.551349 -1 
L 290.66281 23.497418 
L 311.414876 56.308061 
L 332.166942 116.701298 
L 352.919008 139.996163 
L 373.671074 154.923063 
L 394.42314 199.095482 
L 415.175207 233.477953 
L 435.927273 228.937793 
L 456.679339 259.199977 
L 477.431405 259.54248 
L 498.183471 268.916425 
L 518.935537 283.245876 
L 539.687603 286.510764 
L 560.439669 292.599944 
L 581.191736 299.876834 
L 601.943802 294.393141 
L 622.695868 296.272253 
L 643.447934 307.85496 
L 664.2 309.421429 
L 684.952066 305.726781 
L 705.704132 314.354585 
L 726.456198 312.922636 
L 747.208264 315.466507 
L 767.960331 311.065414 
L 788.712397 303.673416 
L 809.464463 289.628819 
L 830.216529 294.385086 
L 850.968595 299.315128 
L 871.720661 309.677765 
L 892.472727 312.947461 
L 913.224793 301.604473 
L 933.97686 299.41474 
L 954.728926 302.575328 
L 975.480992 304.615893 
L 996.233058 297.769291 
L 1016.985124 316.269091 
L 1037.73719 314.877726 
L 1058.489256 319.159328 
L 1079.241322 317.066126 
L 1099.993388 315.134659 
L 1120.745455 315.459867 
" style="fill:none;stroke:#808080;stroke-linecap:square;stroke-opacity:0.4;"/>
   </g>
   <g id="line2d_40">
    <path clip-path="url(#p3f65ee0610)" d="M 280.691925 -1 
L 290.66281 32.674873 
L 309.359008 -1 
M 313.906837 -1 
L 332.166942 26.133758 
L 352.919008 18.892176 
L 373.671074 33.763624 
L 394.42314 18.564176 
L 415.175207 46.933207 
L 435.927273 69.042221 
L 456.679339 88.208888 
L 477.431405 112.56878 
L 498.183471 152.545944 
L 518.935537 189.300589 
L 539.687603 236.778906 
L 560.439669 254.807816 
L 581.191736 277.334765 
L 601.943802 283.783952 
L 622.695868 299.361024 
L 643.447934 302.507617 
L 664.2 315.179591 
L 684.952066 306.979842 
L 705.704132 294.807899 
L 726.456198 277.025055 
L 747.208264 277.173407 
L 767.960331 266.130957 
L 788.712397 270.676686 
L 809.464463 261.281203 
L 830.216529 255.272608 
L 850.968595 251.12945 
L 871.720661 257.778733 
L 892.472727 253.993241 
L 913.224793 272.330399 
L 933.97686 272.446276 
L 954.728926 271.153721 
L 975.480992 269.045795 
L 996.233058 266.136855 
L 1016.985124 250.337265 
L 1037.73719 245.645439 
L 1058.489256 225.288728 
L 1079.241322 223.395977 
L 1099.993388 250.005978 
L 1120.745455 262.603065 
" style="fill:none;stroke:#808080;stroke-linecap:square;stroke-opacity:0.4;"/>
   </g>
   <g id="line2d_41">
    <path clip-path="url(#p3f65ee0610)" d="M 541.588739 -1 
L 560.439669 43.388801 
L 581.191736 54.665229 
L 601.943802 99.423142 
L 622.695868 133.350245 
L 643.447934 173.161273 
L 664.2 203.710912 
L 684.952066 221.802428 
L 705.704132 239.874015 
L 726.456198 258.266565 
L 747.208264 265.361138 
L 767.960331 276.960579 
L 788.712397 287.225864 
L 809.464463 292.803077 
L 830.216529 295.060044 
L 850.968595 298.83066 
L 871.720661 301.468753 
L 892.472727 297.049468 
L 913.224793 296.782855 
L 933.97686 291.239657 
L 954.728926 286.676427 
L 975.480992 287.916315 
L 996.233058 290.523115 
L 1016.985124 292.304788 
L 1037.73719 297.010159 
L 1058.489256 303.676598 
L 1079.241322 304.004791 
L 1099.993388 311.145495 
L 1120.745455 322.295507 
" style="fill:none;stroke:#808080;stroke-linecap:square;stroke-opacity:0.4;"/>
   </g>
   <g id="line2d_42">
    <path clip-path="url(#p3f65ee0610)" d="M 438.481062 -1 
L 456.679339 89.134423 
L 477.431405 60.635081 
L 498.183471 54.630455 
L 518.935537 83.390929 
L 539.687603 79.627129 
L 560.439669 98.268602 
L 581.191736 93.690759 
L 601.943802 129.41585 
L 622.695868 121.841814 
L 643.447934 133.046556 
L 664.2 134.416151 
L 684.952066 170.963003 
L 705.704132 179.751507 
L 726.456198 205.275433 
L 747.208264 231.376155 
L 767.960331 245.724902 
L 788.712397 249.679884 
L 809.464463 266.690574 
L 830.216529 273.359865 
L 850.968595 282.790975 
L 871.720661 284.105085 
L 892.472727 288.251356 
L 913.224793 275.459421 
L 933.97686 257.81901 
L 954.728926 244.872285 
L 975.480992 243.672454 
L 996.233058 243.555585 
L 1016.985124 250.800105 
L 1037.73719 246.270546 
L 1058.489256 241.727239 
L 1079.241322 228.263703 
L 1099.993388 223.433952 
L 1120.745455 232.107019 
" style="fill:none;stroke:#808080;stroke-linecap:square;stroke-opacity:0.4;"/>
   </g>
   <g id="line2d_43">
    <path clip-path="url(#p3f65ee0610)" d="M 449.030781 -1 
L 456.679339 21.816854 
L 477.431405 79.509298 
L 498.183471 118.591356 
L 518.935537 142.510888 
L 539.687603 159.122198 
L 560.439669 178.114626 
L 581.191736 195.637473 
L 601.943802 215.757468 
L 622.695868 232.083365 
L 643.447934 238.878445 
L 664.2 239.204994 
L 684.952066 242.414733 
L 705.704132 249.830274 
L 726.456198 267.655511 
L 747.208264 282.706607 
L 767.960331 295.2761 
L 788.712397 303.006233 
L 809.464463 309.482428 
L 830.216529 315.045255 
L 850.968595 325.737724 
L 871.720661 334.154729 
L 892.472727 339.673202 
L 913.224793 342.413569 
L 933.97686 345.650605 
L 954.728926 346.621559 
L 975.480992 340.326451 
L 996.233058 324.298394 
L 1016.985124 311.758549 
L 1037.73719 302.888344 
L 1058.489256 303.857174 
L 1079.241322 319.614065 
L 1099.993388 324.601572 
L 1120.745455 323.971443 
" style="fill:none;stroke:#808080;stroke-linecap:square;stroke-opacity:0.4;"/>
   </g>
   <g id="line2d_44">
    <path clip-path="url(#p3f65ee0610)" d="M 207.654545 47.503987 
L 228.406612 48.021172 
L 249.158678 61.950485 
L 269.910744 140.701156 
L 290.66281 188.476427 
L 311.414876 224.681917 
L 332.166942 242.163254 
L 352.919008 254.199808 
L 373.671074 257.725278 
L 394.42314 251.437693 
L 415.175207 262.556214 
L 435.927273 272.583919 
L 456.679339 270.804942 
L 477.431405 262.564952 
L 498.183471 259.259639 
L 518.935537 246.908151 
L 539.687603 215.256733 
L 560.439669 233.31466 
L 581.191736 238.565221 
L 601.943802 243.071703 
L 622.695868 252.578593 
L 643.447934 262.183104 
L 664.2 256.930747 
L 684.952066 244.823652 
L 705.704132 248.635045 
L 726.456198 256.276386 
L 747.208264 265.746166 
L 767.960331 279.170272 
L 788.712397 274.146787 
L 809.464463 262.420177 
L 830.216529 227.341497 
L 850.968595 231.673988 
L 871.720661 245.334746 
L 892.472727 247.212283 
L 913.224793 247.006872 
L 933.97686 259.900315 
L 954.728926 261.923364 
L 975.480992 254.197561 
L 996.233058 274.521928 
L 1016.985124 286.712407 
L 1037.73719 283.461855 
L 1058.489256 288.281554 
L 1079.241322 286.924042 
L 1099.993388 275.293407 
L 1120.745455 254.472815 
" style="fill:none;stroke:#808080;stroke-linecap:square;stroke-opacity:0.4;"/>
   </g>
   <g id="line2d_45">
    <path clip-path="url(#p3f65ee0610)" d="M 456.93562 -1 
L 477.431405 37.16068 
L 498.183471 60.292777 
L 518.935537 84.364905 
L 539.687603 106.558723 
L 560.439669 137.979393 
L 581.191736 166.628963 
L 601.943802 193.204321 
L 622.695868 215.278147 
L 643.447934 227.829968 
L 664.2 245.642144 
L 684.952066 260.683381 
L 705.704132 272.932301 
L 726.456198 280.526894 
L 747.208264 283.276412 
L 767.960331 280.102354 
L 788.712397 265.707055 
L 809.464463 247.165046 
L 830.216529 200.532418 
L 850.968595 156.401222 
L 871.720661 122.960679 
L 892.472727 109.297525 
L 913.224793 140.925517 
L 933.97686 183.755132 
L 954.728926 224.663909 
L 975.480992 251.201886 
L 996.233058 271.687345 
L 1016.985124 300.843843 
L 1037.73719 328.473871 
L 1058.489256 349.868077 
L 1079.241322 356.328217 
L 1099.993388 355.202234 
L 1120.745455 347.764241 
" style="fill:none;stroke:#808080;stroke-linecap:square;stroke-opacity:0.4;"/>
   </g>
   <g id="line2d_46">
    <path clip-path="url(#p3f65ee0610)" d="M 433.374297 -1 
L 435.927273 3.617169 
L 456.679339 97.247475 
L 477.431405 114.04896 
L 498.183471 140.675368 
L 518.935537 147.985668 
L 539.687603 183.244841 
L 560.439669 196.402243 
L 581.191736 228.404495 
L 601.943802 248.287549 
L 622.695868 272.00946 
L 643.447934 285.40972 
L 664.2 299.809783 
L 684.952066 298.555888 
L 705.704132 305.48716 
L 726.456198 307.094213 
L 747.208264 312.549228 
L 767.960331 316.651823 
L 788.712397 324.066804 
L 809.464463 321.168305 
L 830.216529 324.949416 
L 850.968595 317.770076 
L 871.720661 321.848926 
L 892.472727 315.409451 
L 913.224793 314.010015 
L 933.97686 312.713592 
L 954.728926 306.783343 
L 975.480992 299.196876 
L 996.233058 293.976946 
L 1016.985124 301.804689 
L 1037.73719 297.408077 
L 1058.489256 297.134924 
L 1079.241322 294.554849 
L 1099.993388 291.559982 
L 1120.745455 294.092988 
" style="fill:none;stroke:#808080;stroke-linecap:square;stroke-opacity:0.4;"/>
   </g>
   <g id="line2d_47">
    <path clip-path="url(#p3f65ee0610)" d="M 368.571438 -1 
L 373.671074 6.840346 
L 394.42314 43.721886 
L 415.175207 79.915841 
L 435.927273 112.936281 
L 456.679339 134.558041 
L 477.431405 154.072348 
L 498.183471 179.639787 
L 518.935537 202.442371 
L 539.687603 232.944855 
L 560.439669 258.17792 
L 581.191736 278.708584 
L 601.943802 289.599985 
L 622.695868 300.696516 
L 643.447934 308.057079 
L 664.2 314.431411 
L 684.952066 316.931888 
L 705.704132 320.613043 
L 726.456198 321.815761 
L 747.208264 318.317772 
L 767.960331 310.183325 
L 788.712397 306.565802 
L 809.464463 301.481381 
L 830.216529 302.230863 
L 850.968595 304.788182 
L 871.720661 307.039945 
L 892.472727 304.041925 
L 913.224793 302.178855 
L 933.97686 305.792988 
L 954.728926 309.992643 
L 975.480992 313.211185 
L 996.233058 313.613344 
L 1016.985124 318.301142 
L 1037.73719 319.746201 
L 1058.489256 317.22245 
L 1079.241322 314.580906 
L 1099.993388 313.502751 
L 1120.745455 310.509728 
" style="fill:none;stroke:#808080;stroke-linecap:square;stroke-opacity:0.4;"/>
   </g>
   <g id="line2d_48">
    <path clip-path="url(#p3f65ee0610)" d="M 242.641385 -1 
L 249.158678 14.942805 
L 262.547319 -1 
M 382.070715 -1 
L 394.42314 49.112574 
L 415.175207 66.370731 
L 435.927273 62.163848 
L 456.679339 66.344088 
L 477.431405 32.828777 
L 498.183471 18.512511 
L 518.935537 14.449276 
L 539.687603 19.458534 
L 560.439669 36.632912 
L 581.191736 62.820715 
L 601.943802 93.786626 
L 622.695868 127.745056 
L 643.447934 170.123782 
L 664.2 183.728033 
L 684.952066 203.25294 
L 705.704132 213.702743 
L 726.456198 227.54733 
L 747.208264 245.616386 
L 767.960331 261.64745 
L 788.712397 262.412171 
L 809.464463 257.874029 
L 830.216529 254.04583 
L 850.968595 255.502404 
L 871.720661 260.5031 
L 892.472727 269.515608 
L 913.224793 272.789199 
L 933.97686 281.963377 
L 954.728926 286.47272 
L 975.480992 296.702964 
L 996.233058 302.19356 
L 1016.985124 313.684308 
L 1037.73719 321.654847 
L 1058.489256 329.32403 
L 1079.241322 330.779827 
L 1099.993388 326.042782 
L 1120.745455 319.862229 
" style="fill:none;stroke:#808080;stroke-linecap:square;stroke-opacity:0.4;"/>
   </g>
   <g id="line2d_49">
    <path clip-path="url(#p3f65ee0610)" d="M 207.654545 57.767711 
L 228.406612 68.706208 
L 249.158678 93.607089 
L 269.910744 124.734792 
L 290.66281 162.476543 
L 311.414876 179.101239 
L 332.166942 209.330749 
L 352.919008 208.114864 
L 373.671074 229.531135 
L 394.42314 250.970447 
L 415.175207 270.407974 
L 435.927273 292.200115 
L 456.679339 312.952373 
L 477.431405 317.223192 
L 498.183471 319.028402 
L 518.935537 320.055908 
L 539.687603 317.045557 
L 560.439669 313.935536 
L 581.191736 327.99129 
L 601.943802 321.524547 
L 622.695868 321.879165 
L 643.447934 316.353711 
L 664.2 298.422591 
L 684.952066 299.370653 
L 705.704132 289.886405 
L 726.456198 274.419129 
L 747.208264 278.095828 
L 767.960331 289.897533 
L 788.712397 289.719471 
L 809.464463 292.039444 
L 830.216529 294.041058 
L 850.968595 281.853144 
L 871.720661 295.000167 
L 892.472727 305.053331 
L 913.224793 311.80742 
L 933.97686 314.772065 
L 954.728926 304.311311 
L 975.480992 299.12985 
L 996.233058 296.650321 
L 1016.985124 300.142498 
L 1037.73719 298.758648 
L 1058.489256 296.47596 
L 1079.241322 282.064397 
L 1099.993388 270.162823 
L 1120.745455 264.470671 
" style="fill:none;stroke:#808080;stroke-linecap:square;stroke-opacity:0.4;"/>
   </g>
   <g id="line2d_50">
    <path clip-path="url(#p3f65ee0610)" d="M 207.654545 119.229168 
L 228.406612 161.505421 
L 249.158678 192.344097 
L 269.910744 215.59339 
L 290.66281 229.598494 
L 311.414876 243.156426 
L 332.166942 246.019368 
L 352.919008 266.640266 
L 373.671074 282.821987 
L 394.42314 292.068807 
L 415.175207 295.698017 
L 435.927273 307.722446 
L 456.679339 315.018274 
L 477.431405 312.775805 
L 498.183471 324.922498 
L 518.935537 332.212991 
L 539.687603 331.343054 
L 560.439669 324.463657 
L 581.191736 314.360475 
L 601.943802 307.605781 
L 622.695868 279.956656 
L 643.447934 272.838018 
L 664.2 259.102271 
L 684.952066 236.528032 
L 705.704132 206.127114 
L 726.456198 196.362445 
L 747.208264 201.819267 
L 767.960331 178.251415 
L 788.712397 216.124744 
L 809.464463 228.406731 
L 830.216529 245.183708 
L 850.968595 239.523469 
L 871.720661 235.513091 
L 892.472727 226.981424 
L 913.224793 202.386371 
L 933.97686 208.302793 
L 954.728926 255.204336 
L 975.480992 287.651775 
L 996.233058 293.800005 
L 1016.985124 294.337597 
L 1037.73719 292.050547 
L 1058.489256 279.882955 
L 1079.241322 300.369837 
L 1099.993388 316.664855 
L 1120.745455 328.616249 
" style="fill:none;stroke:#808080;stroke-linecap:square;stroke-opacity:0.4;"/>
   </g>
   <g id="line2d_51">
    <path clip-path="url(#p3f65ee0610)" d="M 322.932687 -1 
L 332.166942 26.313934 
L 352.919008 41.561911 
L 373.671074 57.854913 
L 394.42314 116.067524 
L 415.175207 140.660567 
L 435.927273 154.263845 
L 456.679339 176.723626 
L 477.431405 180.282659 
L 498.183471 159.950622 
L 518.935537 178.792508 
L 539.687603 199.73373 
L 560.439669 216.53784 
L 581.191736 249.646962 
L 601.943802 258.550922 
L 622.695868 273.170254 
L 643.447934 279.14386 
L 664.2 285.864454 
L 684.952066 297.807474 
L 705.704132 311.744599 
L 726.456198 315.043113 
L 747.208264 317.570786 
L 767.960331 317.39635 
L 788.712397 308.775015 
L 809.464463 302.136523 
L 830.216529 303.021606 
L 850.968595 290.637709 
L 871.720661 286.694256 
L 892.472727 280.98929 
L 913.224793 282.326097 
L 933.97686 272.986679 
L 954.728926 265.972202 
L 975.480992 259.431487 
L 996.233058 257.176679 
L 1016.985124 258.107163 
L 1037.73719 266.959248 
L 1058.489256 271.22221 
L 1079.241322 267.977785 
L 1099.993388 269.111773 
L 1120.745455 272.702577 
" style="fill:none;stroke:#808080;stroke-linecap:square;stroke-opacity:0.4;"/>
   </g>
   <g id="line2d_52">
    <path clip-path="url(#p3f65ee0610)" d="M 288.503622 -1 
L 290.66281 19.422808 
L 296.22689 -1 
M 362.886466 -1 
L 373.671074 16.839922 
L 394.42314 75.020479 
L 415.175207 166.462797 
L 435.927273 140.9878 
L 456.679339 161.123879 
L 477.431405 161.129376 
L 498.183471 192.709391 
L 518.935537 208.662028 
L 539.687603 238.752184 
L 560.439669 248.966783 
L 581.191736 271.348633 
L 601.943802 281.181878 
L 622.695868 300.287373 
L 643.447934 321.538109 
L 664.2 320.147461 
L 684.952066 310.214339 
L 705.704132 326.355122 
L 726.456198 315.172682 
L 747.208264 304.54037 
L 767.960331 300.826815 
L 788.712397 296.194357 
L 809.464463 265.668302 
L 830.216529 245.738729 
L 850.968595 254.329015 
L 871.720661 251.920895 
L 892.472727 241.755368 
L 913.224793 237.400446 
L 933.97686 255.12195 
L 954.728926 247.049617 
L 975.480992 252.17732 
L 996.233058 281.821629 
L 1016.985124 287.40562 
L 1037.73719 275.315126 
L 1058.489256 278.702733 
L 1079.241322 286.896976 
L 1099.993388 286.204779 
L 1120.745455 283.378687 
" style="fill:none;stroke:#808080;stroke-linecap:square;stroke-opacity:0.4;"/>
   </g>
   <g id="line2d_53">
    <path clip-path="url(#p3f65ee0610)" d="M 376.344036 -1 
L 394.42314 69.935587 
L 415.175207 114.029655 
L 435.927273 151.243467 
L 456.679339 170.677749 
L 477.431405 169.544499 
L 498.183471 185.980985 
L 518.935537 191.804496 
L 539.687603 178.741392 
L 560.439669 196.838807 
L 581.191736 244.534532 
L 601.943802 256.501345 
L 622.695868 263.648425 
L 643.447934 272.177517 
L 664.2 282.874578 
L 684.952066 305.879557 
L 705.704132 341.462545 
L 726.456198 363.303186 
L 747.208264 377.692812 
L 767.960331 386.914112 
L 788.712397 394.423391 
L 809.464463 408.11555 
L 830.216529 417.564859 
L 850.968595 414.789176 
L 871.720661 416.665958 
L 892.472727 420.431728 
L 913.224793 413.066242 
L 933.97686 407.158314 
L 954.728926 406.815896 
L 975.480992 385.568638 
L 996.233058 372.917152 
L 1016.985124 375.294508 
L 1037.73719 349.366872 
L 1058.489256 343.254544 
L 1079.241322 330.256981 
L 1099.993388 306.651748 
L 1120.745455 292.857661 
" style="fill:none;stroke:#808080;stroke-linecap:square;stroke-opacity:0.4;"/>
   </g>
   <g id="line2d_54">
    <path clip-path="url(#p3f65ee0610)" d="M 349.0241 -1 
L 352.919008 22.660843 
L 361.665599 -1 
M 379.509511 -1 
L 394.42314 81.957871 
L 415.175207 82.972946 
L 435.927273 108.896264 
L 456.679339 67.043724 
L 477.431405 97.005245 
L 498.183471 155.088973 
L 518.935537 190.39347 
L 539.687603 192.331457 
L 560.439669 197.586947 
L 581.191736 221.80357 
L 601.943802 211.074211 
L 622.695868 226.270492 
L 643.447934 256.377598 
L 664.2 254.322219 
L 684.952066 250.036591 
L 705.704132 241.703903 
L 726.456198 267.96236 
L 747.208264 264.466065 
L 767.960331 229.7723 
L 788.712397 233.810587 
L 809.464463 242.805048 
L 830.216529 210.251782 
L 850.968595 238.596509 
L 871.720661 249.953825 
L 892.472727 243.789692 
L 913.224793 209.112418 
L 933.97686 237.949626 
L 954.728926 251.259532 
L 975.480992 252.145727 
L 996.233058 256.695091 
L 1016.985124 267.527724 
L 1037.73719 272.76936 
L 1058.489256 267.362036 
L 1079.241322 296.143346 
L 1099.993388 296.295575 
L 1120.745455 271.675237 
" style="fill:none;stroke:#808080;stroke-linecap:square;stroke-opacity:0.4;"/>
   </g>
   <g id="line2d_55">
    <path clip-path="url(#p3f65ee0610)" d="M 207.654545 76.143595 
L 228.406612 83.977931 
L 249.158678 102.250115 
L 269.910744 119.972741 
L 290.66281 135.581487 
L 311.414876 141.313828 
L 332.166942 147.0903 
L 352.919008 108.234627 
L 373.671074 110.216191 
L 394.42314 89.918223 
L 415.175207 71.67487 
L 435.927273 117.93735 
L 456.679339 148.754647 
L 477.431405 164.271176 
L 498.183471 187.032341 
L 518.935537 199.129358 
L 539.687603 219.195204 
L 560.439669 242.507256 
L 581.191736 266.312795 
L 601.943802 277.074081 
L 622.695868 296.228388 
L 643.447934 303.765716 
L 664.2 314.863379 
L 684.952066 324.132141 
L 705.704132 323.667663 
L 726.456198 325.843868 
L 747.208264 330.146434 
L 767.960331 336.613374 
L 788.712397 337.820994 
L 809.464463 334.467674 
L 830.216529 332.401486 
L 850.968595 327.65253 
L 871.720661 330.188957 
L 892.472727 326.143625 
L 913.224793 326.592696 
L 933.97686 322.765995 
L 954.728926 321.648749 
L 975.480992 319.515939 
L 996.233058 313.741769 
L 1016.985124 314.489894 
L 1037.73719 309.694475 
L 1058.489256 314.740025 
L 1079.241322 312.16637 
L 1099.993388 304.688592 
L 1120.745455 296.075726 
" style="fill:none;stroke:#808080;stroke-linecap:square;stroke-opacity:0.4;"/>
   </g>
   <g id="line2d_56">
    <path clip-path="url(#p3f65ee0610)" d="M 207.654545 504 
L 210.618869 -1 
M 426.024398 -1 
L 435.927273 29.828873 
L 456.679339 63.045374 
L 477.431405 78.006483 
L 498.183471 109.432498 
L 518.935537 112.932738 
L 539.687603 146.01246 
L 560.439669 144.636274 
L 581.191736 149.729327 
L 601.943802 158.057599 
L 622.695868 164.431819 
L 643.447934 143.716607 
L 664.2 191.015423 
L 684.952066 169.696465 
L 705.704132 237.622288 
L 726.456198 263.091709 
L 747.208264 274.922048 
L 767.960331 282.615933 
L 788.712397 291.502274 
L 809.464463 310.819526 
L 830.216529 321.896875 
L 850.968595 322.808807 
L 871.720661 311.959932 
L 892.472727 314.416011 
L 913.224793 323.7356 
L 933.97686 325.228282 
L 954.728926 333.533939 
L 975.480992 317.210228 
L 996.233058 316.1451 
L 1016.985124 337.22893 
L 1037.73719 347.48402 
L 1058.489256 360.130528 
L 1079.241322 345.105538 
L 1099.993388 351.331964 
L 1120.745455 347.23765 
" style="fill:none;stroke:#808080;stroke-linecap:square;stroke-opacity:0.4;"/>
   </g>
   <g id="line2d_57">
    <path clip-path="url(#p3f65ee0610)" d="M 309.330181 -1 
L 311.414876 7.634574 
L 317.444262 -1 
M 355.718319 -1 
L 373.671074 58.57224 
L 394.42314 102.827745 
L 415.175207 130.485788 
L 435.927273 153.343465 
L 456.679339 107.107992 
L 477.431405 149.775763 
L 498.183471 166.496296 
L 518.935537 189.622906 
L 539.687603 207.967517 
L 560.439669 220.530769 
L 581.191736 231.873518 
L 601.943802 254.560536 
L 622.695868 273.277352 
L 643.447934 281.279427 
L 664.2 296.042957 
L 684.952066 304.230325 
L 705.704132 313.612208 
L 726.456198 329.473999 
L 747.208264 321.629936 
L 767.960331 317.478683 
L 788.712397 310.902493 
L 809.464463 307.457957 
L 830.216529 304.45023 
L 850.968595 295.159049 
L 871.720661 284.931327 
L 892.472727 265.489153 
L 913.224793 247.345907 
L 933.97686 220.948446 
L 954.728926 220.467844 
L 975.480992 211.799484 
L 996.233058 221.545393 
L 1016.985124 234.055513 
L 1037.73719 230.409226 
L 1058.489256 217.385497 
L 1079.241322 209.887738 
L 1099.993388 209.387018 
L 1120.745455 219.601116 
" style="fill:none;stroke:#808080;stroke-linecap:square;stroke-opacity:0.4;"/>
   </g>
   <g id="line2d_58">
    <path clip-path="url(#p3f65ee0610)" d="M 374.61306 -1 
L 394.42314 40.858257 
L 415.175207 78.01979 
L 435.927273 99.268216 
L 456.679339 123.142519 
L 477.431405 144.723315 
L 498.183471 163.925393 
L 518.935537 180.46441 
L 539.687603 199.199587 
L 560.439669 210.380923 
L 581.191736 227.794934 
L 601.943802 237.59047 
L 622.695868 246.525901 
L 643.447934 255.956011 
L 664.2 266.141019 
L 684.952066 271.286753 
L 705.704132 278.682066 
L 726.456198 286.014056 
L 747.208264 290.433909 
L 767.960331 292.168028 
L 788.712397 294.919288 
L 809.464463 294.460626 
L 830.216529 290.882636 
L 850.968595 289.595322 
L 871.720661 288.919478 
L 892.472727 287.112453 
L 913.224793 283.170822 
L 933.97686 284.670423 
L 954.728926 284.65955 
L 975.480992 284.01329 
L 996.233058 283.064125 
L 1016.985124 288.310843 
L 1037.73719 290.245991 
L 1058.489256 291.075146 
L 1079.241322 291.840639 
L 1099.993388 292.742114 
L 1120.745455 292.381924 
" style="fill:none;stroke:#0000ff;stroke-linecap:square;stroke-width:6;"/>
   </g>
   <g id="patch_3">
    <path d="M 162 504 
L 162 69.12 
" style="fill:none;stroke:#000000;stroke-linecap:square;stroke-linejoin:miter;stroke-width:0.8;"/>
   </g>
   <g id="patch_4">
    <path d="M 1166.4 504 
L 1166.4 69.12 
" style="fill:none;stroke:#000000;stroke-linecap:square;stroke-linejoin:miter;stroke-width:0.8;"/>
   </g>
   <g id="patch_5">
    <path d="M 162 504 
L 1166.4 504 
" style="fill:none;stroke:#000000;stroke-linecap:square;stroke-linejoin:miter;stroke-width:0.8;"/>
   </g>
   <g id="patch_6">
    <path d="M 162 69.12 
L 1166.4 69.12 
" style="fill:none;stroke:#000000;stroke-linecap:square;stroke-linejoin:miter;stroke-width:0.8;"/>
   </g>
   <g id="legend_1">
    <g id="patch_7">
     <path d="M 888.696875 173.18875 
L 1152.4 173.18875 
Q 1156.4 173.18875 1156.4 169.18875 
L 1156.4 83.12 
Q 1156.4 79.12 1152.4 79.12 
L 888.696875 79.12 
Q 884.696875 79.12 884.696875 83.12 
L 884.696875 169.18875 
Q 884.696875 173.18875 888.696875 173.18875 
z
" style="fill:#ffffff;opacity:0.8;stroke:#cccccc;stroke-linejoin:miter;"/>
    </g>
    <g id="patch_8">
     <path d="M 892.696875 102.316875 
L 932.696875 102.316875 
L 932.696875 88.316875 
L 892.696875 88.316875 
z
" style="fill:#0000ff;stroke:#0000ff;stroke-linejoin:miter;"/>
    </g>
    <g id="text_15">
     <!-- US Average -->
     <g transform="translate(948.696875 102.316875)scale(0.2 -0.2)">
      <defs>
       <path d="M 8.6875 72.90625 
L 18.609375 72.90625 
L 18.609375 28.609375 
Q 18.609375 16.890625 22.84375 11.734375 
Q 27.09375 6.59375 36.625 6.59375 
Q 46.09375 6.59375 50.34375 11.734375 
Q 54.59375 16.890625 54.59375 28.609375 
L 54.59375 72.90625 
L 64.5 72.90625 
L 64.5 27.390625 
Q 64.5 13.140625 57.4375 5.859375 
Q 50.390625 -1.421875 36.625 -1.421875 
Q 22.796875 -1.421875 15.734375 5.859375 
Q 8.6875 13.140625 8.6875 27.390625 
z
" id="DejaVuSans-85"/>
       <path d="M 53.515625 70.515625 
L 53.515625 60.890625 
Q 47.90625 63.578125 42.921875 64.890625 
Q 37.9375 66.21875 33.296875 66.21875 
Q 25.25 66.21875 20.875 63.09375 
Q 16.5 59.96875 16.5 54.203125 
Q 16.5 49.359375 19.40625 46.890625 
Q 22.3125 44.4375 30.421875 42.921875 
L 36.375 41.703125 
Q 47.40625 39.59375 52.65625 34.296875 
Q 57.90625 29 57.90625 20.125 
Q 57.90625 9.515625 50.796875 4.046875 
Q 43.703125 -1.421875 29.984375 -1.421875 
Q 24.8125 -1.421875 18.96875 -0.25 
Q 13.140625 0.921875 6.890625 3.21875 
L 6.890625 13.375 
Q 12.890625 10.015625 18.65625 8.296875 
Q 24.421875 6.59375 29.984375 6.59375 
Q 38.421875 6.59375 43.015625 9.90625 
Q 47.609375 13.234375 47.609375 19.390625 
Q 47.609375 24.75 44.3125 27.78125 
Q 41.015625 30.8125 33.5 32.328125 
L 27.484375 33.5 
Q 16.453125 35.6875 11.515625 40.375 
Q 6.59375 45.0625 6.59375 53.421875 
Q 6.59375 63.09375 13.40625 68.65625 
Q 20.21875 74.21875 32.171875 74.21875 
Q 37.3125 74.21875 42.625 73.28125 
Q 47.953125 72.359375 53.515625 70.515625 
z
" id="DejaVuSans-83"/>
       <path id="DejaVuSans-32"/>
       <path d="M 34.1875 63.1875 
L 20.796875 26.90625 
L 47.609375 26.90625 
z
M 28.609375 72.90625 
L 39.796875 72.90625 
L 67.578125 0 
L 57.328125 0 
L 50.6875 18.703125 
L 17.828125 18.703125 
L 11.1875 0 
L 0.78125 0 
z
" id="DejaVuSans-65"/>
       <path d="M 2.984375 54.6875 
L 12.5 54.6875 
L 29.59375 8.796875 
L 46.6875 54.6875 
L 56.203125 54.6875 
L 35.6875 0 
L 23.484375 0 
z
" id="DejaVuSans-118"/>
       <path d="M 56.203125 29.59375 
L 56.203125 25.203125 
L 14.890625 25.203125 
Q 15.484375 15.921875 20.484375 11.0625 
Q 25.484375 6.203125 34.421875 6.203125 
Q 39.59375 6.203125 44.453125 7.46875 
Q 49.3125 8.734375 54.109375 11.28125 
L 54.109375 2.78125 
Q 49.265625 0.734375 44.1875 -0.34375 
Q 39.109375 -1.421875 33.890625 -1.421875 
Q 20.796875 -1.421875 13.15625 6.1875 
Q 5.515625 13.8125 5.515625 26.8125 
Q 5.515625 40.234375 12.765625 48.109375 
Q 20.015625 56 32.328125 56 
Q 43.359375 56 49.78125 48.890625 
Q 56.203125 41.796875 56.203125 29.59375 
z
M 47.21875 32.234375 
Q 47.125 39.59375 43.09375 43.984375 
Q 39.0625 48.390625 32.421875 48.390625 
Q 24.90625 48.390625 20.390625 44.140625 
Q 15.875 39.890625 15.1875 32.171875 
z
" id="DejaVuSans-101"/>
       <path d="M 41.109375 46.296875 
Q 39.59375 47.171875 37.8125 47.578125 
Q 36.03125 48 33.890625 48 
Q 26.265625 48 22.1875 43.046875 
Q 18.109375 38.09375 18.109375 28.8125 
L 18.109375 0 
L 9.078125 0 
L 9.078125 54.6875 
L 18.109375 54.6875 
L 18.109375 46.1875 
Q 20.953125 51.171875 25.484375 53.578125 
Q 30.03125 56 36.53125 56 
Q 37.453125 56 38.578125 55.875 
Q 39.703125 55.765625 41.0625 55.515625 
z
" id="DejaVuSans-114"/>
       <path d="M 34.28125 27.484375 
Q 23.390625 27.484375 19.1875 25 
Q 14.984375 22.515625 14.984375 16.5 
Q 14.984375 11.71875 18.140625 8.90625 
Q 21.296875 6.109375 26.703125 6.109375 
Q 34.1875 6.109375 38.703125 11.40625 
Q 43.21875 16.703125 43.21875 25.484375 
L 43.21875 27.484375 
z
M 52.203125 31.203125 
L 52.203125 0 
L 43.21875 0 
L 43.21875 8.296875 
Q 40.140625 3.328125 35.546875 0.953125 
Q 30.953125 -1.421875 24.3125 -1.421875 
Q 15.921875 -1.421875 10.953125 3.296875 
Q 6 8.015625 6 15.921875 
Q 6 25.140625 12.171875 29.828125 
Q 18.359375 34.515625 30.609375 34.515625 
L 43.21875 34.515625 
L 43.21875 35.40625 
Q 43.21875 41.609375 39.140625 45 
Q 35.0625 48.390625 27.6875 48.390625 
Q 23 48.390625 18.546875 47.265625 
Q 14.109375 46.140625 10.015625 43.890625 
L 10.015625 52.203125 
Q 14.9375 54.109375 19.578125 55.046875 
Q 24.21875 56 28.609375 56 
Q 40.484375 56 46.34375 49.84375 
Q 52.203125 43.703125 52.203125 31.203125 
z
" id="DejaVuSans-97"/>
       <path d="M 45.40625 27.984375 
Q 45.40625 37.75 41.375 43.109375 
Q 37.359375 48.484375 30.078125 48.484375 
Q 22.859375 48.484375 18.828125 43.109375 
Q 14.796875 37.75 14.796875 27.984375 
Q 14.796875 18.265625 18.828125 12.890625 
Q 22.859375 7.515625 30.078125 7.515625 
Q 37.359375 7.515625 41.375 12.890625 
Q 45.40625 18.265625 45.40625 27.984375 
z
M 54.390625 6.78125 
Q 54.390625 -7.171875 48.1875 -13.984375 
Q 42 -20.796875 29.203125 -20.796875 
Q 24.46875 -20.796875 20.265625 -20.09375 
Q 16.0625 -19.390625 12.109375 -17.921875 
L 12.109375 -9.1875 
Q 16.0625 -11.328125 19.921875 -12.34375 
Q 23.78125 -13.375 27.78125 -13.375 
Q 36.625 -13.375 41.015625 -8.765625 
Q 45.40625 -4.15625 45.40625 5.171875 
L 45.40625 9.625 
Q 42.625 4.78125 38.28125 2.390625 
Q 33.9375 0 27.875 0 
Q 17.828125 0 11.671875 7.65625 
Q 5.515625 15.328125 5.515625 27.984375 
Q 5.515625 40.671875 11.671875 48.328125 
Q 17.828125 56 27.875 56 
Q 33.9375 56 38.28125 53.609375 
Q 42.625 51.21875 45.40625 46.390625 
L 45.40625 54.6875 
L 54.390625 54.6875 
z
" id="DejaVuSans-103"/>
      </defs>
      <use xlink:href="#DejaVuSans-85"/>
      <use x="73.193359" xlink:href="#DejaVuSans-83"/>
      <use x="136.669922" xlink:href="#DejaVuSans-32"/>
      <use x="168.457031" xlink:href="#DejaVuSans-65"/>
      <use x="230.990234" xlink:href="#DejaVuSans-118"/>
      <use x="290.169922" xlink:href="#DejaVuSans-101"/>
      <use x="351.693359" xlink:href="#DejaVuSans-114"/>
      <use x="392.806641" xlink:href="#DejaVuSans-97"/>
      <use x="454.085938" xlink:href="#DejaVuSans-103"/>
      <use x="517.5625" xlink:href="#DejaVuSans-101"/>
     </g>
    </g>
    <g id="patch_9">
     <path d="M 892.696875 131.673125 
L 932.696875 131.673125 
L 932.696875 117.673125 
L 892.696875 117.673125 
z
" style="fill:#808080;stroke:#808080;stroke-linejoin:miter;"/>
    </g>
    <g id="text_16">
     <!-- Individual States -->
     <g transform="translate(948.696875 131.673125)scale(0.2 -0.2)">
      <defs>
       <path d="M 9.8125 72.90625 
L 19.671875 72.90625 
L 19.671875 0 
L 9.8125 0 
z
" id="DejaVuSans-73"/>
       <path d="M 54.890625 33.015625 
L 54.890625 0 
L 45.90625 0 
L 45.90625 32.71875 
Q 45.90625 40.484375 42.875 44.328125 
Q 39.84375 48.1875 33.796875 48.1875 
Q 26.515625 48.1875 22.3125 43.546875 
Q 18.109375 38.921875 18.109375 30.90625 
L 18.109375 0 
L 9.078125 0 
L 9.078125 54.6875 
L 18.109375 54.6875 
L 18.109375 46.1875 
Q 21.34375 51.125 25.703125 53.5625 
Q 30.078125 56 35.796875 56 
Q 45.21875 56 50.046875 50.171875 
Q 54.890625 44.34375 54.890625 33.015625 
z
" id="DejaVuSans-110"/>
       <path d="M 45.40625 46.390625 
L 45.40625 75.984375 
L 54.390625 75.984375 
L 54.390625 0 
L 45.40625 0 
L 45.40625 8.203125 
Q 42.578125 3.328125 38.25 0.953125 
Q 33.9375 -1.421875 27.875 -1.421875 
Q 17.96875 -1.421875 11.734375 6.484375 
Q 5.515625 14.40625 5.515625 27.296875 
Q 5.515625 40.1875 11.734375 48.09375 
Q 17.96875 56 27.875 56 
Q 33.9375 56 38.25 53.625 
Q 42.578125 51.265625 45.40625 46.390625 
z
M 14.796875 27.296875 
Q 14.796875 17.390625 18.875 11.75 
Q 22.953125 6.109375 30.078125 6.109375 
Q 37.203125 6.109375 41.296875 11.75 
Q 45.40625 17.390625 45.40625 27.296875 
Q 45.40625 37.203125 41.296875 42.84375 
Q 37.203125 48.484375 30.078125 48.484375 
Q 22.953125 48.484375 18.875 42.84375 
Q 14.796875 37.203125 14.796875 27.296875 
z
" id="DejaVuSans-100"/>
       <path d="M 9.421875 54.6875 
L 18.40625 54.6875 
L 18.40625 0 
L 9.421875 0 
z
M 9.421875 75.984375 
L 18.40625 75.984375 
L 18.40625 64.59375 
L 9.421875 64.59375 
z
" id="DejaVuSans-105"/>
       <path d="M 8.5 21.578125 
L 8.5 54.6875 
L 17.484375 54.6875 
L 17.484375 21.921875 
Q 17.484375 14.15625 20.5 10.265625 
Q 23.53125 6.390625 29.59375 6.390625 
Q 36.859375 6.390625 41.078125 11.03125 
Q 45.3125 15.671875 45.3125 23.6875 
L 45.3125 54.6875 
L 54.296875 54.6875 
L 54.296875 0 
L 45.3125 0 
L 45.3125 8.40625 
Q 42.046875 3.421875 37.71875 1 
Q 33.40625 -1.421875 27.6875 -1.421875 
Q 18.265625 -1.421875 13.375 4.4375 
Q 8.5 10.296875 8.5 21.578125 
z
M 31.109375 56 
z
" id="DejaVuSans-117"/>
       <path d="M 9.421875 75.984375 
L 18.40625 75.984375 
L 18.40625 0 
L 9.421875 0 
z
" id="DejaVuSans-108"/>
       <path d="M 18.3125 70.21875 
L 18.3125 54.6875 
L 36.8125 54.6875 
L 36.8125 47.703125 
L 18.3125 47.703125 
L 18.3125 18.015625 
Q 18.3125 11.328125 20.140625 9.421875 
Q 21.96875 7.515625 27.59375 7.515625 
L 36.8125 7.515625 
L 36.8125 0 
L 27.59375 0 
Q 17.1875 0 13.234375 3.875 
Q 9.28125 7.765625 9.28125 18.015625 
L 9.28125 47.703125 
L 2.6875 47.703125 
L 2.6875 54.6875 
L 9.28125 54.6875 
L 9.28125 70.21875 
z
" id="DejaVuSans-116"/>
       <path d="M 44.28125 53.078125 
L 44.28125 44.578125 
Q 40.484375 46.53125 36.375 47.5 
Q 32.28125 48.484375 27.875 48.484375 
Q 21.1875 48.484375 17.84375 46.4375 
Q 14.5 44.390625 14.5 40.28125 
Q 14.5 37.15625 16.890625 35.375 
Q 19.28125 33.59375 26.515625 31.984375 
L 29.59375 31.296875 
Q 39.15625 29.25 43.1875 25.515625 
Q 47.21875 21.78125 47.21875 15.09375 
Q 47.21875 7.46875 41.1875 3.015625 
Q 35.15625 -1.421875 24.609375 -1.421875 
Q 20.21875 -1.421875 15.453125 -0.5625 
Q 10.6875 0.296875 5.421875 2 
L 5.421875 11.28125 
Q 10.40625 8.6875 15.234375 7.390625 
Q 20.0625 6.109375 24.8125 6.109375 
Q 31.15625 6.109375 34.5625 8.28125 
Q 37.984375 10.453125 37.984375 14.40625 
Q 37.984375 18.0625 35.515625 20.015625 
Q 33.0625 21.96875 24.703125 23.78125 
L 21.578125 24.515625 
Q 13.234375 26.265625 9.515625 29.90625 
Q 5.8125 33.546875 5.8125 39.890625 
Q 5.8125 47.609375 11.28125 51.796875 
Q 16.75 56 26.8125 56 
Q 31.78125 56 36.171875 55.265625 
Q 40.578125 54.546875 44.28125 53.078125 
z
" id="DejaVuSans-115"/>
      </defs>
      <use xlink:href="#DejaVuSans-73"/>
      <use x="29.492188" xlink:href="#DejaVuSans-110"/>
      <use x="92.871094" xlink:href="#DejaVuSans-100"/>
      <use x="156.347656" xlink:href="#DejaVuSans-105"/>
      <use x="184.130859" xlink:href="#DejaVuSans-118"/>
      <use x="243.310547" xlink:href="#DejaVuSans-105"/>
      <use x="271.09375" xlink:href="#DejaVuSans-100"/>
      <use x="334.570312" xlink:href="#DejaVuSans-117"/>
      <use x="397.949219" xlink:href="#DejaVuSans-97"/>
      <use x="459.228516" xlink:href="#DejaVuSans-108"/>
      <use x="487.011719" xlink:href="#DejaVuSans-32"/>
      <use x="518.798828" xlink:href="#DejaVuSans-83"/>
      <use x="582.275391" xlink:href="#DejaVuSans-116"/>
      <use x="621.484375" xlink:href="#DejaVuSans-97"/>
      <use x="682.763672" xlink:href="#DejaVuSans-116"/>
      <use x="721.972656" xlink:href="#DejaVuSans-101"/>
      <use x="783.496094" xlink:href="#DejaVuSans-115"/>
     </g>
    </g>
    <g id="line2d_59">
     <path d="M 892.696875 154.029375 
L 932.696875 154.029375 
" style="fill:none;stroke:#000000;stroke-linecap:square;stroke-width:4;"/>
    </g>
    <g id="line2d_60"/>
    <g id="text_17">
     <!-- Stay at Home Order -->
     <g transform="translate(948.696875 161.029375)scale(0.2 -0.2)">
      <defs>
       <path d="M 32.171875 -5.078125 
Q 28.375 -14.84375 24.75 -17.8125 
Q 21.140625 -20.796875 15.09375 -20.796875 
L 7.90625 -20.796875 
L 7.90625 -13.28125 
L 13.1875 -13.28125 
Q 16.890625 -13.28125 18.9375 -11.515625 
Q 21 -9.765625 23.484375 -3.21875 
L 25.09375 0.875 
L 2.984375 54.6875 
L 12.5 54.6875 
L 29.59375 11.921875 
L 46.6875 54.6875 
L 56.203125 54.6875 
z
" id="DejaVuSans-121"/>
       <path d="M 9.8125 72.90625 
L 19.671875 72.90625 
L 19.671875 43.015625 
L 55.515625 43.015625 
L 55.515625 72.90625 
L 65.375 72.90625 
L 65.375 0 
L 55.515625 0 
L 55.515625 34.71875 
L 19.671875 34.71875 
L 19.671875 0 
L 9.8125 0 
z
" id="DejaVuSans-72"/>
       <path d="M 30.609375 48.390625 
Q 23.390625 48.390625 19.1875 42.75 
Q 14.984375 37.109375 14.984375 27.296875 
Q 14.984375 17.484375 19.15625 11.84375 
Q 23.34375 6.203125 30.609375 6.203125 
Q 37.796875 6.203125 41.984375 11.859375 
Q 46.1875 17.53125 46.1875 27.296875 
Q 46.1875 37.015625 41.984375 42.703125 
Q 37.796875 48.390625 30.609375 48.390625 
z
M 30.609375 56 
Q 42.328125 56 49.015625 48.375 
Q 55.71875 40.765625 55.71875 27.296875 
Q 55.71875 13.875 49.015625 6.21875 
Q 42.328125 -1.421875 30.609375 -1.421875 
Q 18.84375 -1.421875 12.171875 6.21875 
Q 5.515625 13.875 5.515625 27.296875 
Q 5.515625 40.765625 12.171875 48.375 
Q 18.84375 56 30.609375 56 
z
" id="DejaVuSans-111"/>
       <path d="M 52 44.1875 
Q 55.375 50.25 60.0625 53.125 
Q 64.75 56 71.09375 56 
Q 79.640625 56 84.28125 50.015625 
Q 88.921875 44.046875 88.921875 33.015625 
L 88.921875 0 
L 79.890625 0 
L 79.890625 32.71875 
Q 79.890625 40.578125 77.09375 44.375 
Q 74.3125 48.1875 68.609375 48.1875 
Q 61.625 48.1875 57.5625 43.546875 
Q 53.515625 38.921875 53.515625 30.90625 
L 53.515625 0 
L 44.484375 0 
L 44.484375 32.71875 
Q 44.484375 40.625 41.703125 44.40625 
Q 38.921875 48.1875 33.109375 48.1875 
Q 26.21875 48.1875 22.15625 43.53125 
Q 18.109375 38.875 18.109375 30.90625 
L 18.109375 0 
L 9.078125 0 
L 9.078125 54.6875 
L 18.109375 54.6875 
L 18.109375 46.1875 
Q 21.1875 51.21875 25.484375 53.609375 
Q 29.78125 56 35.6875 56 
Q 41.65625 56 45.828125 52.96875 
Q 50 49.953125 52 44.1875 
z
" id="DejaVuSans-109"/>
       <path d="M 39.40625 66.21875 
Q 28.65625 66.21875 22.328125 58.203125 
Q 16.015625 50.203125 16.015625 36.375 
Q 16.015625 22.609375 22.328125 14.59375 
Q 28.65625 6.59375 39.40625 6.59375 
Q 50.140625 6.59375 56.421875 14.59375 
Q 62.703125 22.609375 62.703125 36.375 
Q 62.703125 50.203125 56.421875 58.203125 
Q 50.140625 66.21875 39.40625 66.21875 
z
M 39.40625 74.21875 
Q 54.734375 74.21875 63.90625 63.9375 
Q 73.09375 53.65625 73.09375 36.375 
Q 73.09375 19.140625 63.90625 8.859375 
Q 54.734375 -1.421875 39.40625 -1.421875 
Q 24.03125 -1.421875 14.8125 8.828125 
Q 5.609375 19.09375 5.609375 36.375 
Q 5.609375 53.65625 14.8125 63.9375 
Q 24.03125 74.21875 39.40625 74.21875 
z
" id="DejaVuSans-79"/>
      </defs>
      <use xlink:href="#DejaVuSans-83"/>
      <use x="63.476562" xlink:href="#DejaVuSans-116"/>
      <use x="102.685547" xlink:href="#DejaVuSans-97"/>
      <use x="163.964844" xlink:href="#DejaVuSans-121"/>
      <use x="223.144531" xlink:href="#DejaVuSans-32"/>
      <use x="254.931641" xlink:href="#DejaVuSans-97"/>
      <use x="316.210938" xlink:href="#DejaVuSans-116"/>
      <use x="355.419922" xlink:href="#DejaVuSans-32"/>
      <use x="387.207031" xlink:href="#DejaVuSans-72"/>
      <use x="462.402344" xlink:href="#DejaVuSans-111"/>
      <use x="523.583984" xlink:href="#DejaVuSans-109"/>
      <use x="620.996094" xlink:href="#DejaVuSans-101"/>
      <use x="682.519531" xlink:href="#DejaVuSans-32"/>
      <use x="714.306641" xlink:href="#DejaVuSans-79"/>
      <use x="793.017578" xlink:href="#DejaVuSans-114"/>
      <use x="832.380859" xlink:href="#DejaVuSans-100"/>
      <use x="895.857422" xlink:href="#DejaVuSans-101"/>
      <use x="957.380859" xlink:href="#DejaVuSans-114"/>
     </g>
    </g>
   </g>
  </g>
 </g>
 <defs>
  <clipPath id="p3f65ee0610">
   <rect height="434.88" width="1004.4" x="162" y="69.12"/>
  </clipPath>
 </defs>
</svg>
