<?xml version="1.0" encoding="utf-8" standalone="no"?>
<!DOCTYPE svg PUBLIC "-//W3C//DTD SVG 1.1//EN"
  "http://www.w3.org/Graphics/SVG/1.1/DTD/svg11.dtd">
<!-- Created with matplotlib (https://matplotlib.org/) -->
<svg height="576pt" version="1.1" viewBox="0 0 1296 576" width="1296pt" xmlns="http://www.w3.org/2000/svg" xmlns:xlink="http://www.w3.org/1999/xlink">
 <metadata>
  <rdf:RDF xmlns:cc="http://creativecommons.org/ns#" xmlns:dc="http://purl.org/dc/elements/1.1/" xmlns:rdf="http://www.w3.org/1999/02/22-rdf-syntax-ns#">
   <cc:Work>
    <dc:type rdf:resource="http://purl.org/dc/dcmitype/StillImage"/>
    <dc:date>2021-07-05T18:45:56.261374</dc:date>
    <dc:format>image/svg+xml</dc:format>
    <dc:creator>
     <cc:Agent>
      <dc:title>Matplotlib v3.3.4, https://matplotlib.org/</dc:title>
     </cc:Agent>
    </dc:creator>
   </cc:Work>
  </rdf:RDF>
 </metadata>
 <defs>
  <style type="text/css">*{stroke-linecap:butt;stroke-linejoin:round;}</style>
 </defs>
 <g id="figure_1">
  <g id="patch_1">
   <path d="M 0 576 
L 1296 576 
L 1296 0 
L 0 0 
z
" style="fill:#ffffff;"/>
  </g>
  <g id="axes_1">
   <g id="patch_2">
    <path d="M 162 504 
L 1166.4 504 
L 1166.4 69.12 
L 162 69.12 
z
" style="fill:#ffffff;"/>
   </g>
   <g id="matplotlib.axis_1">
    <g id="xtick_1">
     <g id="line2d_1">
      <defs>
       <path d="M 0 0 
L 0 3.5 
" id="mdd36a8d485" style="stroke:#000000;stroke-width:0.8;"/>
      </defs>
      <g>
       <use style="stroke:#000000;stroke-width:0.8;" x="290.66281" xlink:href="#mdd36a8d485" y="504"/>
      </g>
     </g>
     <g id="text_1">
      <!-- −10 -->
      <g transform="translate(269.558122 526.196875)scale(0.2 -0.2)">
       <defs>
        <path d="M 10.59375 35.5 
L 73.1875 35.5 
L 73.1875 27.203125 
L 10.59375 27.203125 
z
" id="DejaVuSans-8722"/>
        <path d="M 12.40625 8.296875 
L 28.515625 8.296875 
L 28.515625 63.921875 
L 10.984375 60.40625 
L 10.984375 69.390625 
L 28.421875 72.90625 
L 38.28125 72.90625 
L 38.28125 8.296875 
L 54.390625 8.296875 
L 54.390625 0 
L 12.40625 0 
z
" id="DejaVuSans-49"/>
        <path d="M 31.78125 66.40625 
Q 24.171875 66.40625 20.328125 58.90625 
Q 16.5 51.421875 16.5 36.375 
Q 16.5 21.390625 20.328125 13.890625 
Q 24.171875 6.390625 31.78125 6.390625 
Q 39.453125 6.390625 43.28125 13.890625 
Q 47.125 21.390625 47.125 36.375 
Q 47.125 51.421875 43.28125 58.90625 
Q 39.453125 66.40625 31.78125 66.40625 
z
M 31.78125 74.21875 
Q 44.046875 74.21875 50.515625 64.515625 
Q 56.984375 54.828125 56.984375 36.375 
Q 56.984375 17.96875 50.515625 8.265625 
Q 44.046875 -1.421875 31.78125 -1.421875 
Q 19.53125 -1.421875 13.0625 8.265625 
Q 6.59375 17.96875 6.59375 36.375 
Q 6.59375 54.828125 13.0625 64.515625 
Q 19.53125 74.21875 31.78125 74.21875 
z
" id="DejaVuSans-48"/>
       </defs>
       <use xlink:href="#DejaVuSans-8722"/>
       <use x="83.789062" xlink:href="#DejaVuSans-49"/>
       <use x="147.412109" xlink:href="#DejaVuSans-48"/>
      </g>
     </g>
    </g>
    <g id="xtick_2">
     <g id="line2d_2">
      <g>
       <use style="stroke:#000000;stroke-width:0.8;" x="498.183471" xlink:href="#mdd36a8d485" y="504"/>
      </g>
     </g>
     <g id="text_2">
      <!-- 0 -->
      <g transform="translate(491.820971 526.196875)scale(0.2 -0.2)">
       <use xlink:href="#DejaVuSans-48"/>
      </g>
     </g>
    </g>
    <g id="xtick_3">
     <g id="line2d_3">
      <g>
       <use style="stroke:#000000;stroke-width:0.8;" x="705.704132" xlink:href="#mdd36a8d485" y="504"/>
      </g>
     </g>
     <g id="text_3">
      <!-- 10 -->
      <g transform="translate(692.979132 526.196875)scale(0.2 -0.2)">
       <use xlink:href="#DejaVuSans-49"/>
       <use x="63.623047" xlink:href="#DejaVuSans-48"/>
      </g>
     </g>
    </g>
    <g id="xtick_4">
     <g id="line2d_4">
      <g>
       <use style="stroke:#000000;stroke-width:0.8;" x="913.224793" xlink:href="#mdd36a8d485" y="504"/>
      </g>
     </g>
     <g id="text_4">
      <!-- 20 -->
      <g transform="translate(900.499793 526.196875)scale(0.2 -0.2)">
       <defs>
        <path d="M 19.1875 8.296875 
L 53.609375 8.296875 
L 53.609375 0 
L 7.328125 0 
L 7.328125 8.296875 
Q 12.9375 14.109375 22.625 23.890625 
Q 32.328125 33.6875 34.8125 36.53125 
Q 39.546875 41.84375 41.421875 45.53125 
Q 43.3125 49.21875 43.3125 52.78125 
Q 43.3125 58.59375 39.234375 62.25 
Q 35.15625 65.921875 28.609375 65.921875 
Q 23.96875 65.921875 18.8125 64.3125 
Q 13.671875 62.703125 7.8125 59.421875 
L 7.8125 69.390625 
Q 13.765625 71.78125 18.9375 73 
Q 24.125 74.21875 28.421875 74.21875 
Q 39.75 74.21875 46.484375 68.546875 
Q 53.21875 62.890625 53.21875 53.421875 
Q 53.21875 48.921875 51.53125 44.890625 
Q 49.859375 40.875 45.40625 35.40625 
Q 44.1875 33.984375 37.640625 27.21875 
Q 31.109375 20.453125 19.1875 8.296875 
z
" id="DejaVuSans-50"/>
       </defs>
       <use xlink:href="#DejaVuSans-50"/>
       <use x="63.623047" xlink:href="#DejaVuSans-48"/>
      </g>
     </g>
    </g>
    <g id="xtick_5">
     <g id="line2d_5">
      <g>
       <use style="stroke:#000000;stroke-width:0.8;" x="1120.745455" xlink:href="#mdd36a8d485" y="504"/>
      </g>
     </g>
     <g id="text_5">
      <!-- 30 -->
      <g transform="translate(1108.020455 526.196875)scale(0.2 -0.2)">
       <defs>
        <path d="M 40.578125 39.3125 
Q 47.65625 37.796875 51.625 33 
Q 55.609375 28.21875 55.609375 21.1875 
Q 55.609375 10.40625 48.1875 4.484375 
Q 40.765625 -1.421875 27.09375 -1.421875 
Q 22.515625 -1.421875 17.65625 -0.515625 
Q 12.796875 0.390625 7.625 2.203125 
L 7.625 11.71875 
Q 11.71875 9.328125 16.59375 8.109375 
Q 21.484375 6.890625 26.8125 6.890625 
Q 36.078125 6.890625 40.9375 10.546875 
Q 45.796875 14.203125 45.796875 21.1875 
Q 45.796875 27.640625 41.28125 31.265625 
Q 36.765625 34.90625 28.71875 34.90625 
L 20.21875 34.90625 
L 20.21875 43.015625 
L 29.109375 43.015625 
Q 36.375 43.015625 40.234375 45.921875 
Q 44.09375 48.828125 44.09375 54.296875 
Q 44.09375 59.90625 40.109375 62.90625 
Q 36.140625 65.921875 28.71875 65.921875 
Q 24.65625 65.921875 20.015625 65.03125 
Q 15.375 64.15625 9.8125 62.3125 
L 9.8125 71.09375 
Q 15.4375 72.65625 20.34375 73.4375 
Q 25.25 74.21875 29.59375 74.21875 
Q 40.828125 74.21875 47.359375 69.109375 
Q 53.90625 64.015625 53.90625 55.328125 
Q 53.90625 49.265625 50.4375 45.09375 
Q 46.96875 40.921875 40.578125 39.3125 
z
" id="DejaVuSans-51"/>
       </defs>
       <use xlink:href="#DejaVuSans-51"/>
       <use x="63.623047" xlink:href="#DejaVuSans-48"/>
      </g>
     </g>
    </g>
   </g>
   <g id="matplotlib.axis_2">
    <g id="ytick_1">
     <g id="line2d_6">
      <defs>
       <path d="M 0 0 
L -3.5 0 
" id="me620cde88b" style="stroke:#000000;stroke-width:0.8;"/>
      </defs>
      <g>
       <use style="stroke:#000000;stroke-width:0.8;" x="162" xlink:href="#me620cde88b" y="504"/>
      </g>
     </g>
     <g id="text_6">
      <!-- 0.00 -->
      <g transform="translate(110.46875 511.598437)scale(0.2 -0.2)">
       <defs>
        <path d="M 10.6875 12.40625 
L 21 12.40625 
L 21 0 
L 10.6875 0 
z
" id="DejaVuSans-46"/>
       </defs>
       <use xlink:href="#DejaVuSans-48"/>
       <use x="63.623047" xlink:href="#DejaVuSans-46"/>
       <use x="95.410156" xlink:href="#DejaVuSans-48"/>
       <use x="159.033203" xlink:href="#DejaVuSans-48"/>
      </g>
     </g>
    </g>
    <g id="ytick_2">
     <g id="line2d_7">
      <g>
       <use style="stroke:#000000;stroke-width:0.8;" x="162" xlink:href="#me620cde88b" y="449.64"/>
      </g>
     </g>
     <g id="text_7">
      <!-- 0.05 -->
      <g transform="translate(110.46875 457.238437)scale(0.2 -0.2)">
       <defs>
        <path d="M 10.796875 72.90625 
L 49.515625 72.90625 
L 49.515625 64.59375 
L 19.828125 64.59375 
L 19.828125 46.734375 
Q 21.96875 47.46875 24.109375 47.828125 
Q 26.265625 48.1875 28.421875 48.1875 
Q 40.625 48.1875 47.75 41.5 
Q 54.890625 34.8125 54.890625 23.390625 
Q 54.890625 11.625 47.5625 5.09375 
Q 40.234375 -1.421875 26.90625 -1.421875 
Q 22.3125 -1.421875 17.546875 -0.640625 
Q 12.796875 0.140625 7.71875 1.703125 
L 7.71875 11.625 
Q 12.109375 9.234375 16.796875 8.0625 
Q 21.484375 6.890625 26.703125 6.890625 
Q 35.15625 6.890625 40.078125 11.328125 
Q 45.015625 15.765625 45.015625 23.390625 
Q 45.015625 31 40.078125 35.4375 
Q 35.15625 39.890625 26.703125 39.890625 
Q 22.75 39.890625 18.8125 39.015625 
Q 14.890625 38.140625 10.796875 36.28125 
z
" id="DejaVuSans-53"/>
       </defs>
       <use xlink:href="#DejaVuSans-48"/>
       <use x="63.623047" xlink:href="#DejaVuSans-46"/>
       <use x="95.410156" xlink:href="#DejaVuSans-48"/>
       <use x="159.033203" xlink:href="#DejaVuSans-53"/>
      </g>
     </g>
    </g>
    <g id="ytick_3">
     <g id="line2d_8">
      <g>
       <use style="stroke:#000000;stroke-width:0.8;" x="162" xlink:href="#me620cde88b" y="395.28"/>
      </g>
     </g>
     <g id="text_8">
      <!-- 0.10 -->
      <g transform="translate(110.46875 402.878437)scale(0.2 -0.2)">
       <use xlink:href="#DejaVuSans-48"/>
       <use x="63.623047" xlink:href="#DejaVuSans-46"/>
       <use x="95.410156" xlink:href="#DejaVuSans-49"/>
       <use x="159.033203" xlink:href="#DejaVuSans-48"/>
      </g>
     </g>
    </g>
    <g id="ytick_4">
     <g id="line2d_9">
      <g>
       <use style="stroke:#000000;stroke-width:0.8;" x="162" xlink:href="#me620cde88b" y="340.92"/>
      </g>
     </g>
     <g id="text_9">
      <!-- 0.15 -->
      <g transform="translate(110.46875 348.518437)scale(0.2 -0.2)">
       <use xlink:href="#DejaVuSans-48"/>
       <use x="63.623047" xlink:href="#DejaVuSans-46"/>
       <use x="95.410156" xlink:href="#DejaVuSans-49"/>
       <use x="159.033203" xlink:href="#DejaVuSans-53"/>
      </g>
     </g>
    </g>
    <g id="ytick_5">
     <g id="line2d_10">
      <g>
       <use style="stroke:#000000;stroke-width:0.8;" x="162" xlink:href="#me620cde88b" y="286.56"/>
      </g>
     </g>
     <g id="text_10">
      <!-- 0.20 -->
      <g transform="translate(110.46875 294.158437)scale(0.2 -0.2)">
       <use xlink:href="#DejaVuSans-48"/>
       <use x="63.623047" xlink:href="#DejaVuSans-46"/>
       <use x="95.410156" xlink:href="#DejaVuSans-50"/>
       <use x="159.033203" xlink:href="#DejaVuSans-48"/>
      </g>
     </g>
    </g>
    <g id="ytick_6">
     <g id="line2d_11">
      <g>
       <use style="stroke:#000000;stroke-width:0.8;" x="162" xlink:href="#me620cde88b" y="232.2"/>
      </g>
     </g>
     <g id="text_11">
      <!-- 0.25 -->
      <g transform="translate(110.46875 239.798437)scale(0.2 -0.2)">
       <use xlink:href="#DejaVuSans-48"/>
       <use x="63.623047" xlink:href="#DejaVuSans-46"/>
       <use x="95.410156" xlink:href="#DejaVuSans-50"/>
       <use x="159.033203" xlink:href="#DejaVuSans-53"/>
      </g>
     </g>
    </g>
    <g id="ytick_7">
     <g id="line2d_12">
      <g>
       <use style="stroke:#000000;stroke-width:0.8;" x="162" xlink:href="#me620cde88b" y="177.84"/>
      </g>
     </g>
     <g id="text_12">
      <!-- 0.30 -->
      <g transform="translate(110.46875 185.438437)scale(0.2 -0.2)">
       <use xlink:href="#DejaVuSans-48"/>
       <use x="63.623047" xlink:href="#DejaVuSans-46"/>
       <use x="95.410156" xlink:href="#DejaVuSans-51"/>
       <use x="159.033203" xlink:href="#DejaVuSans-48"/>
      </g>
     </g>
    </g>
    <g id="ytick_8">
     <g id="line2d_13">
      <g>
       <use style="stroke:#000000;stroke-width:0.8;" x="162" xlink:href="#me620cde88b" y="123.48"/>
      </g>
     </g>
     <g id="text_13">
      <!-- 0.35 -->
      <g transform="translate(110.46875 131.078437)scale(0.2 -0.2)">
       <use xlink:href="#DejaVuSans-48"/>
       <use x="63.623047" xlink:href="#DejaVuSans-46"/>
       <use x="95.410156" xlink:href="#DejaVuSans-51"/>
       <use x="159.033203" xlink:href="#DejaVuSans-53"/>
      </g>
     </g>
    </g>
    <g id="ytick_9">
     <g id="line2d_14">
      <g>
       <use style="stroke:#000000;stroke-width:0.8;" x="162" xlink:href="#me620cde88b" y="69.12"/>
      </g>
     </g>
     <g id="text_14">
      <!-- 0.40 -->
      <g transform="translate(110.46875 76.718437)scale(0.2 -0.2)">
       <defs>
        <path d="M 37.796875 64.3125 
L 12.890625 25.390625 
L 37.796875 25.390625 
z
M 35.203125 72.90625 
L 47.609375 72.90625 
L 47.609375 25.390625 
L 58.015625 25.390625 
L 58.015625 17.1875 
L 47.609375 17.1875 
L 47.609375 0 
L 37.796875 0 
L 37.796875 17.1875 
L 4.890625 17.1875 
L 4.890625 26.703125 
z
" id="DejaVuSans-52"/>
       </defs>
       <use xlink:href="#DejaVuSans-48"/>
       <use x="63.623047" xlink:href="#DejaVuSans-46"/>
       <use x="95.410156" xlink:href="#DejaVuSans-52"/>
       <use x="159.033203" xlink:href="#DejaVuSans-48"/>
      </g>
     </g>
    </g>
   </g>
   <g id="LineCollection_1">
    <path clip-path="url(#pc698994e70)" d="M 498.183471 504 
L 498.183471 367.970157 
" style="fill:none;stroke:#000000;stroke-width:6;"/>
   </g>
   <g id="line2d_15">
    <path clip-path="url(#pc698994e70)" d="M 207.654545 393.472719 
L 228.406612 399.030929 
L 249.158678 400.128467 
L 269.910744 399.505041 
L 290.66281 405.212985 
L 311.414876 408.791632 
L 332.166942 410.407314 
L 352.919008 411.469664 
L 373.671074 412.603922 
L 394.42314 412.024664 
L 415.175207 410.355166 
L 435.927273 416.403876 
L 456.679339 421.146512 
L 477.431405 423.348575 
L 498.183471 423.615748 
L 518.935537 425.881501 
L 539.687603 427.171008 
L 560.439669 424.879036 
L 581.191736 426.700248 
L 601.943802 426.79249 
L 622.695868 423.025357 
L 643.447934 419.490434 
L 664.2 417.444204 
L 684.952066 415.865217 
L 705.704132 408.22063 
L 726.456198 408.07719 
L 747.208264 409.592825 
L 767.960331 408.934783 
L 788.712397 406.747655 
L 809.464463 406.868627 
L 830.216529 407.152253 
L 850.968595 401.349145 
L 871.720661 405.81728 
L 892.472727 410.536665 
L 913.224793 410.829316 
L 933.97686 412.004736 
L 954.728926 414.838474 
L 975.480992 414.243603 
L 996.233058 411.124783 
L 1016.985124 413.909226 
L 1037.73719 416.724328 
L 1058.489256 418.193278 
L 1079.241322 416.998524 
L 1099.993388 413.395564 
L 1120.745455 408.415957 
" style="fill:none;stroke:#808080;stroke-linecap:square;stroke-opacity:0.4;"/>
   </g>
   <g id="line2d_16">
    <path clip-path="url(#pc698994e70)" d="M 207.654545 153.705878 
L 228.406612 103.558586 
L 249.158678 220.079141 
L 269.910744 284.381105 
L 290.66281 270.621776 
L 311.414876 278.968917 
L 332.166942 310.748402 
L 352.919008 329.494087 
L 373.671074 360.501587 
L 394.42314 384.492902 
L 415.175207 389.104372 
L 435.927273 394.237826 
L 456.679339 406.772686 
L 477.431405 410.371558 
L 498.183471 417.191983 
L 518.935537 417.734053 
L 539.687603 416.198568 
L 560.439669 416.482764 
L 581.191736 423.275711 
L 601.943802 423.060904 
L 622.695868 424.230022 
L 643.447934 424.408576 
L 664.2 424.712159 
L 684.952066 432.167206 
L 705.704132 436.677068 
L 726.456198 438.990268 
L 747.208264 444.194215 
L 767.960331 447.431583 
L 788.712397 451.050038 
L 809.464463 452.488676 
L 830.216529 455.56323 
L 850.968595 453.148791 
L 871.720661 457.47555 
L 892.472727 461.709116 
L 913.224793 461.498557 
L 933.97686 458.505238 
L 954.728926 451.899206 
L 975.480992 448.328859 
L 996.233058 446.773252 
L 1016.985124 443.817076 
L 1037.73719 437.977293 
L 1058.489256 424.73243 
L 1079.241322 433.125725 
L 1099.993388 432.832765 
L 1120.745455 440.980296 
" style="fill:none;stroke:#808080;stroke-linecap:square;stroke-opacity:0.4;"/>
   </g>
   <g id="line2d_17">
    <path clip-path="url(#pc698994e70)" d="M 207.654545 197.495958 
L 228.406612 223.028236 
L 249.158678 232.084233 
L 269.910744 259.251201 
L 290.66281 299.036921 
L 311.414876 312.824416 
L 332.166942 332.065843 
L 352.919008 356.771491 
L 373.671074 360.495667 
L 394.42314 364.289733 
L 415.175207 376.269124 
L 435.927273 384.345666 
L 456.679339 394.590023 
L 477.431405 403.116878 
L 498.183471 405.720995 
L 518.935537 406.987058 
L 539.687603 410.081436 
L 560.439669 418.233252 
L 581.191736 421.281796 
L 601.943802 426.303003 
L 622.695868 420.925025 
L 643.447934 419.188652 
L 664.2 416.71858 
L 684.952066 415.893695 
L 705.704132 417.917425 
L 726.456198 418.606768 
L 747.208264 413.496823 
L 767.960331 410.30576 
L 788.712397 407.37235 
L 809.464463 406.9187 
L 830.216529 403.750084 
L 850.968595 411.214802 
L 871.720661 409.049551 
L 892.472727 407.048085 
L 913.224793 404.523013 
L 933.97686 402.101423 
L 954.728926 400.914353 
L 975.480992 397.778844 
L 996.233058 399.604998 
L 1016.985124 397.892383 
L 1037.73719 400.931704 
L 1058.489256 399.814671 
L 1079.241322 398.163305 
L 1099.993388 402.676268 
L 1120.745455 406.768317 
" style="fill:none;stroke:#808080;stroke-linecap:square;stroke-opacity:0.4;"/>
   </g>
   <g id="line2d_18">
    <path clip-path="url(#pc698994e70)" d="M 207.654545 277.778474 
L 228.406612 286.464134 
L 249.158678 295.651377 
L 269.910744 304.522119 
L 290.66281 316.923749 
L 311.414876 321.126215 
L 332.166942 330.46172 
L 352.919008 348.727966 
L 373.671074 362.35354 
L 394.42314 371.089629 
L 415.175207 378.434663 
L 435.927273 386.649576 
L 456.679339 390.705601 
L 477.431405 393.821996 
L 498.183471 398.974501 
L 518.935537 401.575467 
L 539.687603 403.75964 
L 560.439669 403.807579 
L 581.191736 402.928616 
L 601.943802 400.903415 
L 622.695868 395.255728 
L 643.447934 395.836304 
L 664.2 397.121278 
L 684.952066 400.098986 
L 705.704132 400.716543 
L 726.456198 404.089619 
L 747.208264 404.896145 
L 767.960331 405.308195 
L 788.712397 408.937648 
L 809.464463 412.763229 
L 830.216529 416.018647 
L 850.968595 417.950679 
L 871.720661 419.024213 
L 892.472727 418.469769 
L 913.224793 415.017788 
L 933.97686 415.655632 
L 954.728926 415.651662 
L 975.480992 415.690835 
L 996.233058 414.47263 
L 1016.985124 414.00543 
L 1037.73719 411.85263 
L 1058.489256 408.277629 
L 1079.241322 408.988781 
L 1099.993388 409.380061 
L 1120.745455 408.971827 
" style="fill:none;stroke:#808080;stroke-linecap:square;stroke-opacity:0.4;"/>
   </g>
   <g id="line2d_19">
    <path clip-path="url(#pc698994e70)" d="M 207.654545 208.338485 
L 228.406612 214.550401 
L 249.158678 233.852931 
L 269.910744 249.799849 
L 290.66281 247.638859 
L 311.414876 247.191164 
L 332.166942 267.674453 
L 352.919008 274.907329 
L 373.671074 312.536926 
L 394.42314 331.427895 
L 415.175207 339.065534 
L 435.927273 345.085662 
L 456.679339 355.985846 
L 477.431405 366.142812 
L 498.183471 378.956538 
L 518.935537 389.859645 
L 539.687603 401.519959 
L 560.439669 407.601119 
L 581.191736 415.427154 
L 601.943802 416.198878 
L 622.695868 418.044592 
L 643.447934 415.205251 
L 664.2 420.395484 
L 684.952066 416.64156 
L 705.704132 421.289422 
L 726.456198 420.47977 
L 747.208264 419.827702 
L 767.960331 418.43202 
L 788.712397 419.500037 
L 809.464463 416.858153 
L 830.216529 419.372446 
L 850.968595 418.898988 
L 871.720661 411.364823 
L 892.472727 404.675162 
L 913.224793 399.692771 
L 933.97686 391.175655 
L 954.728926 391.272618 
L 975.480992 397.636149 
L 996.233058 399.784878 
L 1016.985124 400.874121 
L 1037.73719 405.095872 
L 1058.489256 409.492856 
L 1079.241322 415.877682 
L 1099.993388 422.386714 
L 1120.745455 426.208262 
" style="fill:none;stroke:#808080;stroke-linecap:square;stroke-opacity:0.4;"/>
   </g>
   <g id="line2d_20">
    <path clip-path="url(#pc698994e70)" d="M 235.843842 -1 
L 249.158678 67.146764 
L 269.910744 103.946033 
L 290.66281 172.798667 
L 311.414876 127.612763 
L 332.166942 87.300644 
L 352.919008 145.194703 
L 373.671074 159.439794 
L 394.42314 215.650855 
L 415.175207 246.723511 
L 435.927273 228.493007 
L 456.679339 248.857439 
L 477.431405 260.117179 
L 498.183471 285.454405 
L 518.935537 315.231147 
L 539.687603 336.406812 
L 560.439669 336.384082 
L 581.191736 330.877193 
L 601.943802 356.507884 
L 622.695868 352.114903 
L 643.447934 354.540032 
L 664.2 369.503393 
L 684.952066 375.643026 
L 705.704132 383.360166 
L 726.456198 391.947491 
L 747.208264 390.804972 
L 767.960331 400.208339 
L 788.712397 400.665253 
L 809.464463 408.793952 
L 830.216529 412.635897 
L 850.968595 414.313967 
L 871.720661 413.240111 
L 892.472727 414.133054 
L 913.224793 413.231054 
L 933.97686 405.411672 
L 954.728926 411.943938 
L 975.480992 409.222136 
L 996.233058 419.568105 
L 1016.985124 424.810464 
L 1037.73719 426.04674 
L 1058.489256 431.590196 
L 1079.241322 433.638195 
L 1099.993388 437.650347 
L 1120.745455 442.388423 
" style="fill:none;stroke:#808080;stroke-linecap:square;stroke-opacity:0.4;"/>
   </g>
   <g id="line2d_21">
    <path clip-path="url(#pc698994e70)" d="M 207.654545 12.842763 
L 228.406612 70.891672 
L 249.158678 161.997394 
L 269.910744 191.218944 
L 290.66281 183.958222 
L 311.414876 175.779489 
L 332.166942 193.679476 
L 352.919008 275.872753 
L 373.671074 294.192131 
L 394.42314 295.558373 
L 415.175207 294.780384 
L 435.927273 314.615279 
L 456.679339 338.024473 
L 477.431405 339.660605 
L 498.183471 334.568861 
L 518.935537 342.761945 
L 539.687603 335.952488 
L 560.439669 318.275847 
L 581.191736 350.198837 
L 601.943802 345.605823 
L 622.695868 337.075669 
L 643.447934 338.341504 
L 664.2 366.160542 
L 684.952066 372.630006 
L 705.704132 375.457275 
L 726.456198 383.500311 
L 747.208264 391.606718 
L 767.960331 394.269888 
L 788.712397 399.465522 
L 809.464463 405.3102 
L 830.216529 402.609441 
L 850.968595 392.426035 
L 871.720661 401.881746 
L 892.472727 401.291441 
L 913.224793 405.936028 
L 933.97686 397.204276 
L 954.728926 400.394412 
L 975.480992 395.40397 
L 996.233058 392.963119 
L 1016.985124 392.828777 
L 1037.73719 409.98532 
L 1058.489256 412.040507 
L 1079.241322 422.496747 
L 1099.993388 423.764101 
L 1120.745455 422.251741 
" style="fill:none;stroke:#808080;stroke-linecap:square;stroke-opacity:0.4;"/>
   </g>
   <g id="line2d_22">
    <path clip-path="url(#pc698994e70)" d="M 207.654545 250.27891 
L 228.406612 277.235227 
L 249.158678 296.035299 
L 269.910744 314.175833 
L 290.66281 320.361936 
L 311.414876 336.918104 
L 332.166942 350.148182 
L 352.919008 365.390781 
L 373.671074 378.293174 
L 394.42314 389.013175 
L 415.175207 393.880889 
L 435.927273 403.7603 
L 456.679339 409.911696 
L 477.431405 414.703375 
L 498.183471 419.901746 
L 518.935537 423.998103 
L 539.687603 426.482107 
L 560.439669 428.577006 
L 581.191736 429.982364 
L 601.943802 428.905679 
L 622.695868 429.025041 
L 643.447934 428.318163 
L 664.2 430.817035 
L 684.952066 431.013753 
L 705.704132 428.801643 
L 726.456198 428.243166 
L 747.208264 430.363436 
L 767.960331 431.129796 
L 788.712397 434.402665 
L 809.464463 436.308833 
L 830.216529 432.476399 
L 850.968595 428.379713 
L 871.720661 427.270127 
L 892.472727 425.46654 
L 913.224793 420.708735 
L 933.97686 419.090434 
L 954.728926 420.221211 
L 975.480992 419.607517 
L 996.233058 419.438049 
L 1016.985124 422.446405 
L 1037.73719 427.120175 
L 1058.489256 428.80225 
L 1079.241322 429.761922 
L 1099.993388 430.733521 
L 1120.745455 430.702792 
" style="fill:none;stroke:#808080;stroke-linecap:square;stroke-opacity:0.4;"/>
   </g>
   <g id="line2d_23">
    <path clip-path="url(#pc698994e70)" d="M 207.654545 311.201916 
L 228.406612 329.567508 
L 249.158678 319.447542 
L 269.910744 315.328999 
L 290.66281 325.116224 
L 311.414876 363.010448 
L 332.166942 372.879751 
L 352.919008 374.960065 
L 373.671074 370.228095 
L 394.42314 366.777895 
L 415.175207 360.710497 
L 435.927273 371.436773 
L 456.679339 393.848484 
L 477.431405 402.883802 
L 498.183471 401.710605 
L 518.935537 409.114112 
L 539.687603 410.914979 
L 560.439669 410.663696 
L 581.191736 416.356252 
L 601.943802 421.053675 
L 622.695868 420.873468 
L 643.447934 425.257089 
L 664.2 427.144805 
L 684.952066 426.104801 
L 705.704132 425.864315 
L 726.456198 420.401752 
L 747.208264 417.724076 
L 767.960331 422.159165 
L 788.712397 422.946353 
L 809.464463 423.914346 
L 830.216529 429.023799 
L 850.968595 423.170384 
L 871.720661 424.180719 
L 892.472727 427.106668 
L 913.224793 427.993431 
L 933.97686 425.319916 
L 954.728926 429.674264 
L 975.480992 426.689226 
L 996.233058 422.054042 
L 1016.985124 424.894401 
L 1037.73719 422.523774 
L 1058.489256 421.331194 
L 1079.241322 422.437861 
L 1099.993388 419.214727 
L 1120.745455 420.481132 
" style="fill:none;stroke:#808080;stroke-linecap:square;stroke-opacity:0.4;"/>
   </g>
   <g id="line2d_24">
    <path clip-path="url(#pc698994e70)" d="M 207.654545 58.269154 
L 228.406612 83.109974 
L 249.158678 234.776771 
L 269.910744 260.841289 
L 290.66281 274.21784 
L 311.414876 307.180083 
L 332.166942 314.891954 
L 352.919008 310.23492 
L 373.671074 323.367359 
L 394.42314 327.640706 
L 415.175207 350.122772 
L 435.927273 359.421913 
L 456.679339 370.882128 
L 477.431405 376.614288 
L 498.183471 389.333826 
L 518.935537 396.49943 
L 539.687603 411.235425 
L 560.439669 420.149596 
L 581.191736 425.047916 
L 601.943802 431.221615 
L 622.695868 439.991543 
L 643.447934 447.199642 
L 664.2 452.594753 
L 684.952066 452.951294 
L 705.704132 455.21688 
L 726.456198 456.500581 
L 747.208264 455.655808 
L 767.960331 452.223224 
L 788.712397 449.539384 
L 809.464463 445.33004 
L 830.216529 445.577097 
L 850.968595 450.304482 
L 871.720661 449.9806 
L 892.472727 449.348597 
L 913.224793 450.292532 
L 933.97686 458.580862 
L 954.728926 466.101964 
L 975.480992 469.963649 
L 996.233058 469.069738 
L 1016.985124 470.634631 
L 1037.73719 471.953269 
L 1058.489256 471.528313 
L 1079.241322 471.030404 
L 1099.993388 468.801241 
L 1120.745455 453.869478 
" style="fill:none;stroke:#808080;stroke-linecap:square;stroke-opacity:0.4;"/>
   </g>
   <g id="line2d_25">
    <path clip-path="url(#pc698994e70)" d="M 232.439864 -1 
L 249.158678 206.321491 
L 269.910744 188.588732 
L 290.66281 156.779031 
L 311.414876 81.199751 
L 332.166942 18.792112 
L 352.919008 85.363687 
L 373.671074 203.003961 
L 394.42314 258.031206 
L 415.175207 248.303237 
L 435.927273 208.689633 
L 456.679339 203.859281 
L 477.431405 252.716051 
L 498.183471 292.931407 
L 518.935537 330.620499 
L 539.687603 373.425154 
L 560.439669 393.042492 
L 581.191736 404.829937 
L 601.943802 415.950489 
L 622.695868 431.070523 
L 643.447934 441.567694 
L 664.2 449.568993 
L 684.952066 459.066439 
L 705.704132 460.050669 
L 726.456198 459.316134 
L 747.208264 458.730865 
L 767.960331 457.015301 
L 788.712397 453.277885 
L 809.464463 449.427604 
L 830.216529 440.353023 
L 850.968595 437.596203 
L 871.720661 437.497213 
L 892.472727 428.880046 
L 913.224793 434.264821 
L 933.97686 442.170557 
L 954.728926 432.612333 
L 975.480992 433.237128 
L 996.233058 436.56052 
L 1016.985124 432.328686 
L 1037.73719 434.255337 
L 1058.489256 438.857487 
L 1079.241322 431.412584 
L 1099.993388 433.773003 
L 1120.745455 430.605853 
" style="fill:none;stroke:#808080;stroke-linecap:square;stroke-opacity:0.4;"/>
   </g>
   <g id="line2d_26">
    <path clip-path="url(#pc698994e70)" d="M 301.22531 -1 
L 311.414876 80.548884 
L 332.166942 146.199638 
L 352.919008 192.723441 
L 373.671074 201.285695 
L 394.42314 238.29418 
L 415.175207 248.454953 
L 435.927273 242.438499 
L 456.679339 254.550328 
L 477.431405 292.643988 
L 498.183471 300.593441 
L 518.935537 304.495439 
L 539.687603 334.905444 
L 560.439669 329.70924 
L 581.191736 341.247315 
L 601.943802 353.296128 
L 622.695868 355.48348 
L 643.447934 365.599638 
L 664.2 376.384306 
L 684.952066 377.125381 
L 705.704132 381.125147 
L 726.456198 385.884779 
L 747.208264 390.220568 
L 767.960331 396.094667 
L 788.712397 402.440315 
L 809.464463 402.622349 
L 830.216529 409.039102 
L 850.968595 409.630937 
L 871.720661 411.120352 
L 892.472727 414.938701 
L 913.224793 414.562127 
L 933.97686 414.71779 
L 954.728926 415.814579 
L 975.480992 411.038763 
L 996.233058 404.39176 
L 1016.985124 398.623094 
L 1037.73719 397.326788 
L 1058.489256 394.85675 
L 1079.241322 397.52974 
L 1099.993388 394.389424 
L 1120.745455 393.523037 
" style="fill:none;stroke:#808080;stroke-linecap:square;stroke-opacity:0.4;"/>
   </g>
   <g id="line2d_27">
    <path clip-path="url(#pc698994e70)" d="M 207.654545 113.876845 
L 228.406612 10.697867 
L 232.852902 -1 
M 298.8732 -1 
L 311.414876 47.49765 
L 332.166942 95.252087 
L 352.919008 76.094424 
L 373.671074 112.557977 
L 394.42314 137.207521 
L 415.175207 180.257452 
L 435.927273 254.824426 
L 456.679339 272.163844 
L 477.431405 289.210909 
L 498.183471 300.290493 
L 518.935537 319.225341 
L 539.687603 335.48424 
L 560.439669 351.366484 
L 581.191736 360.305613 
L 601.943802 371.472439 
L 622.695868 380.17866 
L 643.447934 389.239404 
L 664.2 398.041234 
L 684.952066 404.063313 
L 705.704132 407.470821 
L 726.456198 415.165242 
L 747.208264 420.032363 
L 767.960331 423.252735 
L 788.712397 422.099889 
L 809.464463 418.830834 
L 830.216529 416.786869 
L 850.968595 418.897367 
L 871.720661 420.501086 
L 892.472727 419.428127 
L 913.224793 417.089952 
L 933.97686 412.78264 
L 954.728926 410.396356 
L 975.480992 405.430345 
L 996.233058 401.920587 
L 1016.985124 399.364403 
L 1037.73719 399.017675 
L 1058.489256 399.053395 
L 1079.241322 404.678842 
L 1099.993388 405.148945 
L 1120.745455 405.59118 
" style="fill:none;stroke:#808080;stroke-linecap:square;stroke-opacity:0.4;"/>
   </g>
   <g id="line2d_28">
    <path clip-path="url(#pc698994e70)" d="M 207.654545 274.262992 
L 228.406612 256.1898 
L 249.158678 235.710509 
L 269.910744 237.783536 
L 290.66281 225.683184 
L 311.414876 159.087039 
L 332.166942 266.884826 
L 352.919008 277.7565 
L 373.671074 306.510443 
L 394.42314 324.382256 
L 415.175207 331.830897 
L 435.927273 339.865575 
L 456.679339 349.858126 
L 477.431405 364.074996 
L 498.183471 368.178613 
L 518.935537 377.940648 
L 539.687603 387.452717 
L 560.439669 386.916469 
L 581.191736 391.945384 
L 601.943802 407.428582 
L 622.695868 408.445556 
L 643.447934 420.205316 
L 664.2 421.720082 
L 684.952066 422.750526 
L 705.704132 418.058378 
L 726.456198 425.674458 
L 747.208264 417.370167 
L 767.960331 419.832079 
L 788.712397 420.364052 
L 809.464463 401.801413 
L 830.216529 381.274976 
L 850.968595 370.091224 
L 871.720661 330.400784 
L 892.472727 342.468053 
L 913.224793 351.095373 
L 933.97686 366.873404 
L 954.728926 367.327877 
L 975.480992 367.318033 
L 996.233058 362.756644 
L 1016.985124 368.815774 
L 1037.73719 376.644808 
L 1058.489256 392.235788 
L 1079.241322 396.516307 
L 1099.993388 400.91182 
L 1120.745455 401.834406 
" style="fill:none;stroke:#808080;stroke-linecap:square;stroke-opacity:0.4;"/>
   </g>
   <g id="line2d_29">
    <path clip-path="url(#pc698994e70)" d="M 207.654545 201.292177 
L 228.406612 182.815745 
L 249.158678 135.170557 
L 269.910744 251.367637 
L 290.66281 240.751802 
L 311.414876 222.512979 
L 332.166942 252.695431 
L 352.919008 262.52677 
L 373.671074 284.554841 
L 394.42314 299.594751 
L 415.175207 326.972255 
L 435.927273 331.579969 
L 456.679339 335.082134 
L 477.431405 361.969944 
L 498.183471 379.712339 
L 518.935537 391.003007 
L 539.687603 385.651716 
L 560.439669 386.599236 
L 581.191736 374.83726 
L 601.943802 364.65973 
L 622.695868 368.932778 
L 643.447934 379.518461 
L 664.2 377.281836 
L 684.952066 388.347911 
L 705.704132 394.326128 
L 726.456198 401.951944 
L 747.208264 402.799652 
L 767.960331 407.132896 
L 788.712397 406.245099 
L 809.464463 411.764631 
L 830.216529 409.078977 
L 850.968595 414.772049 
L 871.720661 418.761391 
L 892.472727 413.484161 
L 913.224793 407.190701 
L 933.97686 411.236624 
L 954.728926 403.354236 
L 975.480992 411.99243 
L 996.233058 412.493081 
L 1016.985124 414.430586 
L 1037.73719 413.582397 
L 1058.489256 421.335285 
L 1079.241322 424.142318 
L 1099.993388 421.662757 
L 1120.745455 415.104242 
" style="fill:none;stroke:#808080;stroke-linecap:square;stroke-opacity:0.4;"/>
   </g>
   <g id="line2d_30">
    <path clip-path="url(#pc698994e70)" d="M 207.654545 35.528389 
L 228.406612 20.148204 
L 249.158678 25.878994 
L 269.910744 68.694828 
L 290.66281 154.832638 
L 311.414876 180.034356 
L 332.166942 226.734861 
L 352.919008 258.65367 
L 373.671074 246.71729 
L 394.42314 259.978765 
L 415.175207 312.157196 
L 435.927273 313.383697 
L 456.679339 313.955595 
L 477.431405 292.810174 
L 498.183471 257.305903 
L 518.935537 235.72421 
L 539.687603 269.917434 
L 560.439669 285.525812 
L 581.191736 335.492432 
L 601.943802 343.541063 
L 622.695868 366.033551 
L 643.447934 371.518801 
L 664.2 393.271133 
L 684.952066 407.893404 
L 705.704132 421.016795 
L 726.456198 432.46812 
L 747.208264 442.451523 
L 767.960331 449.646096 
L 788.712397 456.754777 
L 809.464463 459.354092 
L 830.216529 461.284087 
L 850.968595 458.059538 
L 871.720661 458.94706 
L 892.472727 453.964768 
L 913.224793 454.420557 
L 933.97686 447.149496 
L 954.728926 443.236682 
L 975.480992 442.307952 
L 996.233058 438.996003 
L 1016.985124 438.222863 
L 1037.73719 436.747725 
L 1058.489256 437.112075 
L 1079.241322 436.806776 
L 1099.993388 433.053202 
L 1120.745455 430.701735 
" style="fill:none;stroke:#808080;stroke-linecap:square;stroke-opacity:0.4;"/>
   </g>
   <g id="line2d_31">
    <path clip-path="url(#pc698994e70)" d="M 207.654545 339.332134 
L 228.406612 346.080881 
L 249.158678 340.971557 
L 269.910744 337.371042 
L 290.66281 356.503454 
L 311.414876 366.794202 
L 332.166942 377.16443 
L 352.919008 368.765715 
L 373.671074 381.902685 
L 394.42314 395.146463 
L 415.175207 413.830444 
L 435.927273 419.350847 
L 456.679339 423.119209 
L 477.431405 427.850483 
L 498.183471 431.001253 
L 518.935537 431.914386 
L 539.687603 431.771369 
L 560.439669 421.6322 
L 581.191736 413.994733 
L 601.943802 400.655921 
L 622.695868 415.143397 
L 643.447934 413.576025 
L 664.2 417.680158 
L 684.952066 416.468191 
L 705.704132 425.420345 
L 726.456198 432.735507 
L 747.208264 438.376502 
L 767.960331 438.923858 
L 788.712397 438.116898 
L 809.464463 436.634441 
L 830.216529 437.535468 
L 850.968595 432.746697 
L 871.720661 430.249515 
L 892.472727 421.917381 
L 913.224793 416.787545 
L 933.97686 408.019881 
L 954.728926 411.617431 
L 975.480992 409.332351 
L 996.233058 404.751529 
L 1016.985124 395.843962 
L 1037.73719 404.091386 
L 1058.489256 398.102083 
L 1079.241322 396.296163 
L 1099.993388 384.011912 
L 1120.745455 407.370824 
" style="fill:none;stroke:#808080;stroke-linecap:square;stroke-opacity:0.4;"/>
   </g>
   <g id="line2d_32">
    <path clip-path="url(#pc698994e70)" d="M 207.654545 246.255595 
L 228.406612 190.752108 
L 249.158678 185.040756 
L 269.910744 261.893057 
L 290.66281 296.896609 
L 311.414876 267.520737 
L 332.166942 289.19372 
L 352.919008 303.900895 
L 373.671074 336.069222 
L 394.42314 302.877883 
L 415.175207 309.447685 
L 435.927273 306.335657 
L 456.679339 310.574845 
L 477.431405 305.022485 
L 498.183471 344.502327 
L 518.935537 344.528069 
L 539.687603 364.598588 
L 560.439669 370.685463 
L 581.191736 385.091593 
L 601.943802 379.293147 
L 622.695868 388.694442 
L 643.447934 404.404699 
L 664.2 415.098383 
L 684.952066 414.665023 
L 705.704132 417.048953 
L 726.456198 418.537906 
L 747.208264 414.973498 
L 767.960331 412.408559 
L 788.712397 422.859236 
L 809.464463 415.119341 
L 830.216529 408.370921 
L 850.968595 405.428078 
L 871.720661 410.048438 
L 892.472727 401.516711 
L 913.224793 395.944232 
L 933.97686 406.382755 
L 954.728926 405.487674 
L 975.480992 400.649924 
L 996.233058 398.190035 
L 1016.985124 410.417921 
L 1037.73719 408.933314 
L 1058.489256 404.286934 
L 1079.241322 411.998082 
L 1099.993388 410.474476 
L 1120.745455 410.729272 
" style="fill:none;stroke:#808080;stroke-linecap:square;stroke-opacity:0.4;"/>
   </g>
   <g id="line2d_33">
    <path clip-path="url(#pc698994e70)" d="M 207.654545 303.754622 
L 228.406612 269.309508 
L 249.158678 252.83737 
L 269.910744 228.82364 
L 290.66281 173.98539 
L 311.414876 122.927156 
L 332.166942 75.101067 
L 348.26955 -1 
M 357.614898 -1 
L 373.671074 74.131352 
L 394.42314 184.601953 
L 415.175207 224.174382 
L 435.927273 266.895403 
L 456.679339 298.712662 
L 477.431405 306.454937 
L 498.183471 318.28105 
L 518.935537 333.805366 
L 539.687603 349.899702 
L 560.439669 364.258818 
L 581.191736 377.519411 
L 601.943802 382.110346 
L 622.695868 379.760519 
L 643.447934 377.099819 
L 664.2 374.485801 
L 684.952066 375.17408 
L 705.704132 383.947506 
L 726.456198 386.755392 
L 747.208264 397.552573 
L 767.960331 399.262408 
L 788.712397 400.554476 
L 809.464463 401.677505 
L 830.216529 406.425858 
L 850.968595 411.888384 
L 871.720661 417.276992 
L 892.472727 418.568905 
L 913.224793 412.025262 
L 933.97686 406.068947 
L 954.728926 403.075881 
L 975.480992 398.861309 
L 996.233058 402.705889 
L 1016.985124 408.948931 
L 1037.73719 411.712504 
L 1058.489256 413.222473 
L 1079.241322 416.253959 
L 1099.993388 420.574883 
L 1120.745455 426.558307 
" style="fill:none;stroke:#808080;stroke-linecap:square;stroke-opacity:0.4;"/>
   </g>
   <g id="line2d_34">
    <path clip-path="url(#pc698994e70)" d="M 207.654545 263.362303 
L 228.406612 294.469985 
L 249.158678 318.108559 
L 269.910744 330.963725 
L 290.66281 345.798976 
L 311.414876 354.359426 
L 332.166942 360.733806 
L 352.919008 374.146853 
L 373.671074 383.461177 
L 394.42314 389.666207 
L 415.175207 393.952681 
L 435.927273 397.797554 
L 456.679339 399.709121 
L 477.431405 399.94754 
L 498.183471 405.153716 
L 518.935537 408.712443 
L 539.687603 413.978924 
L 560.439669 415.33793 
L 581.191736 417.964699 
L 601.943802 420.370282 
L 622.695868 420.788474 
L 643.447934 424.626443 
L 664.2 428.012977 
L 684.952066 429.617015 
L 705.704132 429.941626 
L 726.456198 431.324983 
L 747.208264 432.184593 
L 767.960331 429.793697 
L 788.712397 430.310681 
L 809.464463 429.240908 
L 830.216529 429.403153 
L 850.968595 427.961179 
L 871.720661 425.137985 
L 892.472727 421.940898 
L 913.224793 414.242505 
L 933.97686 411.698288 
L 954.728926 413.170633 
L 975.480992 415.270177 
L 996.233058 415.014752 
L 1016.985124 416.029895 
L 1037.73719 413.523878 
L 1058.489256 409.897039 
L 1079.241322 412.972528 
L 1099.993388 417.046427 
L 1120.745455 419.527311 
" style="fill:none;stroke:#808080;stroke-linecap:square;stroke-opacity:0.4;"/>
   </g>
   <g id="line2d_35">
    <path clip-path="url(#pc698994e70)" d="M 207.654545 269.431289 
L 228.406612 233.815795 
L 249.158678 248.04697 
L 269.910744 344.351748 
L 290.66281 350.550469 
L 311.414876 342.966501 
L 332.166942 361.045913 
L 352.919008 366.43717 
L 373.671074 359.217812 
L 394.42314 357.214877 
L 415.175207 391.964668 
L 435.927273 385.626683 
L 456.679339 400.597096 
L 477.431405 398.601102 
L 498.183471 398.946071 
L 518.935537 391.325722 
L 539.687603 383.622099 
L 560.439669 396.480629 
L 581.191736 399.607898 
L 601.943802 394.653042 
L 622.695868 392.851975 
L 643.447934 398.460035 
L 664.2 393.905269 
L 684.952066 397.287078 
L 705.704132 402.900586 
L 726.456198 396.752864 
L 747.208264 394.916432 
L 767.960331 389.098904 
L 788.712397 396.803379 
L 809.464463 405.767417 
L 830.216529 386.939479 
L 850.968595 396.02005 
L 871.720661 389.636824 
L 892.472727 388.544006 
L 913.224793 364.565606 
L 933.97686 382.42835 
L 954.728926 345.495492 
L 975.480992 348.179152 
L 996.233058 336.612078 
L 1016.985124 354.353456 
L 1037.73719 355.682401 
L 1058.489256 364.387515 
L 1079.241322 344.118472 
L 1099.993388 360.043809 
L 1120.745455 351.257542 
" style="fill:none;stroke:#808080;stroke-linecap:square;stroke-opacity:0.4;"/>
   </g>
   <g id="line2d_36">
    <path clip-path="url(#pc698994e70)" d="M 207.654545 399.488236 
L 228.406612 405.888781 
L 249.158678 406.125377 
L 269.910744 405.695191 
L 290.66281 409.181179 
L 311.414876 410.272445 
L 332.166942 410.930275 
L 352.919008 410.941804 
L 373.671074 411.259405 
L 394.42314 411.530128 
L 415.175207 408.101312 
L 435.927273 410.370329 
L 456.679339 410.082474 
L 477.431405 411.300144 
L 498.183471 409.832641 
L 518.935537 410.009688 
L 539.687603 409.094451 
L 560.439669 405.637324 
L 581.191736 406.254855 
L 601.943802 407.824998 
L 622.695868 408.081235 
L 643.447934 405.523114 
L 664.2 403.903298 
L 684.952066 402.241651 
L 705.704132 398.388583 
L 726.456198 403.994701 
L 747.208264 406.713077 
L 767.960331 408.089976 
L 788.712397 408.108911 
L 809.464463 410.183602 
L 830.216529 410.98529 
L 850.968595 409.543645 
L 871.720661 412.834823 
L 892.472727 415.544772 
L 913.224793 418.520934 
L 933.97686 418.871584 
L 954.728926 419.268042 
L 975.480992 417.994782 
L 996.233058 413.224927 
L 1016.985124 415.00449 
L 1037.73719 416.400083 
L 1058.489256 419.042057 
L 1079.241322 417.546215 
L 1099.993388 417.796516 
L 1120.745455 416.883631 
" style="fill:none;stroke:#808080;stroke-linecap:square;stroke-opacity:0.4;"/>
   </g>
   <g id="line2d_37">
    <path clip-path="url(#pc698994e70)" d="M 207.654545 361.682349 
L 228.406612 381.693397 
L 249.158678 396.617744 
L 269.910744 406.428953 
L 290.66281 414.00244 
L 311.414876 419.24923 
L 332.166942 422.445298 
L 352.919008 423.821279 
L 373.671074 429.609646 
L 394.42314 433.219551 
L 415.175207 434.623592 
L 435.927273 433.193199 
L 456.679339 433.593913 
L 477.431405 432.8424 
L 498.183471 428.408226 
L 518.935537 428.421087 
L 539.687603 428.045112 
L 560.439669 425.319549 
L 581.191736 422.53735 
L 601.943802 420.184861 
L 622.695868 419.400497 
L 643.447934 412.998383 
L 664.2 414.4275 
L 684.952066 416.308852 
L 705.704132 417.344 
L 726.456198 414.228524 
L 747.208264 413.965001 
L 767.960331 410.959692 
L 788.712397 400.892675 
L 809.464463 403.031604 
L 830.216529 410.788597 
L 850.968595 415.51446 
L 871.720661 418.351196 
L 892.472727 422.517598 
L 913.224793 423.320456 
L 933.97686 424.32973 
L 954.728926 431.092654 
L 975.480992 438.273254 
L 996.233058 440.92729 
L 1016.985124 441.170578 
L 1037.73719 439.39459 
L 1058.489256 439.412771 
L 1079.241322 434.5849 
L 1099.993388 430.207654 
L 1120.745455 425.677295 
" style="fill:none;stroke:#808080;stroke-linecap:square;stroke-opacity:0.4;"/>
   </g>
   <g id="line2d_38">
    <path clip-path="url(#pc698994e70)" d="M 207.654545 196.708899 
L 228.406612 209.251249 
L 249.158678 241.686495 
L 269.910744 239.006355 
L 290.66281 218.194278 
L 311.414876 166.150645 
L 332.166942 174.120158 
L 352.919008 226.086624 
L 373.671074 282.603818 
L 394.42314 324.539197 
L 415.175207 341.447122 
L 435.927273 362.86374 
L 456.679339 369.275052 
L 477.431405 385.310471 
L 498.183471 401.687606 
L 518.935537 411.117164 
L 539.687603 418.204096 
L 560.439669 424.309945 
L 581.191736 432.394633 
L 601.943802 439.41983 
L 622.695868 442.272497 
L 643.447934 445.422688 
L 664.2 446.780118 
L 684.952066 445.701708 
L 705.704132 447.502459 
L 726.456198 455.382977 
L 747.208264 457.224375 
L 767.960331 457.904584 
L 788.712397 460.182967 
L 809.464463 460.547546 
L 830.216529 461.626954 
L 850.968595 463.617048 
L 871.720661 463.886287 
L 892.472727 467.458515 
L 913.224793 466.675088 
L 933.97686 465.779445 
L 954.728926 469.682798 
L 975.480992 470.291069 
L 996.233058 467.396453 
L 1016.985124 472.316685 
L 1037.73719 472.20922 
L 1058.489256 464.608904 
L 1079.241322 457.330372 
L 1099.993388 464.265447 
L 1120.745455 466.26445 
" style="fill:none;stroke:#808080;stroke-linecap:square;stroke-opacity:0.4;"/>
   </g>
   <g id="line2d_39">
    <path clip-path="url(#pc698994e70)" d="M 207.654545 233.049639 
L 228.406612 207.531865 
L 249.158678 198.634937 
L 269.910744 301.687876 
L 290.66281 311.798967 
L 311.414876 324.923224 
L 332.166942 349.080519 
L 352.919008 358.398465 
L 373.671074 364.369225 
L 394.42314 382.038193 
L 415.175207 395.791181 
L 435.927273 393.975117 
L 456.679339 406.079991 
L 477.431405 406.216992 
L 498.183471 409.96657 
L 518.935537 415.698351 
L 539.687603 417.004306 
L 560.439669 419.439978 
L 581.191736 422.350734 
L 601.943802 420.157256 
L 622.695868 420.908901 
L 643.447934 425.541984 
L 664.2 426.168572 
L 684.952066 424.690712 
L 705.704132 428.141834 
L 726.456198 427.569055 
L 747.208264 428.586603 
L 767.960331 426.826165 
L 788.712397 423.869366 
L 809.464463 418.251528 
L 830.216529 420.154034 
L 850.968595 422.126051 
L 871.720661 426.271106 
L 892.472727 427.578984 
L 913.224793 423.041789 
L 933.97686 422.165896 
L 954.728926 423.430131 
L 975.480992 424.246357 
L 996.233058 421.507716 
L 1016.985124 428.907636 
L 1037.73719 428.35109 
L 1058.489256 430.063731 
L 1079.241322 429.226451 
L 1099.993388 428.453864 
L 1120.745455 428.583947 
" style="fill:none;stroke:#808080;stroke-linecap:square;stroke-opacity:0.4;"/>
   </g>
   <g id="line2d_40">
    <path clip-path="url(#pc698994e70)" d="M 207.654545 253.806201 
L 228.406612 272.084779 
L 249.158678 275.196627 
L 269.910744 287.435398 
L 290.66281 315.469949 
L 311.414876 300.51882 
L 332.166942 312.853503 
L 352.919008 309.956871 
L 373.671074 315.90545 
L 394.42314 309.82567 
L 415.175207 321.173283 
L 435.927273 330.016888 
L 456.679339 337.683555 
L 477.431405 347.427512 
L 498.183471 363.418378 
L 518.935537 378.120236 
L 539.687603 397.111562 
L 560.439669 404.323126 
L 581.191736 413.333906 
L 601.943802 415.913581 
L 622.695868 422.14441 
L 643.447934 423.403047 
L 664.2 428.471836 
L 684.952066 425.191937 
L 705.704132 420.32316 
L 726.456198 413.210022 
L 747.208264 413.269363 
L 767.960331 408.852383 
L 788.712397 410.670674 
L 809.464463 406.912481 
L 830.216529 404.509043 
L 850.968595 402.85178 
L 871.720661 405.511493 
L 892.472727 403.997296 
L 913.224793 411.33216 
L 933.97686 411.378511 
L 954.728926 410.861488 
L 975.480992 410.018318 
L 996.233058 408.854742 
L 1016.985124 402.534906 
L 1037.73719 400.658176 
L 1058.489256 392.515491 
L 1079.241322 391.758391 
L 1099.993388 402.402391 
L 1120.745455 407.441226 
" style="fill:none;stroke:#808080;stroke-linecap:square;stroke-opacity:0.4;"/>
   </g>
   <g id="line2d_41">
    <path clip-path="url(#pc698994e70)" d="M 321.247554 -1 
L 332.166942 61.225591 
L 352.919008 31.351675 
L 373.671074 65.030138 
L 394.42314 97.767451 
L 415.175207 149.577563 
L 435.927273 162.559378 
L 456.679339 152.878689 
L 477.431405 240.526108 
L 498.183471 265.779962 
L 518.935537 288.220291 
L 539.687603 300.209338 
L 560.439669 319.755521 
L 581.191736 324.266092 
L 601.943802 342.169257 
L 622.695868 355.740098 
L 643.447934 371.664509 
L 664.2 383.884365 
L 684.952066 391.120971 
L 705.704132 398.349606 
L 726.456198 405.706626 
L 747.208264 408.544455 
L 767.960331 413.184231 
L 788.712397 417.290346 
L 809.464463 419.521231 
L 830.216529 420.424017 
L 850.968595 421.932264 
L 871.720661 422.987501 
L 892.472727 421.219787 
L 913.224793 421.113142 
L 933.97686 418.895863 
L 954.728926 417.070571 
L 975.480992 417.566526 
L 996.233058 418.609246 
L 1016.985124 419.321915 
L 1037.73719 421.204063 
L 1058.489256 423.870639 
L 1079.241322 424.001917 
L 1099.993388 426.858198 
L 1120.745455 431.318203 
" style="fill:none;stroke:#808080;stroke-linecap:square;stroke-opacity:0.4;"/>
   </g>
   <g id="line2d_42">
    <path clip-path="url(#pc698994e70)" d="M 207.654545 255.560749 
L 228.406612 257.081918 
L 249.158678 241.032829 
L 269.910744 242.642285 
L 290.66281 252.876584 
L 311.414876 270.507541 
L 332.166942 300.8403 
L 352.919008 274.254967 
L 373.671074 288.666044 
L 394.42314 290.579508 
L 415.175207 279.786163 
L 435.927273 296.940525 
L 456.679339 338.053769 
L 477.431405 326.654032 
L 498.183471 324.252182 
L 518.935537 335.756371 
L 539.687603 334.250851 
L 560.439669 341.707441 
L 581.191736 339.876304 
L 601.943802 354.16634 
L 622.695868 351.136725 
L 643.447934 355.618622 
L 664.2 356.16646 
L 684.952066 370.785201 
L 705.704132 374.300603 
L 726.456198 384.510173 
L 747.208264 394.950462 
L 767.960331 400.689961 
L 788.712397 402.271954 
L 809.464463 409.07623 
L 830.216529 411.743946 
L 850.968595 415.51639 
L 871.720661 416.042034 
L 892.472727 417.700542 
L 913.224793 412.583768 
L 933.97686 405.527604 
L 954.728926 400.348914 
L 975.480992 399.868982 
L 996.233058 399.822234 
L 1016.985124 402.720042 
L 1037.73719 400.908219 
L 1058.489256 399.090896 
L 1079.241322 393.705481 
L 1099.993388 391.773581 
L 1120.745455 395.242808 
" style="fill:none;stroke:#808080;stroke-linecap:square;stroke-opacity:0.4;"/>
   </g>
   <g id="line2d_43">
    <path clip-path="url(#pc698994e70)" d="M 207.654545 103.218209 
L 228.406612 13.823374 
L 230.43142 -1 
M 325.147537 -1 
L 332.166942 38.66952 
L 352.919008 129.82719 
L 373.671074 192.591453 
L 394.42314 243.675915 
L 415.175207 268.019662 
L 435.927273 286.364068 
L 456.679339 311.126742 
L 477.431405 334.203719 
L 498.183471 349.836543 
L 518.935537 359.404355 
L 539.687603 366.048879 
L 560.439669 373.64585 
L 581.191736 380.654989 
L 601.943802 388.702987 
L 622.695868 395.233346 
L 643.447934 397.951378 
L 664.2 398.081998 
L 684.952066 399.365893 
L 705.704132 402.332109 
L 726.456198 409.462204 
L 747.208264 415.482643 
L 767.960331 420.51044 
L 788.712397 423.602493 
L 809.464463 426.192971 
L 830.216529 428.418102 
L 850.968595 432.695089 
L 871.720661 436.061892 
L 892.472727 438.269281 
L 913.224793 439.365428 
L 933.97686 440.660242 
L 954.728926 441.048624 
L 975.480992 438.530581 
L 996.233058 432.119358 
L 1016.985124 427.10342 
L 1037.73719 423.555338 
L 1058.489256 423.94287 
L 1079.241322 430.245626 
L 1099.993388 432.240629 
L 1120.745455 431.988577 
" style="fill:none;stroke:#808080;stroke-linecap:square;stroke-opacity:0.4;"/>
   </g>
   <g id="line2d_44">
    <path clip-path="url(#pc698994e70)" d="M 207.654545 321.401595 
L 228.406612 321.608469 
L 249.158678 327.180194 
L 269.910744 358.680462 
L 290.66281 377.790571 
L 311.414876 392.272767 
L 332.166942 399.265302 
L 352.919008 404.079923 
L 373.671074 405.490111 
L 394.42314 402.975077 
L 415.175207 407.422485 
L 435.927273 411.433568 
L 456.679339 410.721977 
L 477.431405 407.425981 
L 498.183471 406.103856 
L 518.935537 401.16326 
L 539.687603 388.502693 
L 560.439669 395.725864 
L 581.191736 397.826089 
L 601.943802 399.628681 
L 622.695868 403.431437 
L 643.447934 407.273242 
L 664.2 405.172299 
L 684.952066 400.329461 
L 705.704132 401.854018 
L 726.456198 404.910554 
L 747.208264 408.698466 
L 767.960331 414.068109 
L 788.712397 412.058715 
L 809.464463 407.368071 
L 830.216529 393.336599 
L 850.968595 395.069595 
L 871.720661 400.533898 
L 892.472727 401.284913 
L 913.224793 401.202749 
L 933.97686 406.360126 
L 954.728926 407.169345 
L 975.480992 404.079024 
L 996.233058 412.208771 
L 1016.985124 417.084963 
L 1037.73719 415.784742 
L 1058.489256 417.712622 
L 1079.241322 417.169617 
L 1099.993388 412.517363 
L 1120.745455 404.189126 
" style="fill:none;stroke:#808080;stroke-linecap:square;stroke-opacity:0.4;"/>
   </g>
   <g id="line2d_45">
    <path clip-path="url(#pc698994e70)" d="M 207.654545 95.602193 
L 228.406612 78.997577 
L 249.158678 56.107256 
L 269.910744 50.283052 
L 290.66281 69.475812 
L 311.414876 118.825532 
L 332.166942 180.18114 
L 352.919008 215.703834 
L 373.671074 217.144671 
L 394.42314 233.894865 
L 415.175207 249.609082 
L 435.927273 268.802313 
L 456.679339 301.809134 
L 477.431405 317.264272 
L 498.183471 326.517111 
L 518.935537 336.145962 
L 539.687603 345.023489 
L 560.439669 357.591757 
L 581.191736 369.051585 
L 601.943802 379.681728 
L 622.695868 388.511259 
L 643.447934 393.531987 
L 664.2 400.656858 
L 684.952066 406.673352 
L 705.704132 411.572921 
L 726.456198 414.610758 
L 747.208264 415.710565 
L 767.960331 414.440942 
L 788.712397 408.682822 
L 809.464463 401.266019 
L 830.216529 382.612967 
L 850.968595 364.960489 
L 871.720661 351.584271 
L 892.472727 346.11901 
L 913.224793 358.770207 
L 933.97686 375.902053 
L 954.728926 392.265564 
L 975.480992 402.880754 
L 996.233058 411.074938 
L 1016.985124 422.737537 
L 1037.73719 433.789548 
L 1058.489256 442.347231 
L 1079.241322 444.931287 
L 1099.993388 444.480893 
L 1120.745455 441.505696 
" style="fill:none;stroke:#808080;stroke-linecap:square;stroke-opacity:0.4;"/>
   </g>
   <g id="line2d_46">
    <path clip-path="url(#pc698994e70)" d="M 207.654545 246.553553 
L 228.406612 242.126415 
L 249.158678 279.890498 
L 269.910744 273.315963 
L 290.66281 280.283923 
L 311.414876 294.656777 
L 332.166942 292.337438 
L 352.919008 284.346872 
L 373.671074 283.509972 
L 394.42314 262.875282 
L 415.175207 288.834461 
L 435.927273 303.846867 
L 456.679339 341.29899 
L 477.431405 348.019584 
L 498.183471 358.670147 
L 518.935537 361.594267 
L 539.687603 375.697936 
L 560.439669 380.960897 
L 581.191736 393.761798 
L 601.943802 401.71502 
L 622.695868 411.203784 
L 643.447934 416.563888 
L 664.2 422.323913 
L 684.952066 421.822355 
L 705.704132 424.594864 
L 726.456198 425.237685 
L 747.208264 427.419691 
L 767.960331 429.060729 
L 788.712397 432.026722 
L 809.464463 430.867322 
L 830.216529 432.379766 
L 850.968595 429.508031 
L 871.720661 431.13957 
L 892.472727 428.56378 
L 913.224793 428.004006 
L 933.97686 427.485437 
L 954.728926 425.113337 
L 975.480992 422.07875 
L 996.233058 419.990778 
L 1016.985124 423.121876 
L 1037.73719 421.363231 
L 1058.489256 421.25397 
L 1079.241322 420.22194 
L 1099.993388 419.023993 
L 1120.745455 420.037195 
" style="fill:none;stroke:#808080;stroke-linecap:square;stroke-opacity:0.4;"/>
   </g>
   <g id="line2d_47">
    <path clip-path="url(#pc698994e70)" d="M 207.654545 133.5083 
L 228.406612 160.491936 
L 249.158678 230.366498 
L 269.910744 256.613176 
L 290.66281 268.108257 
L 311.414876 279.488813 
L 332.166942 285.980816 
L 352.919008 292.374179 
L 373.671074 305.136138 
L 394.42314 319.888755 
L 415.175207 334.366337 
L 435.927273 347.574512 
L 456.679339 356.223216 
L 477.431405 364.028939 
L 498.183471 374.255915 
L 518.935537 383.376949 
L 539.687603 395.577942 
L 560.439669 405.671168 
L 581.191736 413.883434 
L 601.943802 418.239994 
L 622.695868 422.678606 
L 643.447934 425.622832 
L 664.2 428.172564 
L 684.952066 429.172755 
L 705.704132 430.645217 
L 726.456198 431.126304 
L 747.208264 429.727109 
L 767.960331 426.47333 
L 788.712397 425.026321 
L 809.464463 422.992553 
L 830.216529 423.292345 
L 850.968595 424.315273 
L 871.720661 425.215978 
L 892.472727 424.01677 
L 913.224793 423.271542 
L 933.97686 424.717195 
L 954.728926 426.397057 
L 975.480992 427.684474 
L 996.233058 427.845338 
L 1016.985124 429.720457 
L 1037.73719 430.29848 
L 1058.489256 429.28898 
L 1079.241322 428.232362 
L 1099.993388 427.8011 
L 1120.745455 426.603891 
" style="fill:none;stroke:#808080;stroke-linecap:square;stroke-opacity:0.4;"/>
   </g>
   <g id="line2d_48">
    <path clip-path="url(#pc698994e70)" d="M 207.654545 292.304639 
L 228.406612 288.071381 
L 249.158678 308.377122 
L 269.910744 298.492739 
L 290.66281 265.923618 
L 311.414876 256.619248 
L 332.166942 265.070946 
L 352.919008 262.286522 
L 373.671074 288.369394 
L 394.42314 322.04503 
L 415.175207 328.948292 
L 435.927273 327.265539 
L 456.679339 328.937635 
L 477.431405 315.531511 
L 498.183471 309.805004 
L 518.935537 308.179711 
L 539.687603 310.183413 
L 560.439669 317.053165 
L 581.191736 327.528286 
L 601.943802 339.914651 
L 622.695868 353.498022 
L 643.447934 370.449513 
L 664.2 375.891213 
L 684.952066 383.701176 
L 705.704132 387.881097 
L 726.456198 393.418932 
L 747.208264 400.646554 
L 767.960331 407.05898 
L 788.712397 407.364868 
L 809.464463 405.549611 
L 830.216529 404.018332 
L 850.968595 404.600962 
L 871.720661 406.60124 
L 892.472727 410.206243 
L 913.224793 411.51568 
L 933.97686 415.185351 
L 954.728926 416.989088 
L 975.480992 421.081186 
L 996.233058 423.277424 
L 1016.985124 427.873723 
L 1037.73719 431.061939 
L 1058.489256 434.129612 
L 1079.241322 434.711931 
L 1099.993388 432.817113 
L 1120.745455 430.344892 
" style="fill:none;stroke:#808080;stroke-linecap:square;stroke-opacity:0.4;"/>
   </g>
   <g id="line2d_49">
    <path clip-path="url(#pc698994e70)" d="M 207.654545 325.507084 
L 228.406612 329.882483 
L 249.158678 339.842835 
L 269.910744 352.293917 
L 290.66281 367.390617 
L 311.414876 374.040495 
L 332.166942 386.132299 
L 352.919008 385.645945 
L 373.671074 394.212454 
L 394.42314 402.788179 
L 415.175207 410.56319 
L 435.927273 419.280046 
L 456.679339 427.580949 
L 477.431405 429.289277 
L 498.183471 430.011361 
L 518.935537 430.422363 
L 539.687603 429.218223 
L 560.439669 427.974214 
L 581.191736 433.596516 
L 601.943802 431.009819 
L 622.695868 431.151666 
L 643.447934 428.941485 
L 664.2 421.769036 
L 684.952066 422.148261 
L 705.704132 418.354562 
L 726.456198 412.167651 
L 747.208264 413.638331 
L 767.960331 418.359013 
L 788.712397 418.287788 
L 809.464463 419.215778 
L 830.216529 420.016423 
L 850.968595 415.141258 
L 871.720661 420.400067 
L 892.472727 424.421333 
L 913.224793 427.122968 
L 933.97686 428.308826 
L 954.728926 424.124524 
L 975.480992 422.05194 
L 996.233058 421.060128 
L 1016.985124 422.456999 
L 1037.73719 421.903459 
L 1058.489256 420.990384 
L 1079.241322 415.225759 
L 1099.993388 410.465129 
L 1120.745455 408.188268 
" style="fill:none;stroke:#808080;stroke-linecap:square;stroke-opacity:0.4;"/>
   </g>
   <g id="line2d_50">
    <path clip-path="url(#pc698994e70)" d="M 207.654545 350.091667 
L 228.406612 367.002168 
L 249.158678 379.337639 
L 269.910744 388.637356 
L 290.66281 394.239398 
L 311.414876 399.66257 
L 332.166942 400.807747 
L 352.919008 409.056106 
L 373.671074 415.528795 
L 394.42314 419.227523 
L 415.175207 420.679207 
L 435.927273 425.488979 
L 456.679339 428.40731 
L 477.431405 427.510322 
L 498.183471 432.368999 
L 518.935537 435.285196 
L 539.687603 434.937222 
L 560.439669 432.185463 
L 581.191736 428.14419 
L 601.943802 425.442312 
L 622.695868 414.382663 
L 643.447934 411.535207 
L 664.2 406.040909 
L 684.952066 397.011213 
L 705.704132 384.850845 
L 726.456198 380.944978 
L 747.208264 383.127707 
L 767.960331 373.700566 
L 788.712397 388.849897 
L 809.464463 393.762692 
L 830.216529 400.473483 
L 850.968595 398.209388 
L 871.720661 396.605236 
L 892.472727 393.19257 
L 913.224793 383.354549 
L 933.97686 385.721117 
L 954.728926 404.481734 
L 975.480992 417.46071 
L 996.233058 419.920002 
L 1016.985124 420.135039 
L 1037.73719 419.220219 
L 1058.489256 414.353182 
L 1079.241322 422.547935 
L 1099.993388 429.065942 
L 1120.745455 433.8465 
" style="fill:none;stroke:#808080;stroke-linecap:square;stroke-opacity:0.4;"/>
   </g>
   <g id="line2d_51">
    <path clip-path="url(#pc698994e70)" d="M 219.582866 -1 
L 228.406612 154.079432 
L 249.158678 203.070586 
L 269.910744 265.527607 
L 290.66281 283.1624 
L 311.414876 288.372621 
L 332.166942 312.925574 
L 352.919008 319.024764 
L 373.671074 325.541965 
L 394.42314 348.82701 
L 415.175207 358.664227 
L 435.927273 364.105538 
L 456.679339 373.08945 
L 477.431405 374.513064 
L 498.183471 366.380249 
L 518.935537 373.917003 
L 539.687603 382.293492 
L 560.439669 389.015136 
L 581.191736 402.258785 
L 601.943802 405.820369 
L 622.695868 411.668102 
L 643.447934 414.057544 
L 664.2 416.745782 
L 684.952066 421.52299 
L 705.704132 427.097839 
L 726.456198 428.417245 
L 747.208264 429.428314 
L 767.960331 429.35854 
L 788.712397 425.910006 
L 809.464463 423.254609 
L 830.216529 423.608642 
L 850.968595 418.655084 
L 871.720661 417.077702 
L 892.472727 414.795716 
L 913.224793 415.330439 
L 933.97686 411.594671 
L 954.728926 408.788881 
L 975.480992 406.172595 
L 996.233058 405.270671 
L 1016.985124 405.642865 
L 1037.73719 409.183699 
L 1058.489256 410.888884 
L 1079.241322 409.591114 
L 1099.993388 410.044709 
L 1120.745455 411.481031 
" style="fill:none;stroke:#808080;stroke-linecap:square;stroke-opacity:0.4;"/>
   </g>
   <g id="line2d_52">
    <path clip-path="url(#pc698994e70)" d="M 207.654545 87.997354 
L 228.406612 169.330106 
L 249.158678 183.507469 
L 269.910744 231.655271 
L 290.66281 310.169123 
L 311.414876 279.701162 
L 332.166942 287.833561 
L 352.919008 295.404725 
L 373.671074 309.135969 
L 394.42314 332.408192 
L 415.175207 368.985119 
L 435.927273 358.79512 
L 456.679339 366.849552 
L 477.431405 366.85175 
L 498.183471 379.483756 
L 518.935537 385.864811 
L 539.687603 397.900873 
L 560.439669 401.986713 
L 581.191736 410.939453 
L 601.943802 414.872751 
L 622.695868 422.514949 
L 643.447934 431.015244 
L 664.2 430.458984 
L 684.952066 426.485736 
L 705.704132 432.942049 
L 726.456198 428.469073 
L 747.208264 424.216148 
L 767.960331 422.730726 
L 788.712397 420.877743 
L 809.464463 408.667321 
L 830.216529 400.695491 
L 850.968595 404.131606 
L 871.720661 403.168358 
L 892.472727 399.102147 
L 913.224793 397.360178 
L 933.97686 404.44878 
L 954.728926 401.219847 
L 975.480992 403.270928 
L 996.233058 415.128652 
L 1016.985124 417.362248 
L 1037.73719 412.526051 
L 1058.489256 413.881093 
L 1079.241322 417.15879 
L 1099.993388 416.881912 
L 1120.745455 415.751475 
" style="fill:none;stroke:#808080;stroke-linecap:square;stroke-opacity:0.4;"/>
   </g>
   <g id="line2d_53">
    <path clip-path="url(#pc698994e70)" d="M 207.654545 23.477382 
L 215.318282 -1 
M 253.874643 -1 
L 269.910744 118.294529 
L 290.66281 207.335154 
L 311.414876 163.793348 
L 332.166942 228.031956 
L 352.919008 258.766735 
L 373.671074 297.804923 
L 394.42314 330.374235 
L 415.175207 348.011862 
L 435.927273 362.897387 
L 456.679339 370.6711 
L 477.431405 370.217799 
L 498.183471 376.792394 
L 518.935537 379.121798 
L 539.687603 373.896557 
L 560.439669 381.135523 
L 581.191736 400.213813 
L 601.943802 405.000538 
L 622.695868 407.85937 
L 643.447934 411.271007 
L 664.2 415.549831 
L 684.952066 424.751823 
L 705.704132 438.985018 
L 726.456198 447.721274 
L 747.208264 453.477125 
L 767.960331 457.165645 
L 788.712397 460.169356 
L 809.464463 465.64622 
L 830.216529 469.425943 
L 850.968595 468.31567 
L 871.720661 469.066383 
L 892.472727 470.572691 
L 913.224793 467.626497 
L 933.97686 465.263326 
L 954.728926 465.126359 
L 975.480992 456.627455 
L 996.233058 451.566861 
L 1016.985124 452.517803 
L 1037.73719 442.146749 
L 1058.489256 439.701817 
L 1079.241322 434.502793 
L 1099.993388 425.060699 
L 1120.745455 419.543064 
" style="fill:none;stroke:#808080;stroke-linecap:square;stroke-opacity:0.4;"/>
   </g>
   <g id="line2d_54">
    <path clip-path="url(#pc698994e70)" d="M 207.654545 270.188927 
L 228.406612 262.793852 
L 249.158678 279.195225 
L 269.910744 283.41139 
L 290.66281 297.033936 
L 311.414876 257.4303 
L 332.166942 261.038364 
L 352.919008 311.464337 
L 373.671074 289.009353 
L 394.42314 335.183148 
L 415.175207 335.589178 
L 435.927273 345.958505 
L 456.679339 329.21749 
L 477.431405 341.202098 
L 498.183471 364.435589 
L 518.935537 378.557388 
L 539.687603 379.332583 
L 560.439669 381.434779 
L 581.191736 391.121428 
L 601.943802 386.829685 
L 622.695868 392.908197 
L 643.447934 404.951039 
L 664.2 404.128888 
L 684.952066 402.414636 
L 705.704132 399.081561 
L 726.456198 409.584944 
L 747.208264 408.186426 
L 767.960331 394.30892 
L 788.712397 395.924235 
L 809.464463 399.522019 
L 830.216529 386.500713 
L 850.968595 397.838604 
L 871.720661 402.38153 
L 892.472727 399.915877 
L 913.224793 386.044967 
L 933.97686 397.579851 
L 954.728926 402.903813 
L 975.480992 403.258291 
L 996.233058 405.078037 
L 1016.985124 409.41109 
L 1037.73719 411.507744 
L 1058.489256 409.344814 
L 1079.241322 420.857339 
L 1099.993388 420.91823 
L 1120.745455 411.070095 
" style="fill:none;stroke:#808080;stroke-linecap:square;stroke-opacity:0.4;"/>
   </g>
   <g id="line2d_55">
    <path clip-path="url(#pc698994e70)" d="M 207.654545 332.857438 
L 228.406612 335.991173 
L 249.158678 343.300046 
L 269.910744 350.389096 
L 290.66281 356.632595 
L 311.414876 358.925531 
L 332.166942 361.23612 
L 352.919008 345.693851 
L 373.671074 346.486477 
L 394.42314 338.367289 
L 415.175207 331.069948 
L 435.927273 349.57494 
L 456.679339 361.901859 
L 477.431405 368.10847 
L 498.183471 377.212936 
L 518.935537 382.051743 
L 539.687603 390.078082 
L 560.439669 399.402902 
L 581.191736 408.925118 
L 601.943802 413.229633 
L 622.695868 420.891355 
L 643.447934 423.906287 
L 664.2 428.345351 
L 684.952066 432.052856 
L 705.704132 431.867065 
L 726.456198 432.737547 
L 747.208264 434.458574 
L 767.960331 437.04535 
L 788.712397 437.528398 
L 809.464463 436.18707 
L 830.216529 435.360594 
L 850.968595 433.461012 
L 871.720661 434.475583 
L 892.472727 432.85745 
L 913.224793 433.037078 
L 933.97686 431.506398 
L 954.728926 431.0595 
L 975.480992 430.206376 
L 996.233058 427.896707 
L 1016.985124 428.195957 
L 1037.73719 426.27779 
L 1058.489256 428.29601 
L 1079.241322 427.266548 
L 1099.993388 424.275437 
L 1120.745455 420.83029 
" style="fill:none;stroke:#808080;stroke-linecap:square;stroke-opacity:0.4;"/>
   </g>
   <g id="line2d_56">
    <path clip-path="url(#pc698994e70)" d="M 207.654545 504 
L 215.065353 -1 
M 356.874466 -1 
L 373.671074 175.106265 
L 394.42314 215.438833 
L 415.175207 288.49005 
L 435.927273 314.331549 
L 456.679339 327.618149 
L 477.431405 333.602593 
L 498.183471 346.172999 
L 518.935537 347.573095 
L 539.687603 360.804984 
L 560.439669 360.25451 
L 581.191736 362.291731 
L 601.943802 365.62304 
L 622.695868 368.172727 
L 643.447934 359.886643 
L 664.2 378.806169 
L 684.952066 370.278586 
L 705.704132 397.448915 
L 726.456198 407.636684 
L 747.208264 412.368819 
L 767.960331 415.446373 
L 788.712397 419.00091 
L 809.464463 426.72781 
L 830.216529 431.15875 
L 850.968595 431.523523 
L 871.720661 427.183973 
L 892.472727 428.166404 
L 913.224793 431.89424 
L 933.97686 432.491313 
L 954.728926 435.813576 
L 975.480992 429.284091 
L 996.233058 428.85804 
L 1016.985124 437.291572 
L 1037.73719 441.393608 
L 1058.489256 446.452211 
L 1079.241322 440.442215 
L 1099.993388 442.932786 
L 1120.745455 441.29506 
" style="fill:none;stroke:#808080;stroke-linecap:square;stroke-opacity:0.4;"/>
   </g>
   <g id="line2d_57">
    <path clip-path="url(#pc698994e70)" d="M 207.654545 114.053234 
L 228.406612 109.753195 
L 249.158678 194.874643 
L 269.910744 231.787954 
L 290.66281 271.07274 
L 311.414876 305.45383 
L 332.166942 293.566368 
L 352.919008 298.284444 
L 373.671074 325.828896 
L 394.42314 343.531098 
L 415.175207 354.594315 
L 435.927273 363.737386 
L 456.679339 345.243197 
L 477.431405 362.310305 
L 498.183471 368.998518 
L 518.935537 378.249162 
L 539.687603 385.587007 
L 560.439669 390.612308 
L 581.191736 395.149407 
L 601.943802 404.224214 
L 622.695868 411.710941 
L 643.447934 414.911771 
L 664.2 420.817183 
L 684.952066 424.09213 
L 705.704132 427.844883 
L 726.456198 434.1896 
L 747.208264 431.051974 
L 767.960331 429.391473 
L 788.712397 426.760997 
L 809.464463 425.383183 
L 830.216529 424.180092 
L 850.968595 420.46362 
L 871.720661 416.372531 
L 892.472727 408.595661 
L 913.224793 401.338363 
L 933.97686 390.779379 
L 954.728926 390.587138 
L 975.480992 387.119794 
L 996.233058 391.018157 
L 1016.985124 396.022205 
L 1037.73719 394.56369 
L 1058.489256 389.354199 
L 1079.241322 386.355095 
L 1099.993388 386.154807 
L 1120.745455 390.240446 
" style="fill:none;stroke:#808080;stroke-linecap:square;stroke-opacity:0.4;"/>
   </g>
   <g id="line2d_58">
    <path clip-path="url(#pc698994e70)" d="M 207.654545 167.587824 
L 228.406612 137.925326 
L 249.158678 192.611662 
L 269.910744 224.800943 
L 290.66281 240.203077 
L 311.414876 246.496117 
L 332.166942 265.720058 
L 352.919008 277.691142 
L 373.671074 301.203842 
L 394.42314 318.743303 
L 415.175207 333.607916 
L 435.927273 342.107286 
L 456.679339 351.657007 
L 477.431405 360.289326 
L 498.183471 367.970157 
L 518.935537 374.585764 
L 539.687603 382.079835 
L 560.439669 386.552369 
L 581.191736 393.517973 
L 601.943802 397.436188 
L 622.695868 401.01036 
L 643.447934 404.782405 
L 664.2 408.856408 
L 684.952066 410.914701 
L 705.704132 413.872826 
L 726.456198 416.805622 
L 747.208264 418.573564 
L 767.960331 419.267211 
L 788.712397 420.367715 
L 809.464463 420.18425 
L 830.216529 418.753054 
L 850.968595 418.238129 
L 871.720661 417.967791 
L 892.472727 417.244981 
L 913.224793 415.668329 
L 933.97686 416.268169 
L 954.728926 416.26382 
L 975.480992 416.005316 
L 996.233058 415.62565 
L 1016.985124 417.724337 
L 1037.73719 418.498396 
L 1058.489256 418.830059 
L 1079.241322 419.136256 
L 1099.993388 419.496846 
L 1120.745455 419.35277 
" style="fill:none;stroke:#0000ff;stroke-linecap:square;stroke-width:6;"/>
   </g>
   <g id="patch_3">
    <path d="M 162 504 
L 162 69.12 
" style="fill:none;stroke:#000000;stroke-linecap:square;stroke-linejoin:miter;stroke-width:0.8;"/>
   </g>
   <g id="patch_4">
    <path d="M 1166.4 504 
L 1166.4 69.12 
" style="fill:none;stroke:#000000;stroke-linecap:square;stroke-linejoin:miter;stroke-width:0.8;"/>
   </g>
   <g id="patch_5">
    <path d="M 162 504 
L 1166.4 504 
" style="fill:none;stroke:#000000;stroke-linecap:square;stroke-linejoin:miter;stroke-width:0.8;"/>
   </g>
   <g id="patch_6">
    <path d="M 162 69.12 
L 1166.4 69.12 
" style="fill:none;stroke:#000000;stroke-linecap:square;stroke-linejoin:miter;stroke-width:0.8;"/>
   </g>
   <g id="legend_1">
    <g id="patch_7">
     <path d="M 888.696875 173.18875 
L 1152.4 173.18875 
Q 1156.4 173.18875 1156.4 169.18875 
L 1156.4 83.12 
Q 1156.4 79.12 1152.4 79.12 
L 888.696875 79.12 
Q 884.696875 79.12 884.696875 83.12 
L 884.696875 169.18875 
Q 884.696875 173.18875 888.696875 173.18875 
z
" style="fill:#ffffff;opacity:0.8;stroke:#cccccc;stroke-linejoin:miter;"/>
    </g>
    <g id="patch_8">
     <path d="M 892.696875 102.316875 
L 932.696875 102.316875 
L 932.696875 88.316875 
L 892.696875 88.316875 
z
" style="fill:#0000ff;stroke:#0000ff;stroke-linejoin:miter;"/>
    </g>
    <g id="text_15">
     <!-- US Average -->
     <g transform="translate(948.696875 102.316875)scale(0.2 -0.2)">
      <defs>
       <path d="M 8.6875 72.90625 
L 18.609375 72.90625 
L 18.609375 28.609375 
Q 18.609375 16.890625 22.84375 11.734375 
Q 27.09375 6.59375 36.625 6.59375 
Q 46.09375 6.59375 50.34375 11.734375 
Q 54.59375 16.890625 54.59375 28.609375 
L 54.59375 72.90625 
L 64.5 72.90625 
L 64.5 27.390625 
Q 64.5 13.140625 57.4375 5.859375 
Q 50.390625 -1.421875 36.625 -1.421875 
Q 22.796875 -1.421875 15.734375 5.859375 
Q 8.6875 13.140625 8.6875 27.390625 
z
" id="DejaVuSans-85"/>
       <path d="M 53.515625 70.515625 
L 53.515625 60.890625 
Q 47.90625 63.578125 42.921875 64.890625 
Q 37.9375 66.21875 33.296875 66.21875 
Q 25.25 66.21875 20.875 63.09375 
Q 16.5 59.96875 16.5 54.203125 
Q 16.5 49.359375 19.40625 46.890625 
Q 22.3125 44.4375 30.421875 42.921875 
L 36.375 41.703125 
Q 47.40625 39.59375 52.65625 34.296875 
Q 57.90625 29 57.90625 20.125 
Q 57.90625 9.515625 50.796875 4.046875 
Q 43.703125 -1.421875 29.984375 -1.421875 
Q 24.8125 -1.421875 18.96875 -0.25 
Q 13.140625 0.921875 6.890625 3.21875 
L 6.890625 13.375 
Q 12.890625 10.015625 18.65625 8.296875 
Q 24.421875 6.59375 29.984375 6.59375 
Q 38.421875 6.59375 43.015625 9.90625 
Q 47.609375 13.234375 47.609375 19.390625 
Q 47.609375 24.75 44.3125 27.78125 
Q 41.015625 30.8125 33.5 32.328125 
L 27.484375 33.5 
Q 16.453125 35.6875 11.515625 40.375 
Q 6.59375 45.0625 6.59375 53.421875 
Q 6.59375 63.09375 13.40625 68.65625 
Q 20.21875 74.21875 32.171875 74.21875 
Q 37.3125 74.21875 42.625 73.28125 
Q 47.953125 72.359375 53.515625 70.515625 
z
" id="DejaVuSans-83"/>
       <path id="DejaVuSans-32"/>
       <path d="M 34.1875 63.1875 
L 20.796875 26.90625 
L 47.609375 26.90625 
z
M 28.609375 72.90625 
L 39.796875 72.90625 
L 67.578125 0 
L 57.328125 0 
L 50.6875 18.703125 
L 17.828125 18.703125 
L 11.1875 0 
L 0.78125 0 
z
" id="DejaVuSans-65"/>
       <path d="M 2.984375 54.6875 
L 12.5 54.6875 
L 29.59375 8.796875 
L 46.6875 54.6875 
L 56.203125 54.6875 
L 35.6875 0 
L 23.484375 0 
z
" id="DejaVuSans-118"/>
       <path d="M 56.203125 29.59375 
L 56.203125 25.203125 
L 14.890625 25.203125 
Q 15.484375 15.921875 20.484375 11.0625 
Q 25.484375 6.203125 34.421875 6.203125 
Q 39.59375 6.203125 44.453125 7.46875 
Q 49.3125 8.734375 54.109375 11.28125 
L 54.109375 2.78125 
Q 49.265625 0.734375 44.1875 -0.34375 
Q 39.109375 -1.421875 33.890625 -1.421875 
Q 20.796875 -1.421875 13.15625 6.1875 
Q 5.515625 13.8125 5.515625 26.8125 
Q 5.515625 40.234375 12.765625 48.109375 
Q 20.015625 56 32.328125 56 
Q 43.359375 56 49.78125 48.890625 
Q 56.203125 41.796875 56.203125 29.59375 
z
M 47.21875 32.234375 
Q 47.125 39.59375 43.09375 43.984375 
Q 39.0625 48.390625 32.421875 48.390625 
Q 24.90625 48.390625 20.390625 44.140625 
Q 15.875 39.890625 15.1875 32.171875 
z
" id="DejaVuSans-101"/>
       <path d="M 41.109375 46.296875 
Q 39.59375 47.171875 37.8125 47.578125 
Q 36.03125 48 33.890625 48 
Q 26.265625 48 22.1875 43.046875 
Q 18.109375 38.09375 18.109375 28.8125 
L 18.109375 0 
L 9.078125 0 
L 9.078125 54.6875 
L 18.109375 54.6875 
L 18.109375 46.1875 
Q 20.953125 51.171875 25.484375 53.578125 
Q 30.03125 56 36.53125 56 
Q 37.453125 56 38.578125 55.875 
Q 39.703125 55.765625 41.0625 55.515625 
z
" id="DejaVuSans-114"/>
       <path d="M 34.28125 27.484375 
Q 23.390625 27.484375 19.1875 25 
Q 14.984375 22.515625 14.984375 16.5 
Q 14.984375 11.71875 18.140625 8.90625 
Q 21.296875 6.109375 26.703125 6.109375 
Q 34.1875 6.109375 38.703125 11.40625 
Q 43.21875 16.703125 43.21875 25.484375 
L 43.21875 27.484375 
z
M 52.203125 31.203125 
L 52.203125 0 
L 43.21875 0 
L 43.21875 8.296875 
Q 40.140625 3.328125 35.546875 0.953125 
Q 30.953125 -1.421875 24.3125 -1.421875 
Q 15.921875 -1.421875 10.953125 3.296875 
Q 6 8.015625 6 15.921875 
Q 6 25.140625 12.171875 29.828125 
Q 18.359375 34.515625 30.609375 34.515625 
L 43.21875 34.515625 
L 43.21875 35.40625 
Q 43.21875 41.609375 39.140625 45 
Q 35.0625 48.390625 27.6875 48.390625 
Q 23 48.390625 18.546875 47.265625 
Q 14.109375 46.140625 10.015625 43.890625 
L 10.015625 52.203125 
Q 14.9375 54.109375 19.578125 55.046875 
Q 24.21875 56 28.609375 56 
Q 40.484375 56 46.34375 49.84375 
Q 52.203125 43.703125 52.203125 31.203125 
z
" id="DejaVuSans-97"/>
       <path d="M 45.40625 27.984375 
Q 45.40625 37.75 41.375 43.109375 
Q 37.359375 48.484375 30.078125 48.484375 
Q 22.859375 48.484375 18.828125 43.109375 
Q 14.796875 37.75 14.796875 27.984375 
Q 14.796875 18.265625 18.828125 12.890625 
Q 22.859375 7.515625 30.078125 7.515625 
Q 37.359375 7.515625 41.375 12.890625 
Q 45.40625 18.265625 45.40625 27.984375 
z
M 54.390625 6.78125 
Q 54.390625 -7.171875 48.1875 -13.984375 
Q 42 -20.796875 29.203125 -20.796875 
Q 24.46875 -20.796875 20.265625 -20.09375 
Q 16.0625 -19.390625 12.109375 -17.921875 
L 12.109375 -9.1875 
Q 16.0625 -11.328125 19.921875 -12.34375 
Q 23.78125 -13.375 27.78125 -13.375 
Q 36.625 -13.375 41.015625 -8.765625 
Q 45.40625 -4.15625 45.40625 5.171875 
L 45.40625 9.625 
Q 42.625 4.78125 38.28125 2.390625 
Q 33.9375 0 27.875 0 
Q 17.828125 0 11.671875 7.65625 
Q 5.515625 15.328125 5.515625 27.984375 
Q 5.515625 40.671875 11.671875 48.328125 
Q 17.828125 56 27.875 56 
Q 33.9375 56 38.28125 53.609375 
Q 42.625 51.21875 45.40625 46.390625 
L 45.40625 54.6875 
L 54.390625 54.6875 
z
" id="DejaVuSans-103"/>
      </defs>
      <use xlink:href="#DejaVuSans-85"/>
      <use x="73.193359" xlink:href="#DejaVuSans-83"/>
      <use x="136.669922" xlink:href="#DejaVuSans-32"/>
      <use x="168.457031" xlink:href="#DejaVuSans-65"/>
      <use x="230.990234" xlink:href="#DejaVuSans-118"/>
      <use x="290.169922" xlink:href="#DejaVuSans-101"/>
      <use x="351.693359" xlink:href="#DejaVuSans-114"/>
      <use x="392.806641" xlink:href="#DejaVuSans-97"/>
      <use x="454.085938" xlink:href="#DejaVuSans-103"/>
      <use x="517.5625" xlink:href="#DejaVuSans-101"/>
     </g>
    </g>
    <g id="patch_9">
     <path d="M 892.696875 131.673125 
L 932.696875 131.673125 
L 932.696875 117.673125 
L 892.696875 117.673125 
z
" style="fill:#808080;stroke:#808080;stroke-linejoin:miter;"/>
    </g>
    <g id="text_16">
     <!-- Individual States -->
     <g transform="translate(948.696875 131.673125)scale(0.2 -0.2)">
      <defs>
       <path d="M 9.8125 72.90625 
L 19.671875 72.90625 
L 19.671875 0 
L 9.8125 0 
z
" id="DejaVuSans-73"/>
       <path d="M 54.890625 33.015625 
L 54.890625 0 
L 45.90625 0 
L 45.90625 32.71875 
Q 45.90625 40.484375 42.875 44.328125 
Q 39.84375 48.1875 33.796875 48.1875 
Q 26.515625 48.1875 22.3125 43.546875 
Q 18.109375 38.921875 18.109375 30.90625 
L 18.109375 0 
L 9.078125 0 
L 9.078125 54.6875 
L 18.109375 54.6875 
L 18.109375 46.1875 
Q 21.34375 51.125 25.703125 53.5625 
Q 30.078125 56 35.796875 56 
Q 45.21875 56 50.046875 50.171875 
Q 54.890625 44.34375 54.890625 33.015625 
z
" id="DejaVuSans-110"/>
       <path d="M 45.40625 46.390625 
L 45.40625 75.984375 
L 54.390625 75.984375 
L 54.390625 0 
L 45.40625 0 
L 45.40625 8.203125 
Q 42.578125 3.328125 38.25 0.953125 
Q 33.9375 -1.421875 27.875 -1.421875 
Q 17.96875 -1.421875 11.734375 6.484375 
Q 5.515625 14.40625 5.515625 27.296875 
Q 5.515625 40.1875 11.734375 48.09375 
Q 17.96875 56 27.875 56 
Q 33.9375 56 38.25 53.625 
Q 42.578125 51.265625 45.40625 46.390625 
z
M 14.796875 27.296875 
Q 14.796875 17.390625 18.875 11.75 
Q 22.953125 6.109375 30.078125 6.109375 
Q 37.203125 6.109375 41.296875 11.75 
Q 45.40625 17.390625 45.40625 27.296875 
Q 45.40625 37.203125 41.296875 42.84375 
Q 37.203125 48.484375 30.078125 48.484375 
Q 22.953125 48.484375 18.875 42.84375 
Q 14.796875 37.203125 14.796875 27.296875 
z
" id="DejaVuSans-100"/>
       <path d="M 9.421875 54.6875 
L 18.40625 54.6875 
L 18.40625 0 
L 9.421875 0 
z
M 9.421875 75.984375 
L 18.40625 75.984375 
L 18.40625 64.59375 
L 9.421875 64.59375 
z
" id="DejaVuSans-105"/>
       <path d="M 8.5 21.578125 
L 8.5 54.6875 
L 17.484375 54.6875 
L 17.484375 21.921875 
Q 17.484375 14.15625 20.5 10.265625 
Q 23.53125 6.390625 29.59375 6.390625 
Q 36.859375 6.390625 41.078125 11.03125 
Q 45.3125 15.671875 45.3125 23.6875 
L 45.3125 54.6875 
L 54.296875 54.6875 
L 54.296875 0 
L 45.3125 0 
L 45.3125 8.40625 
Q 42.046875 3.421875 37.71875 1 
Q 33.40625 -1.421875 27.6875 -1.421875 
Q 18.265625 -1.421875 13.375 4.4375 
Q 8.5 10.296875 8.5 21.578125 
z
M 31.109375 56 
z
" id="DejaVuSans-117"/>
       <path d="M 9.421875 75.984375 
L 18.40625 75.984375 
L 18.40625 0 
L 9.421875 0 
z
" id="DejaVuSans-108"/>
       <path d="M 18.3125 70.21875 
L 18.3125 54.6875 
L 36.8125 54.6875 
L 36.8125 47.703125 
L 18.3125 47.703125 
L 18.3125 18.015625 
Q 18.3125 11.328125 20.140625 9.421875 
Q 21.96875 7.515625 27.59375 7.515625 
L 36.8125 7.515625 
L 36.8125 0 
L 27.59375 0 
Q 17.1875 0 13.234375 3.875 
Q 9.28125 7.765625 9.28125 18.015625 
L 9.28125 47.703125 
L 2.6875 47.703125 
L 2.6875 54.6875 
L 9.28125 54.6875 
L 9.28125 70.21875 
z
" id="DejaVuSans-116"/>
       <path d="M 44.28125 53.078125 
L 44.28125 44.578125 
Q 40.484375 46.53125 36.375 47.5 
Q 32.28125 48.484375 27.875 48.484375 
Q 21.1875 48.484375 17.84375 46.4375 
Q 14.5 44.390625 14.5 40.28125 
Q 14.5 37.15625 16.890625 35.375 
Q 19.28125 33.59375 26.515625 31.984375 
L 29.59375 31.296875 
Q 39.15625 29.25 43.1875 25.515625 
Q 47.21875 21.78125 47.21875 15.09375 
Q 47.21875 7.46875 41.1875 3.015625 
Q 35.15625 -1.421875 24.609375 -1.421875 
Q 20.21875 -1.421875 15.453125 -0.5625 
Q 10.6875 0.296875 5.421875 2 
L 5.421875 11.28125 
Q 10.40625 8.6875 15.234375 7.390625 
Q 20.0625 6.109375 24.8125 6.109375 
Q 31.15625 6.109375 34.5625 8.28125 
Q 37.984375 10.453125 37.984375 14.40625 
Q 37.984375 18.0625 35.515625 20.015625 
Q 33.0625 21.96875 24.703125 23.78125 
L 21.578125 24.515625 
Q 13.234375 26.265625 9.515625 29.90625 
Q 5.8125 33.546875 5.8125 39.890625 
Q 5.8125 47.609375 11.28125 51.796875 
Q 16.75 56 26.8125 56 
Q 31.78125 56 36.171875 55.265625 
Q 40.578125 54.546875 44.28125 53.078125 
z
" id="DejaVuSans-115"/>
      </defs>
      <use xlink:href="#DejaVuSans-73"/>
      <use x="29.492188" xlink:href="#DejaVuSans-110"/>
      <use x="92.871094" xlink:href="#DejaVuSans-100"/>
      <use x="156.347656" xlink:href="#DejaVuSans-105"/>
      <use x="184.130859" xlink:href="#DejaVuSans-118"/>
      <use x="243.310547" xlink:href="#DejaVuSans-105"/>
      <use x="271.09375" xlink:href="#DejaVuSans-100"/>
      <use x="334.570312" xlink:href="#DejaVuSans-117"/>
      <use x="397.949219" xlink:href="#DejaVuSans-97"/>
      <use x="459.228516" xlink:href="#DejaVuSans-108"/>
      <use x="487.011719" xlink:href="#DejaVuSans-32"/>
      <use x="518.798828" xlink:href="#DejaVuSans-83"/>
      <use x="582.275391" xlink:href="#DejaVuSans-116"/>
      <use x="621.484375" xlink:href="#DejaVuSans-97"/>
      <use x="682.763672" xlink:href="#DejaVuSans-116"/>
      <use x="721.972656" xlink:href="#DejaVuSans-101"/>
      <use x="783.496094" xlink:href="#DejaVuSans-115"/>
     </g>
    </g>
    <g id="line2d_59">
     <path d="M 892.696875 154.029375 
L 932.696875 154.029375 
" style="fill:none;stroke:#000000;stroke-linecap:square;stroke-width:4;"/>
    </g>
    <g id="line2d_60"/>
    <g id="text_17">
     <!-- Stay at Home Order -->
     <g transform="translate(948.696875 161.029375)scale(0.2 -0.2)">
      <defs>
       <path d="M 32.171875 -5.078125 
Q 28.375 -14.84375 24.75 -17.8125 
Q 21.140625 -20.796875 15.09375 -20.796875 
L 7.90625 -20.796875 
L 7.90625 -13.28125 
L 13.1875 -13.28125 
Q 16.890625 -13.28125 18.9375 -11.515625 
Q 21 -9.765625 23.484375 -3.21875 
L 25.09375 0.875 
L 2.984375 54.6875 
L 12.5 54.6875 
L 29.59375 11.921875 
L 46.6875 54.6875 
L 56.203125 54.6875 
z
" id="DejaVuSans-121"/>
       <path d="M 9.8125 72.90625 
L 19.671875 72.90625 
L 19.671875 43.015625 
L 55.515625 43.015625 
L 55.515625 72.90625 
L 65.375 72.90625 
L 65.375 0 
L 55.515625 0 
L 55.515625 34.71875 
L 19.671875 34.71875 
L 19.671875 0 
L 9.8125 0 
z
" id="DejaVuSans-72"/>
       <path d="M 30.609375 48.390625 
Q 23.390625 48.390625 19.1875 42.75 
Q 14.984375 37.109375 14.984375 27.296875 
Q 14.984375 17.484375 19.15625 11.84375 
Q 23.34375 6.203125 30.609375 6.203125 
Q 37.796875 6.203125 41.984375 11.859375 
Q 46.1875 17.53125 46.1875 27.296875 
Q 46.1875 37.015625 41.984375 42.703125 
Q 37.796875 48.390625 30.609375 48.390625 
z
M 30.609375 56 
Q 42.328125 56 49.015625 48.375 
Q 55.71875 40.765625 55.71875 27.296875 
Q 55.71875 13.875 49.015625 6.21875 
Q 42.328125 -1.421875 30.609375 -1.421875 
Q 18.84375 -1.421875 12.171875 6.21875 
Q 5.515625 13.875 5.515625 27.296875 
Q 5.515625 40.765625 12.171875 48.375 
Q 18.84375 56 30.609375 56 
z
" id="DejaVuSans-111"/>
       <path d="M 52 44.1875 
Q 55.375 50.25 60.0625 53.125 
Q 64.75 56 71.09375 56 
Q 79.640625 56 84.28125 50.015625 
Q 88.921875 44.046875 88.921875 33.015625 
L 88.921875 0 
L 79.890625 0 
L 79.890625 32.71875 
Q 79.890625 40.578125 77.09375 44.375 
Q 74.3125 48.1875 68.609375 48.1875 
Q 61.625 48.1875 57.5625 43.546875 
Q 53.515625 38.921875 53.515625 30.90625 
L 53.515625 0 
L 44.484375 0 
L 44.484375 32.71875 
Q 44.484375 40.625 41.703125 44.40625 
Q 38.921875 48.1875 33.109375 48.1875 
Q 26.21875 48.1875 22.15625 43.53125 
Q 18.109375 38.875 18.109375 30.90625 
L 18.109375 0 
L 9.078125 0 
L 9.078125 54.6875 
L 18.109375 54.6875 
L 18.109375 46.1875 
Q 21.1875 51.21875 25.484375 53.609375 
Q 29.78125 56 35.6875 56 
Q 41.65625 56 45.828125 52.96875 
Q 50 49.953125 52 44.1875 
z
" id="DejaVuSans-109"/>
       <path d="M 39.40625 66.21875 
Q 28.65625 66.21875 22.328125 58.203125 
Q 16.015625 50.203125 16.015625 36.375 
Q 16.015625 22.609375 22.328125 14.59375 
Q 28.65625 6.59375 39.40625 6.59375 
Q 50.140625 6.59375 56.421875 14.59375 
Q 62.703125 22.609375 62.703125 36.375 
Q 62.703125 50.203125 56.421875 58.203125 
Q 50.140625 66.21875 39.40625 66.21875 
z
M 39.40625 74.21875 
Q 54.734375 74.21875 63.90625 63.9375 
Q 73.09375 53.65625 73.09375 36.375 
Q 73.09375 19.140625 63.90625 8.859375 
Q 54.734375 -1.421875 39.40625 -1.421875 
Q 24.03125 -1.421875 14.8125 8.828125 
Q 5.609375 19.09375 5.609375 36.375 
Q 5.609375 53.65625 14.8125 63.9375 
Q 24.03125 74.21875 39.40625 74.21875 
z
" id="DejaVuSans-79"/>
      </defs>
      <use xlink:href="#DejaVuSans-83"/>
      <use x="63.476562" xlink:href="#DejaVuSans-116"/>
      <use x="102.685547" xlink:href="#DejaVuSans-97"/>
      <use x="163.964844" xlink:href="#DejaVuSans-121"/>
      <use x="223.144531" xlink:href="#DejaVuSans-32"/>
      <use x="254.931641" xlink:href="#DejaVuSans-97"/>
      <use x="316.210938" xlink:href="#DejaVuSans-116"/>
      <use x="355.419922" xlink:href="#DejaVuSans-32"/>
      <use x="387.207031" xlink:href="#DejaVuSans-72"/>
      <use x="462.402344" xlink:href="#DejaVuSans-111"/>
      <use x="523.583984" xlink:href="#DejaVuSans-109"/>
      <use x="620.996094" xlink:href="#DejaVuSans-101"/>
      <use x="682.519531" xlink:href="#DejaVuSans-32"/>
      <use x="714.306641" xlink:href="#DejaVuSans-79"/>
      <use x="793.017578" xlink:href="#DejaVuSans-114"/>
      <use x="832.380859" xlink:href="#DejaVuSans-100"/>
      <use x="895.857422" xlink:href="#DejaVuSans-101"/>
      <use x="957.380859" xlink:href="#DejaVuSans-114"/>
     </g>
    </g>
   </g>
  </g>
 </g>
 <defs>
  <clipPath id="pc698994e70">
   <rect height="434.88" width="1004.4" x="162" y="69.12"/>
  </clipPath>
 </defs>
</svg>
