<?xml version="1.0" encoding="utf-8" standalone="no"?>
<!DOCTYPE svg PUBLIC "-//W3C//DTD SVG 1.1//EN"
  "http://www.w3.org/Graphics/SVG/1.1/DTD/svg11.dtd">
<!-- Created with matplotlib (https://matplotlib.org/) -->
<svg height="576pt" version="1.1" viewBox="0 0 1296 576" width="1296pt" xmlns="http://www.w3.org/2000/svg" xmlns:xlink="http://www.w3.org/1999/xlink">
 <metadata>
  <rdf:RDF xmlns:cc="http://creativecommons.org/ns#" xmlns:dc="http://purl.org/dc/elements/1.1/" xmlns:rdf="http://www.w3.org/1999/02/22-rdf-syntax-ns#">
   <cc:Work>
    <dc:type rdf:resource="http://purl.org/dc/dcmitype/StillImage"/>
    <dc:date>2021-07-05T20:12:04.307667</dc:date>
    <dc:format>image/svg+xml</dc:format>
    <dc:creator>
     <cc:Agent>
      <dc:title>Matplotlib v3.3.4, https://matplotlib.org/</dc:title>
     </cc:Agent>
    </dc:creator>
   </cc:Work>
  </rdf:RDF>
 </metadata>
 <defs>
  <style type="text/css">*{stroke-linecap:butt;stroke-linejoin:round;}</style>
 </defs>
 <g id="figure_1">
  <g id="patch_1">
   <path d="M 0 576 
L 1296 576 
L 1296 0 
L 0 0 
z
" style="fill:#ffffff;"/>
  </g>
  <g id="axes_1">
   <g id="patch_2">
    <path d="M 162 504 
L 1166.4 504 
L 1166.4 69.12 
L 162 69.12 
z
" style="fill:#ffffff;"/>
   </g>
   <g id="matplotlib.axis_1">
    <g id="xtick_1">
     <g id="line2d_1">
      <defs>
       <path d="M 0 0 
L 0 3.5 
" id="m3c0693c028" style="stroke:#000000;stroke-width:0.8;"/>
      </defs>
      <g>
       <use style="stroke:#000000;stroke-width:0.8;" x="207.654545" xlink:href="#m3c0693c028" y="504"/>
      </g>
     </g>
     <g id="text_1">
      <!-- −30 -->
      <g transform="translate(186.549858 526.196875)scale(0.2 -0.2)">
       <defs>
        <path d="M 10.59375 35.5 
L 73.1875 35.5 
L 73.1875 27.203125 
L 10.59375 27.203125 
z
" id="DejaVuSans-8722"/>
        <path d="M 40.578125 39.3125 
Q 47.65625 37.796875 51.625 33 
Q 55.609375 28.21875 55.609375 21.1875 
Q 55.609375 10.40625 48.1875 4.484375 
Q 40.765625 -1.421875 27.09375 -1.421875 
Q 22.515625 -1.421875 17.65625 -0.515625 
Q 12.796875 0.390625 7.625 2.203125 
L 7.625 11.71875 
Q 11.71875 9.328125 16.59375 8.109375 
Q 21.484375 6.890625 26.8125 6.890625 
Q 36.078125 6.890625 40.9375 10.546875 
Q 45.796875 14.203125 45.796875 21.1875 
Q 45.796875 27.640625 41.28125 31.265625 
Q 36.765625 34.90625 28.71875 34.90625 
L 20.21875 34.90625 
L 20.21875 43.015625 
L 29.109375 43.015625 
Q 36.375 43.015625 40.234375 45.921875 
Q 44.09375 48.828125 44.09375 54.296875 
Q 44.09375 59.90625 40.109375 62.90625 
Q 36.140625 65.921875 28.71875 65.921875 
Q 24.65625 65.921875 20.015625 65.03125 
Q 15.375 64.15625 9.8125 62.3125 
L 9.8125 71.09375 
Q 15.4375 72.65625 20.34375 73.4375 
Q 25.25 74.21875 29.59375 74.21875 
Q 40.828125 74.21875 47.359375 69.109375 
Q 53.90625 64.015625 53.90625 55.328125 
Q 53.90625 49.265625 50.4375 45.09375 
Q 46.96875 40.921875 40.578125 39.3125 
z
" id="DejaVuSans-51"/>
        <path d="M 31.78125 66.40625 
Q 24.171875 66.40625 20.328125 58.90625 
Q 16.5 51.421875 16.5 36.375 
Q 16.5 21.390625 20.328125 13.890625 
Q 24.171875 6.390625 31.78125 6.390625 
Q 39.453125 6.390625 43.28125 13.890625 
Q 47.125 21.390625 47.125 36.375 
Q 47.125 51.421875 43.28125 58.90625 
Q 39.453125 66.40625 31.78125 66.40625 
z
M 31.78125 74.21875 
Q 44.046875 74.21875 50.515625 64.515625 
Q 56.984375 54.828125 56.984375 36.375 
Q 56.984375 17.96875 50.515625 8.265625 
Q 44.046875 -1.421875 31.78125 -1.421875 
Q 19.53125 -1.421875 13.0625 8.265625 
Q 6.59375 17.96875 6.59375 36.375 
Q 6.59375 54.828125 13.0625 64.515625 
Q 19.53125 74.21875 31.78125 74.21875 
z
" id="DejaVuSans-48"/>
       </defs>
       <use xlink:href="#DejaVuSans-8722"/>
       <use x="83.789062" xlink:href="#DejaVuSans-51"/>
       <use x="147.412109" xlink:href="#DejaVuSans-48"/>
      </g>
     </g>
    </g>
    <g id="xtick_2">
     <g id="line2d_2">
      <g>
       <use style="stroke:#000000;stroke-width:0.8;" x="359.836364" xlink:href="#m3c0693c028" y="504"/>
      </g>
     </g>
     <g id="text_2">
      <!-- −20 -->
      <g transform="translate(338.731676 526.196875)scale(0.2 -0.2)">
       <defs>
        <path d="M 19.1875 8.296875 
L 53.609375 8.296875 
L 53.609375 0 
L 7.328125 0 
L 7.328125 8.296875 
Q 12.9375 14.109375 22.625 23.890625 
Q 32.328125 33.6875 34.8125 36.53125 
Q 39.546875 41.84375 41.421875 45.53125 
Q 43.3125 49.21875 43.3125 52.78125 
Q 43.3125 58.59375 39.234375 62.25 
Q 35.15625 65.921875 28.609375 65.921875 
Q 23.96875 65.921875 18.8125 64.3125 
Q 13.671875 62.703125 7.8125 59.421875 
L 7.8125 69.390625 
Q 13.765625 71.78125 18.9375 73 
Q 24.125 74.21875 28.421875 74.21875 
Q 39.75 74.21875 46.484375 68.546875 
Q 53.21875 62.890625 53.21875 53.421875 
Q 53.21875 48.921875 51.53125 44.890625 
Q 49.859375 40.875 45.40625 35.40625 
Q 44.1875 33.984375 37.640625 27.21875 
Q 31.109375 20.453125 19.1875 8.296875 
z
" id="DejaVuSans-50"/>
       </defs>
       <use xlink:href="#DejaVuSans-8722"/>
       <use x="83.789062" xlink:href="#DejaVuSans-50"/>
       <use x="147.412109" xlink:href="#DejaVuSans-48"/>
      </g>
     </g>
    </g>
    <g id="xtick_3">
     <g id="line2d_3">
      <g>
       <use style="stroke:#000000;stroke-width:0.8;" x="512.018182" xlink:href="#m3c0693c028" y="504"/>
      </g>
     </g>
     <g id="text_3">
      <!-- −10 -->
      <g transform="translate(490.913494 526.196875)scale(0.2 -0.2)">
       <defs>
        <path d="M 12.40625 8.296875 
L 28.515625 8.296875 
L 28.515625 63.921875 
L 10.984375 60.40625 
L 10.984375 69.390625 
L 28.421875 72.90625 
L 38.28125 72.90625 
L 38.28125 8.296875 
L 54.390625 8.296875 
L 54.390625 0 
L 12.40625 0 
z
" id="DejaVuSans-49"/>
       </defs>
       <use xlink:href="#DejaVuSans-8722"/>
       <use x="83.789062" xlink:href="#DejaVuSans-49"/>
       <use x="147.412109" xlink:href="#DejaVuSans-48"/>
      </g>
     </g>
    </g>
    <g id="xtick_4">
     <g id="line2d_4">
      <g>
       <use style="stroke:#000000;stroke-width:0.8;" x="664.2" xlink:href="#m3c0693c028" y="504"/>
      </g>
     </g>
     <g id="text_4">
      <!-- 0 -->
      <g transform="translate(657.8375 526.196875)scale(0.2 -0.2)">
       <use xlink:href="#DejaVuSans-48"/>
      </g>
     </g>
    </g>
    <g id="xtick_5">
     <g id="line2d_5">
      <g>
       <use style="stroke:#000000;stroke-width:0.8;" x="816.381818" xlink:href="#m3c0693c028" y="504"/>
      </g>
     </g>
     <g id="text_5">
      <!-- 10 -->
      <g transform="translate(803.656818 526.196875)scale(0.2 -0.2)">
       <use xlink:href="#DejaVuSans-49"/>
       <use x="63.623047" xlink:href="#DejaVuSans-48"/>
      </g>
     </g>
    </g>
    <g id="xtick_6">
     <g id="line2d_6">
      <g>
       <use style="stroke:#000000;stroke-width:0.8;" x="968.563636" xlink:href="#m3c0693c028" y="504"/>
      </g>
     </g>
     <g id="text_6">
      <!-- 20 -->
      <g transform="translate(955.838636 526.196875)scale(0.2 -0.2)">
       <use xlink:href="#DejaVuSans-50"/>
       <use x="63.623047" xlink:href="#DejaVuSans-48"/>
      </g>
     </g>
    </g>
    <g id="xtick_7">
     <g id="line2d_7">
      <g>
       <use style="stroke:#000000;stroke-width:0.8;" x="1120.745455" xlink:href="#m3c0693c028" y="504"/>
      </g>
     </g>
     <g id="text_7">
      <!-- 30 -->
      <g transform="translate(1108.020455 526.196875)scale(0.2 -0.2)">
       <use xlink:href="#DejaVuSans-51"/>
       <use x="63.623047" xlink:href="#DejaVuSans-48"/>
      </g>
     </g>
    </g>
   </g>
   <g id="matplotlib.axis_2">
    <g id="ytick_1">
     <g id="line2d_8">
      <defs>
       <path d="M 0 0 
L -3.5 0 
" id="m1c302379ed" style="stroke:#000000;stroke-width:0.8;"/>
      </defs>
      <g>
       <use style="stroke:#000000;stroke-width:0.8;" x="162" xlink:href="#m1c302379ed" y="504"/>
      </g>
     </g>
     <g id="text_8">
      <!-- 0.00 -->
      <g transform="translate(110.46875 511.598437)scale(0.2 -0.2)">
       <defs>
        <path d="M 10.6875 12.40625 
L 21 12.40625 
L 21 0 
L 10.6875 0 
z
" id="DejaVuSans-46"/>
       </defs>
       <use xlink:href="#DejaVuSans-48"/>
       <use x="63.623047" xlink:href="#DejaVuSans-46"/>
       <use x="95.410156" xlink:href="#DejaVuSans-48"/>
       <use x="159.033203" xlink:href="#DejaVuSans-48"/>
      </g>
     </g>
    </g>
    <g id="ytick_2">
     <g id="line2d_9">
      <g>
       <use style="stroke:#000000;stroke-width:0.8;" x="162" xlink:href="#m1c302379ed" y="449.64"/>
      </g>
     </g>
     <g id="text_9">
      <!-- 0.02 -->
      <g transform="translate(110.46875 457.238438)scale(0.2 -0.2)">
       <use xlink:href="#DejaVuSans-48"/>
       <use x="63.623047" xlink:href="#DejaVuSans-46"/>
       <use x="95.410156" xlink:href="#DejaVuSans-48"/>
       <use x="159.033203" xlink:href="#DejaVuSans-50"/>
      </g>
     </g>
    </g>
    <g id="ytick_3">
     <g id="line2d_10">
      <g>
       <use style="stroke:#000000;stroke-width:0.8;" x="162" xlink:href="#m1c302379ed" y="395.28"/>
      </g>
     </g>
     <g id="text_10">
      <!-- 0.04 -->
      <g transform="translate(110.46875 402.878438)scale(0.2 -0.2)">
       <defs>
        <path d="M 37.796875 64.3125 
L 12.890625 25.390625 
L 37.796875 25.390625 
z
M 35.203125 72.90625 
L 47.609375 72.90625 
L 47.609375 25.390625 
L 58.015625 25.390625 
L 58.015625 17.1875 
L 47.609375 17.1875 
L 47.609375 0 
L 37.796875 0 
L 37.796875 17.1875 
L 4.890625 17.1875 
L 4.890625 26.703125 
z
" id="DejaVuSans-52"/>
       </defs>
       <use xlink:href="#DejaVuSans-48"/>
       <use x="63.623047" xlink:href="#DejaVuSans-46"/>
       <use x="95.410156" xlink:href="#DejaVuSans-48"/>
       <use x="159.033203" xlink:href="#DejaVuSans-52"/>
      </g>
     </g>
    </g>
    <g id="ytick_4">
     <g id="line2d_11">
      <g>
       <use style="stroke:#000000;stroke-width:0.8;" x="162" xlink:href="#m1c302379ed" y="340.92"/>
      </g>
     </g>
     <g id="text_11">
      <!-- 0.06 -->
      <g transform="translate(110.46875 348.518438)scale(0.2 -0.2)">
       <defs>
        <path d="M 33.015625 40.375 
Q 26.375 40.375 22.484375 35.828125 
Q 18.609375 31.296875 18.609375 23.390625 
Q 18.609375 15.53125 22.484375 10.953125 
Q 26.375 6.390625 33.015625 6.390625 
Q 39.65625 6.390625 43.53125 10.953125 
Q 47.40625 15.53125 47.40625 23.390625 
Q 47.40625 31.296875 43.53125 35.828125 
Q 39.65625 40.375 33.015625 40.375 
z
M 52.59375 71.296875 
L 52.59375 62.3125 
Q 48.875 64.0625 45.09375 64.984375 
Q 41.3125 65.921875 37.59375 65.921875 
Q 27.828125 65.921875 22.671875 59.328125 
Q 17.53125 52.734375 16.796875 39.40625 
Q 19.671875 43.65625 24.015625 45.921875 
Q 28.375 48.1875 33.59375 48.1875 
Q 44.578125 48.1875 50.953125 41.515625 
Q 57.328125 34.859375 57.328125 23.390625 
Q 57.328125 12.15625 50.6875 5.359375 
Q 44.046875 -1.421875 33.015625 -1.421875 
Q 20.359375 -1.421875 13.671875 8.265625 
Q 6.984375 17.96875 6.984375 36.375 
Q 6.984375 53.65625 15.1875 63.9375 
Q 23.390625 74.21875 37.203125 74.21875 
Q 40.921875 74.21875 44.703125 73.484375 
Q 48.484375 72.75 52.59375 71.296875 
z
" id="DejaVuSans-54"/>
       </defs>
       <use xlink:href="#DejaVuSans-48"/>
       <use x="63.623047" xlink:href="#DejaVuSans-46"/>
       <use x="95.410156" xlink:href="#DejaVuSans-48"/>
       <use x="159.033203" xlink:href="#DejaVuSans-54"/>
      </g>
     </g>
    </g>
    <g id="ytick_5">
     <g id="line2d_12">
      <g>
       <use style="stroke:#000000;stroke-width:0.8;" x="162" xlink:href="#m1c302379ed" y="286.56"/>
      </g>
     </g>
     <g id="text_12">
      <!-- 0.08 -->
      <g transform="translate(110.46875 294.158437)scale(0.2 -0.2)">
       <defs>
        <path d="M 31.78125 34.625 
Q 24.75 34.625 20.71875 30.859375 
Q 16.703125 27.09375 16.703125 20.515625 
Q 16.703125 13.921875 20.71875 10.15625 
Q 24.75 6.390625 31.78125 6.390625 
Q 38.8125 6.390625 42.859375 10.171875 
Q 46.921875 13.96875 46.921875 20.515625 
Q 46.921875 27.09375 42.890625 30.859375 
Q 38.875 34.625 31.78125 34.625 
z
M 21.921875 38.8125 
Q 15.578125 40.375 12.03125 44.71875 
Q 8.5 49.078125 8.5 55.328125 
Q 8.5 64.0625 14.71875 69.140625 
Q 20.953125 74.21875 31.78125 74.21875 
Q 42.671875 74.21875 48.875 69.140625 
Q 55.078125 64.0625 55.078125 55.328125 
Q 55.078125 49.078125 51.53125 44.71875 
Q 48 40.375 41.703125 38.8125 
Q 48.828125 37.15625 52.796875 32.3125 
Q 56.78125 27.484375 56.78125 20.515625 
Q 56.78125 9.90625 50.3125 4.234375 
Q 43.84375 -1.421875 31.78125 -1.421875 
Q 19.734375 -1.421875 13.25 4.234375 
Q 6.78125 9.90625 6.78125 20.515625 
Q 6.78125 27.484375 10.78125 32.3125 
Q 14.796875 37.15625 21.921875 38.8125 
z
M 18.3125 54.390625 
Q 18.3125 48.734375 21.84375 45.5625 
Q 25.390625 42.390625 31.78125 42.390625 
Q 38.140625 42.390625 41.71875 45.5625 
Q 45.3125 48.734375 45.3125 54.390625 
Q 45.3125 60.0625 41.71875 63.234375 
Q 38.140625 66.40625 31.78125 66.40625 
Q 25.390625 66.40625 21.84375 63.234375 
Q 18.3125 60.0625 18.3125 54.390625 
z
" id="DejaVuSans-56"/>
       </defs>
       <use xlink:href="#DejaVuSans-48"/>
       <use x="63.623047" xlink:href="#DejaVuSans-46"/>
       <use x="95.410156" xlink:href="#DejaVuSans-48"/>
       <use x="159.033203" xlink:href="#DejaVuSans-56"/>
      </g>
     </g>
    </g>
    <g id="ytick_6">
     <g id="line2d_13">
      <g>
       <use style="stroke:#000000;stroke-width:0.8;" x="162" xlink:href="#m1c302379ed" y="232.2"/>
      </g>
     </g>
     <g id="text_13">
      <!-- 0.10 -->
      <g transform="translate(110.46875 239.798437)scale(0.2 -0.2)">
       <use xlink:href="#DejaVuSans-48"/>
       <use x="63.623047" xlink:href="#DejaVuSans-46"/>
       <use x="95.410156" xlink:href="#DejaVuSans-49"/>
       <use x="159.033203" xlink:href="#DejaVuSans-48"/>
      </g>
     </g>
    </g>
    <g id="ytick_7">
     <g id="line2d_14">
      <g>
       <use style="stroke:#000000;stroke-width:0.8;" x="162" xlink:href="#m1c302379ed" y="177.84"/>
      </g>
     </g>
     <g id="text_14">
      <!-- 0.12 -->
      <g transform="translate(110.46875 185.438438)scale(0.2 -0.2)">
       <use xlink:href="#DejaVuSans-48"/>
       <use x="63.623047" xlink:href="#DejaVuSans-46"/>
       <use x="95.410156" xlink:href="#DejaVuSans-49"/>
       <use x="159.033203" xlink:href="#DejaVuSans-50"/>
      </g>
     </g>
    </g>
    <g id="ytick_8">
     <g id="line2d_15">
      <g>
       <use style="stroke:#000000;stroke-width:0.8;" x="162" xlink:href="#m1c302379ed" y="123.48"/>
      </g>
     </g>
     <g id="text_15">
      <!-- 0.14 -->
      <g transform="translate(110.46875 131.078437)scale(0.2 -0.2)">
       <use xlink:href="#DejaVuSans-48"/>
       <use x="63.623047" xlink:href="#DejaVuSans-46"/>
       <use x="95.410156" xlink:href="#DejaVuSans-49"/>
       <use x="159.033203" xlink:href="#DejaVuSans-52"/>
      </g>
     </g>
    </g>
    <g id="ytick_9">
     <g id="line2d_16">
      <g>
       <use style="stroke:#000000;stroke-width:0.8;" x="162" xlink:href="#m1c302379ed" y="69.12"/>
      </g>
     </g>
     <g id="text_16">
      <!-- 0.16 -->
      <g transform="translate(110.46875 76.718437)scale(0.2 -0.2)">
       <use xlink:href="#DejaVuSans-48"/>
       <use x="63.623047" xlink:href="#DejaVuSans-46"/>
       <use x="95.410156" xlink:href="#DejaVuSans-49"/>
       <use x="159.033203" xlink:href="#DejaVuSans-54"/>
      </g>
     </g>
    </g>
   </g>
   <g id="LineCollection_1">
    <path clip-path="url(#p8420079a52)" d="M 664.2 504 
L 664.2 163.925393 
" style="fill:none;stroke:#000000;stroke-width:6;"/>
   </g>
   <g id="line2d_17">
    <path clip-path="url(#p8420079a52)" d="M 310.809126 -1 
L 314.181818 12.300733 
L 329.4 56.752894 
L 344.618182 84.24749 
L 359.836364 118.105191 
L 375.054545 133.696744 
L 390.272727 144.086759 
L 405.490909 182.639917 
L 420.709091 205.774498 
L 435.927273 219.521817 
L 451.145455 227.681797 
L 466.363636 241.577323 
L 481.581818 244.321169 
L 496.8 242.762603 
L 512.018182 257.032462 
L 527.236364 265.979079 
L 542.454545 270.018285 
L 557.672727 272.67416 
L 572.890909 275.509805 
L 588.109091 274.06166 
L 603.327273 269.887914 
L 618.545455 285.009689 
L 633.763636 296.86628 
L 648.981818 302.371438 
L 664.2 303.039369 
L 679.418182 308.703752 
L 694.636364 311.927519 
L 709.854545 306.19759 
L 725.072727 310.750619 
L 740.290909 310.981225 
L 755.509091 301.563392 
L 770.727273 292.726086 
L 785.945455 287.610511 
L 801.163636 283.663043 
L 816.381818 264.551576 
L 831.6 264.192976 
L 846.818182 267.982062 
L 862.036364 266.336957 
L 877.254545 260.869138 
L 892.472727 261.171566 
L 907.690909 261.880633 
L 922.909091 247.372862 
L 938.127273 258.543201 
L 953.345455 270.341664 
L 968.563636 271.073289 
L 983.781818 274.01184 
L 999 281.096185 
L 1014.218182 279.609009 
L 1029.436364 271.811958 
L 1044.654545 278.773065 
L 1059.872727 285.810819 
L 1075.090909 289.483194 
L 1090.309091 286.49631 
L 1105.527273 277.48891 
L 1120.745455 265.039892 
" style="fill:none;stroke:#808080;stroke-linecap:square;stroke-opacity:0.4;"/>
   </g>
   <g id="line2d_18">
    <path clip-path="url(#p8420079a52)" d="M 207.654545 504 
L 222.872727 504 
L 238.090909 504 
L 253.309091 504 
L 268.527273 504 
L 283.745455 504 
L 298.963636 504 
L 314.181818 504 
L 329.4 504 
L 335.573017 -1 
M 538.265215 -1 
L 542.454545 20.871006 
L 557.672727 67.735218 
L 572.890909 145.253968 
L 588.109091 205.232256 
L 603.327273 216.760931 
L 618.545455 229.594565 
L 633.763636 260.931714 
L 648.981818 269.928894 
L 664.2 286.979957 
L 679.418182 288.335132 
L 694.636364 284.496421 
L 709.854545 285.206911 
L 725.072727 302.189279 
L 740.290909 301.65226 
L 755.509091 304.575054 
L 770.727273 305.02144 
L 785.945455 305.780397 
L 801.163636 324.418015 
L 816.381818 335.692669 
L 831.6 341.475671 
L 846.818182 354.485538 
L 862.036364 362.578958 
L 877.254545 371.625095 
L 892.472727 375.22169 
L 907.690909 382.908075 
L 922.909091 376.871978 
L 938.127273 387.688875 
L 953.345455 398.27279 
L 968.563636 397.746393 
L 983.781818 390.263094 
L 999 373.748015 
L 1014.218182 364.822147 
L 1029.436364 360.93313 
L 1044.654545 353.542689 
L 1059.872727 338.943233 
L 1075.090909 305.831074 
L 1090.309091 326.814314 
L 1105.527273 326.081912 
L 1120.745455 346.450739 
" style="fill:none;stroke:#808080;stroke-linecap:square;stroke-opacity:0.4;"/>
   </g>
   <g id="line2d_19">
    <path clip-path="url(#p8420079a52)" d="M 237.481788 -1 
L 238.090909 2.214258 
L 253.309091 117.070711 
L 268.527273 101.287888 
L 283.745455 59.709942 
L 298.963636 -0.743299 
L 298.991414 -1 
M 515.288731 -1 
L 527.236364 26.061039 
L 542.454545 74.164608 
L 557.672727 135.928728 
L 572.890909 145.239168 
L 588.109091 154.724332 
L 603.327273 184.672811 
L 618.545455 204.864165 
L 633.763636 230.475057 
L 648.981818 251.792195 
L 664.2 258.302489 
L 679.418182 261.467644 
L 694.636364 269.20359 
L 709.854545 289.583131 
L 725.072727 297.20449 
L 740.290909 309.757509 
L 755.509091 296.312563 
L 770.727273 291.97163 
L 785.945455 285.796449 
L 801.163636 283.734238 
L 816.381818 288.793564 
L 831.6 290.516921 
L 846.818182 277.742057 
L 862.036364 269.764401 
L 877.254545 262.430875 
L 892.472727 261.29675 
L 907.690909 253.375211 
L 922.909091 272.037006 
L 938.127273 266.623878 
L 953.345455 261.620212 
L 968.563636 255.307534 
L 983.781818 249.253558 
L 999 246.285883 
L 1014.218182 238.447111 
L 1029.436364 243.012496 
L 1044.654545 238.730956 
L 1059.872727 246.32926 
L 1075.090909 243.536679 
L 1090.309091 239.408263 
L 1105.527273 250.690669 
L 1120.745455 260.920792 
" style="fill:none;stroke:#808080;stroke-linecap:square;stroke-opacity:0.4;"/>
   </g>
   <g id="line2d_20">
    <path clip-path="url(#p8420079a52)" d="M 207.654545 83.135166 
L 222.872727 56.836145 
L 238.090909 93.734027 
L 253.309091 65.285374 
L 268.527273 72.974905 
L 283.745455 29.926267 
L 298.963636 30.324742 
L 314.181818 14.694701 
L 329.4 49.729797 
L 344.618182 46.158562 
L 359.836364 42.790534 
L 375.054545 8.763621 
L 379.428178 -1 
M 492.473184 -1 
L 496.8 5.305298 
L 512.018182 36.309372 
L 527.236364 46.815537 
L 542.454545 70.154301 
L 557.672727 115.819915 
L 572.890909 149.883849 
L 588.109091 171.724072 
L 603.327273 190.086658 
L 618.545455 210.623941 
L 633.763636 220.764003 
L 648.981818 228.55499 
L 664.2 241.436253 
L 679.418182 247.938669 
L 694.636364 253.399099 
L 709.854545 253.518948 
L 725.072727 251.32154 
L 740.290909 246.258538 
L 755.509091 232.139321 
L 770.727273 233.590759 
L 785.945455 236.803195 
L 801.163636 244.247464 
L 816.381818 245.791359 
L 831.6 254.224047 
L 846.818182 256.240362 
L 862.036364 257.270487 
L 877.254545 266.344121 
L 892.472727 275.908074 
L 907.690909 284.046618 
L 922.909091 288.876698 
L 938.127273 291.560532 
L 953.345455 290.174423 
L 968.563636 281.54447 
L 983.781818 283.13908 
L 999 283.129155 
L 1014.218182 283.227087 
L 1029.436364 280.181575 
L 1044.654545 279.013576 
L 1059.872727 273.631575 
L 1075.090909 264.694072 
L 1090.309091 266.471953 
L 1105.527273 267.450152 
L 1120.745455 266.429567 
" style="fill:none;stroke:#808080;stroke-linecap:square;stroke-opacity:0.4;"/>
   </g>
   <g id="line2d_21">
    <path clip-path="url(#p8420079a52)" d="M 207.654545 504 
L 222.872727 504 
L 238.090909 504 
L 240.122739 -1 
M 568.62956 -1 
L 572.890909 25.342314 
L 588.109091 72.569738 
L 603.327273 91.663835 
L 618.545455 106.714154 
L 633.763636 133.964614 
L 648.981818 159.35703 
L 664.2 191.391344 
L 679.418182 218.649113 
L 694.636364 247.799899 
L 709.854545 263.002797 
L 725.072727 282.567886 
L 740.290909 284.497195 
L 755.509091 289.111479 
L 770.727273 282.013127 
L 785.945455 294.988709 
L 801.163636 285.603899 
L 816.381818 297.223554 
L 831.6 295.199424 
L 846.818182 293.569256 
L 862.036364 290.08005 
L 877.254545 292.750092 
L 892.472727 286.145382 
L 907.690909 292.431115 
L 922.909091 291.247471 
L 938.127273 272.412058 
L 953.345455 255.687904 
L 968.563636 243.231927 
L 983.781818 221.939137 
L 999 222.181545 
L 1014.218182 238.090372 
L 1029.436364 243.462195 
L 1044.654545 246.185302 
L 1059.872727 256.739681 
L 1075.090909 267.73214 
L 1090.309091 283.694206 
L 1105.527273 299.966785 
L 1120.745455 309.520654 
" style="fill:none;stroke:#808080;stroke-linecap:square;stroke-opacity:0.4;"/>
   </g>
   <g id="line2d_22">
    <path clip-path="url(#p8420079a52)" d="M 207.654545 504 
L 222.872727 504 
L 238.090909 504 
L 253.309091 504 
L 268.527273 504 
L 283.745455 504 
L 298.963636 504 
L 314.181818 504 
L 329.4 504 
L 334.020961 -1 
M 672.656059 -1 
L 679.418182 32.077867 
L 694.636364 85.017031 
L 709.854545 84.960205 
L 725.072727 71.192982 
L 740.290909 135.269711 
L 755.509091 124.287258 
L 770.727273 130.35008 
L 785.945455 167.758482 
L 801.163636 183.107566 
L 816.381818 202.400414 
L 831.6 223.868728 
L 846.818182 221.01243 
L 862.036364 244.520847 
L 877.254545 245.663133 
L 892.472727 265.98488 
L 907.690909 275.589743 
L 922.909091 279.784918 
L 938.127273 277.100278 
L 953.345455 279.332634 
L 968.563636 277.077636 
L 983.781818 257.52918 
L 999 273.859845 
L 1014.218182 267.055339 
L 1029.436364 292.920262 
L 1044.654545 306.02616 
L 1059.872727 309.11685 
L 1075.090909 322.975489 
L 1090.309091 328.095488 
L 1105.527273 338.125867 
L 1120.745455 349.971058 
" style="fill:none;stroke:#808080;stroke-linecap:square;stroke-opacity:0.4;"/>
   </g>
   <g id="line2d_23">
    <path clip-path="url(#p8420079a52)" d="M 207.654545 504 
L 222.872727 504 
L 238.090909 504 
L 253.309091 504 
L 268.527273 504 
L 283.745455 504 
L 293.853781 -1 
M 374.915605 -1 
L 375.054545 13.611325 
L 376.941407 -1 
M 608.866471 -1 
L 618.545455 30.538199 
L 633.763636 89.061183 
L 648.981818 93.151513 
L 664.2 80.422152 
L 679.418182 100.904861 
L 694.636364 83.88122 
L 709.854545 39.689619 
L 725.072727 119.497094 
L 740.290909 108.014558 
L 755.509091 86.689173 
L 770.727273 89.85376 
L 785.945455 159.401356 
L 801.163636 175.575014 
L 816.381818 182.643187 
L 831.6 202.750776 
L 846.818182 223.016796 
L 862.036364 229.674719 
L 877.254545 242.663805 
L 892.472727 257.275501 
L 907.690909 250.523602 
L 922.909091 225.065087 
L 938.127273 248.704365 
L 953.345455 247.228603 
L 968.563636 258.840071 
L 983.781818 237.010691 
L 999 244.98603 
L 1014.218182 232.509926 
L 1029.436364 226.407798 
L 1044.654545 226.071942 
L 1059.872727 268.963299 
L 1075.090909 274.101267 
L 1090.309091 300.241867 
L 1105.527273 303.410253 
L 1120.745455 299.629352 
" style="fill:none;stroke:#808080;stroke-linecap:square;stroke-opacity:0.4;"/>
   </g>
   <g id="line2d_24">
    <path clip-path="url(#p8420079a52)" d="M 486.585635 -1 
L 496.8 29.439582 
L 512.018182 44.90484 
L 527.236364 86.29526 
L 542.454545 119.370454 
L 557.672727 157.476952 
L 572.890909 189.732936 
L 588.109091 216.532939 
L 603.327273 228.702223 
L 618.545455 253.400749 
L 633.763636 268.77924 
L 648.981818 280.758439 
L 664.2 293.754366 
L 679.418182 303.995258 
L 694.636364 310.205267 
L 709.854545 315.442515 
L 725.072727 318.955909 
L 740.290909 316.264198 
L 755.509091 316.562603 
L 770.727273 314.795409 
L 785.945455 321.042587 
L 801.163636 321.534382 
L 816.381818 316.004107 
L 831.6 314.607914 
L 846.818182 319.908589 
L 862.036364 321.82449 
L 877.254545 330.006662 
L 892.472727 334.772084 
L 907.690909 325.190997 
L 922.909091 314.949282 
L 938.127273 312.175317 
L 953.345455 307.66635 
L 968.563636 295.771837 
L 983.781818 291.726085 
L 999 294.553027 
L 1014.218182 293.018791 
L 1029.436364 292.595122 
L 1044.654545 300.116012 
L 1059.872727 311.800438 
L 1075.090909 316.005624 
L 1090.309091 318.404806 
L 1105.527273 320.833802 
L 1120.745455 320.756979 
" style="fill:none;stroke:#808080;stroke-linecap:square;stroke-opacity:0.4;"/>
   </g>
   <g id="line2d_25">
    <path clip-path="url(#p8420079a52)" d="M 426.985957 -1 
L 435.927273 23.424265 
L 451.145455 22.004789 
L 466.363636 67.918771 
L 481.581818 42.618855 
L 496.8 32.322499 
L 512.018182 56.79056 
L 527.236364 151.52612 
L 542.454545 176.199376 
L 557.672727 181.400163 
L 572.890909 169.570239 
L 588.109091 160.944737 
L 603.327273 145.776244 
L 618.545455 172.591932 
L 633.763636 228.621211 
L 648.981818 251.209505 
L 664.2 248.276511 
L 679.418182 266.785281 
L 694.636364 271.287449 
L 709.854545 270.659239 
L 725.072727 284.890629 
L 740.290909 296.634189 
L 755.509091 296.183671 
L 770.727273 307.142724 
L 785.945455 311.862012 
L 801.163636 309.262002 
L 816.381818 308.660788 
L 831.6 295.00438 
L 846.818182 288.31019 
L 862.036364 299.397913 
L 877.254545 301.365883 
L 892.472727 303.785866 
L 907.690909 316.559496 
L 922.909091 301.925959 
L 938.127273 304.451798 
L 953.345455 311.766671 
L 968.563636 313.983578 
L 983.781818 307.299791 
L 999 318.18566 
L 1014.218182 310.723066 
L 1029.436364 299.135104 
L 1044.654545 306.236002 
L 1059.872727 300.309435 
L 1075.090909 297.327986 
L 1090.309091 300.094654 
L 1105.527273 292.036818 
L 1120.745455 295.202831 
" style="fill:none;stroke:#808080;stroke-linecap:square;stroke-opacity:0.4;"/>
   </g>
   <g id="line2d_26">
    <path clip-path="url(#p8420079a52)" d="M 207.654545 504 
L 222.872727 504 
L 238.090909 504 
L 253.309091 504 
L 266.145074 -1 
M 307.573926 -1 
L 314.181818 100.099489 
L 321.711694 -1 
M 524.844795 -1 
L 527.236364 11.950209 
L 542.454545 31.229884 
L 557.672727 19.587299 
L 572.890909 52.418397 
L 588.109091 63.101765 
L 603.327273 119.30693 
L 618.545455 142.554783 
L 633.763636 171.20532 
L 648.981818 185.535721 
L 664.2 217.334566 
L 679.418182 235.248576 
L 694.636364 272.088563 
L 709.854545 294.373989 
L 725.072727 306.619791 
L 740.290909 322.054038 
L 755.509091 343.978858 
L 770.727273 361.999105 
L 785.945455 375.486882 
L 801.163636 376.378235 
L 816.381818 382.042199 
L 831.6 385.251453 
L 846.818182 383.13952 
L 862.036364 374.55806 
L 877.254545 367.84846 
L 892.472727 357.325101 
L 907.690909 357.942744 
L 922.909091 369.761204 
L 938.127273 368.951501 
L 953.345455 367.371492 
L 968.563636 369.73133 
L 983.781818 390.452155 
L 999 409.25491 
L 1014.218182 418.909123 
L 1029.436364 416.674344 
L 1044.654545 420.586577 
L 1059.872727 423.883172 
L 1075.090909 422.820784 
L 1090.309091 421.576011 
L 1105.527273 416.003102 
L 1120.745455 378.673696 
" style="fill:none;stroke:#808080;stroke-linecap:square;stroke-opacity:0.4;"/>
   </g>
   <g id="line2d_27">
    <path clip-path="url(#p8420079a52)" d="M 207.654545 504 
L 222.872727 504 
L 238.090909 504 
L 253.309091 504 
L 268.527273 504 
L 283.745455 504 
L 298.963636 504 
L 314.181818 504 
L 329.4 504 
L 344.618182 504 
L 359.836364 504 
L 375.054545 504 
L 390.272727 504 
L 392.202721 -1 
M 667.861736 -1 
L 679.418182 70.551249 
L 694.636364 177.562885 
L 709.854545 226.606231 
L 725.072727 256.074841 
L 740.290909 283.876222 
L 755.509091 321.676308 
L 770.727273 347.919234 
L 785.945455 367.922483 
L 801.163636 391.666097 
L 816.381818 394.126673 
L 831.6 392.290335 
L 846.818182 390.827163 
L 862.036364 386.538252 
L 877.254545 377.194711 
L 892.472727 367.569011 
L 907.690909 344.882557 
L 922.909091 337.990508 
L 938.127273 337.743032 
L 953.345455 316.200114 
L 968.563636 329.662053 
L 983.781818 349.426392 
L 999 325.530832 
L 1014.218182 327.09282 
L 1029.436364 335.4013 
L 1044.654545 324.821714 
L 1059.872727 329.638343 
L 1075.090909 341.143716 
L 1090.309091 322.531459 
L 1105.527273 328.432508 
L 1120.745455 320.514633 
" style="fill:none;stroke:#808080;stroke-linecap:square;stroke-opacity:0.4;"/>
   </g>
   <g id="line2d_28">
    <path clip-path="url(#p8420079a52)" d="M 207.654545 504 
L 222.872727 504 
L 238.090909 504 
L 253.309091 504 
L 261.237215 -1 
M 669.685721 -1 
L 679.418182 5.238597 
L 694.636364 81.26361 
L 709.854545 68.273101 
L 725.072727 97.118287 
L 740.290909 127.240321 
L 755.509091 132.708701 
L 770.727273 157.999095 
L 785.945455 184.960764 
L 801.163636 186.813451 
L 816.381818 196.812869 
L 831.6 208.711948 
L 846.818182 219.55142 
L 862.036364 234.236667 
L 877.254545 250.100788 
L 892.472727 250.555872 
L 907.690909 266.597754 
L 922.909091 268.077342 
L 938.127273 271.800879 
L 953.345455 281.346753 
L 968.563636 280.405317 
L 983.781818 280.794474 
L 999 283.536447 
L 1014.218182 271.596906 
L 1029.436364 254.9794 
L 1044.654545 240.557734 
L 1059.872727 237.316969 
L 1075.090909 231.141876 
L 1090.309091 237.824349 
L 1105.527273 229.97356 
L 1120.745455 227.807594 
" style="fill:none;stroke:#808080;stroke-linecap:square;stroke-opacity:0.4;"/>
   </g>
   <g id="line2d_29">
    <path clip-path="url(#p8420079a52)" d="M 207.654545 504 
L 222.872727 504 
L 238.090909 504 
L 253.309091 504 
L 268.527273 504 
L 283.745455 504 
L 288.263156 -1 
M 665.573953 -1 
L 679.418182 42.063352 
L 694.636364 82.7106 
L 709.854545 122.416209 
L 725.072727 144.764031 
L 740.290909 172.681097 
L 755.509091 194.44665 
L 770.727273 217.098511 
L 785.945455 239.103085 
L 801.163636 254.158283 
L 816.381818 262.677052 
L 831.6 281.913106 
L 846.818182 294.080908 
L 862.036364 302.131838 
L 877.254545 299.249724 
L 892.472727 291.077086 
L 907.690909 285.967172 
L 922.909091 291.243419 
L 938.127273 295.252716 
L 953.345455 292.570318 
L 968.563636 286.724879 
L 983.781818 275.956599 
L 999 269.990891 
L 1014.218182 257.575861 
L 1029.436364 248.801468 
L 1044.654545 242.411008 
L 1059.872727 241.544188 
L 1075.090909 241.633487 
L 1090.309091 255.697104 
L 1105.527273 256.872364 
L 1120.745455 257.977951 
" style="fill:none;stroke:#808080;stroke-linecap:square;stroke-opacity:0.4;"/>
   </g>
   <g id="line2d_30">
    <path clip-path="url(#p8420079a52)" d="M 207.654545 504 
L 222.872727 504 
L 238.090909 504 
L 253.309091 504 
L 260.162209 -1 
M 570.503732 -1 
L 572.890909 10.276108 
L 588.109091 54.95564 
L 603.327273 73.577242 
L 618.545455 93.663936 
L 633.763636 118.645314 
L 648.981818 154.187491 
L 664.2 164.446533 
L 679.418182 188.85162 
L 694.636364 212.631793 
L 709.854545 211.291173 
L 725.072727 223.863461 
L 740.290909 262.571454 
L 755.509091 265.11389 
L 770.727273 294.51329 
L 785.945455 298.300204 
L 801.163636 300.876315 
L 816.381818 289.145944 
L 831.6 308.186144 
L 846.818182 287.425418 
L 862.036364 293.580198 
L 877.254545 294.910131 
L 892.472727 248.503534 
L 907.690909 197.187441 
L 922.909091 169.228059 
L 938.127273 70.001961 
L 953.345455 100.170133 
L 968.563636 121.738434 
L 983.781818 161.18351 
L 999 162.319691 
L 1014.218182 162.295083 
L 1029.436364 150.89161 
L 1044.654545 166.039435 
L 1059.872727 185.612021 
L 1075.090909 224.58947 
L 1090.309091 235.290767 
L 1105.527273 246.279551 
L 1120.745455 248.586015 
" style="fill:none;stroke:#808080;stroke-linecap:square;stroke-opacity:0.4;"/>
   </g>
   <g id="line2d_31">
    <path clip-path="url(#p8420079a52)" d="M 207.654545 504 
L 222.872727 504 
L 238.090909 504 
L 253.309091 504 
L 268.527273 504 
L 272.695666 -1 
M 589.446083 -1 
L 603.327273 61.430637 
L 618.545455 72.949921 
L 633.763636 81.705334 
L 648.981818 148.924859 
L 664.2 193.280849 
L 679.418182 221.507519 
L 694.636364 208.12929 
L 709.854545 210.49809 
L 725.072727 181.09315 
L 740.290909 155.649324 
L 755.509091 166.331946 
L 770.727273 192.796152 
L 785.945455 187.204591 
L 801.163636 214.869776 
L 816.381818 229.81532 
L 831.6 248.87986 
L 846.818182 250.999131 
L 862.036364 261.832241 
L 877.254545 259.612747 
L 892.472727 273.411578 
L 907.690909 266.697441 
L 922.909091 280.930124 
L 938.127273 290.903478 
L 953.345455 277.710404 
L 968.563636 261.976752 
L 983.781818 272.091559 
L 999 252.38559 
L 1014.218182 273.981075 
L 1029.436364 275.232701 
L 1044.654545 280.076464 
L 1059.872727 277.955993 
L 1075.090909 297.338212 
L 1090.309091 304.355794 
L 1105.527273 298.156892 
L 1120.745455 281.760605 
" style="fill:none;stroke:#808080;stroke-linecap:square;stroke-opacity:0.4;"/>
   </g>
   <g id="line2d_32">
    <path clip-path="url(#p8420079a52)" d="M 207.654545 504 
L 222.872727 504 
L 238.090909 504 
L 253.309091 504 
L 268.527273 504 
L 283.745455 504 
L 298.963636 504 
L 314.181818 504 
L 329.4 504 
L 344.618182 504 
L 345.626496 -1 
M 600.36486 -1 
L 603.327273 24.392989 
L 618.545455 27.459241 
L 633.763636 28.888987 
L 642.367978 -1 
M 714.872039 -1 
L 725.072727 82.73108 
L 740.290909 102.852658 
L 755.509091 159.083876 
L 770.727273 172.797003 
L 785.945455 227.177833 
L 801.163636 263.733509 
L 816.381818 296.541988 
L 831.6 325.170301 
L 846.818182 350.128807 
L 862.036364 368.115239 
L 877.254545 385.886943 
L 892.472727 392.38523 
L 907.690909 397.210217 
L 922.909091 389.148844 
L 938.127273 391.36765 
L 953.345455 378.911919 
L 968.563636 380.051393 
L 983.781818 361.87374 
L 999 352.091706 
L 1014.218182 349.769879 
L 1029.436364 341.490008 
L 1044.654545 339.557158 
L 1059.872727 335.869312 
L 1075.090909 336.780186 
L 1090.309091 336.016941 
L 1105.527273 326.633005 
L 1120.745455 320.754337 
" style="fill:none;stroke:#808080;stroke-linecap:square;stroke-opacity:0.4;"/>
   </g>
   <g id="line2d_33">
    <path clip-path="url(#p8420079a52)" d="M 207.654545 504 
L 222.872727 504 
L 238.090909 504 
L 253.309091 504 
L 254.553194 -1 
M 406.436458 -1 
L 420.709091 97.300023 
L 435.927273 118.437901 
L 451.145455 92.330335 
L 466.363636 109.202203 
L 481.581818 96.428893 
L 496.8 87.427604 
L 512.018182 135.258634 
L 527.236364 160.985505 
L 542.454545 186.911076 
L 557.672727 165.914287 
L 572.890909 198.756713 
L 588.109091 231.866157 
L 603.327273 278.576109 
L 618.545455 292.377118 
L 633.763636 301.798021 
L 648.981818 313.626208 
L 664.2 321.503133 
L 679.418182 323.785965 
L 694.636364 323.428424 
L 709.854545 298.080499 
L 725.072727 278.986833 
L 740.290909 245.639803 
L 755.509091 281.858493 
L 770.727273 277.940062 
L 785.945455 288.200395 
L 801.163636 285.170477 
L 816.381818 307.550864 
L 831.6 325.838768 
L 846.818182 339.941255 
L 862.036364 341.309646 
L 877.254545 339.292244 
L 892.472727 335.586103 
L 907.690909 337.838671 
L 922.909091 325.866742 
L 938.127273 319.623788 
L 953.345455 298.793452 
L 968.563636 285.968862 
L 983.781818 264.049704 
L 999 273.043577 
L 1014.218182 267.330878 
L 1029.436364 255.878823 
L 1044.654545 233.609906 
L 1059.872727 254.228464 
L 1075.090909 239.255209 
L 1090.309091 234.740408 
L 1105.527273 204.029781 
L 1120.745455 262.427061 
" style="fill:none;stroke:#808080;stroke-linecap:square;stroke-opacity:0.4;"/>
   </g>
   <g id="line2d_34">
    <path clip-path="url(#p8420079a52)" d="M 251.135935 -1 
L 253.309091 111.186867 
L 259.750606 -1 
M 555.705785 -1 
L 557.672727 3.752237 
L 572.890909 84.173055 
L 588.109091 1.194707 
L 603.327273 17.619212 
L 618.545455 9.839144 
L 633.763636 20.437113 
L 648.981818 6.556213 
L 664.2 105.255818 
L 679.418182 105.320173 
L 694.636364 155.49647 
L 709.854545 170.713657 
L 725.072727 206.728983 
L 740.290909 192.232868 
L 755.509091 215.736106 
L 770.727273 255.011747 
L 785.945455 281.745958 
L 801.163636 280.662557 
L 816.381818 286.622382 
L 831.6 290.344764 
L 846.818182 281.433744 
L 862.036364 275.021398 
L 877.254545 301.14809 
L 892.472727 281.798353 
L 907.690909 264.927302 
L 922.909091 257.570194 
L 938.127273 269.121096 
L 953.345455 247.791777 
L 968.563636 233.860581 
L 983.781818 259.956887 
L 999 257.719185 
L 1014.218182 245.62481 
L 1029.436364 239.475088 
L 1044.654545 270.044803 
L 1059.872727 266.333284 
L 1075.090909 254.717335 
L 1090.309091 273.995205 
L 1105.527273 270.18619 
L 1120.745455 270.823181 
" style="fill:none;stroke:#808080;stroke-linecap:square;stroke-opacity:0.4;"/>
   </g>
   <g id="line2d_35">
    <path clip-path="url(#p8420079a52)" d="M 207.654545 504 
L 222.872727 504 
L 238.090909 504 
L 240.01631 -1 
M 358.717566 -1 
L 359.836364 58.583403 
L 375.054545 7.8747 
L 390.272727 21.073034 
L 397.472375 -1 
M 433.753483 -1 
L 435.927273 16.309733 
L 451.145455 3.386554 
L 451.920663 -1 
M 640.225214 -1 
L 648.981818 10.137342 
L 664.2 39.702626 
L 679.418182 78.513414 
L 694.636364 118.749256 
L 709.854545 154.647046 
L 725.072727 187.798527 
L 740.290909 199.275865 
L 755.509091 193.401297 
L 770.727273 186.749548 
L 785.945455 180.214504 
L 801.163636 181.9352 
L 816.381818 203.868766 
L 831.6 210.88848 
L 846.818182 237.881432 
L 862.036364 242.15602 
L 877.254545 245.386189 
L 892.472727 248.193764 
L 907.690909 260.064644 
L 922.909091 273.72096 
L 938.127273 287.192481 
L 953.345455 290.422263 
L 968.563636 274.063154 
L 983.781818 259.172367 
L 999 251.689703 
L 1014.218182 241.153272 
L 1029.436364 250.764722 
L 1044.654545 266.372328 
L 1059.872727 273.28126 
L 1075.090909 277.056184 
L 1090.309091 284.634898 
L 1105.527273 295.437209 
L 1120.745455 310.395767 
" style="fill:none;stroke:#808080;stroke-linecap:square;stroke-opacity:0.4;"/>
   </g>
   <g id="line2d_36">
    <path clip-path="url(#p8420079a52)" d="M 207.654545 504 
L 211.092539 -1 
M 471.211354 -1 
L 481.581818 39.271399 
L 496.8 71.409312 
L 512.018182 108.497441 
L 527.236364 129.898565 
L 542.454545 145.834515 
L 557.672727 179.367132 
L 572.890909 202.652943 
L 588.109091 218.165517 
L 603.327273 228.881703 
L 618.545455 238.493884 
L 633.763636 243.272802 
L 648.981818 243.868851 
L 664.2 256.88429 
L 679.418182 265.781107 
L 694.636364 278.947309 
L 709.854545 282.344824 
L 725.072727 288.911748 
L 740.290909 294.925705 
L 755.509091 295.971185 
L 770.727273 305.566106 
L 785.945455 314.032442 
L 801.163636 318.042536 
L 816.381818 318.854065 
L 831.6 322.312458 
L 846.818182 324.461482 
L 862.036364 318.484241 
L 877.254545 319.776703 
L 892.472727 317.102269 
L 907.690909 317.507883 
L 922.909091 313.902947 
L 938.127273 306.844963 
L 953.345455 298.852244 
L 968.563636 279.606263 
L 983.781818 273.245721 
L 999 276.926582 
L 1014.218182 282.175444 
L 1029.436364 281.536879 
L 1044.654545 284.074739 
L 1059.872727 277.809695 
L 1075.090909 268.742596 
L 1090.309091 276.43132 
L 1105.527273 286.616069 
L 1120.745455 292.818277 
" style="fill:none;stroke:#808080;stroke-linecap:square;stroke-opacity:0.4;"/>
   </g>
   <g id="line2d_37">
    <path clip-path="url(#p8420079a52)" d="M 207.654545 504 
L 222.872727 504 
L 238.090909 504 
L 244.886442 -1 
M 490.107532 -1 
L 496.8 104.879371 
L 512.018182 120.376172 
L 527.236364 101.416252 
L 542.454545 146.614782 
L 557.672727 160.092925 
L 572.890909 142.044531 
L 588.109091 137.037194 
L 603.327273 223.91167 
L 618.545455 208.066707 
L 633.763636 245.492741 
L 648.981818 240.502755 
L 664.2 241.365177 
L 679.418182 222.314306 
L 694.636364 203.055246 
L 709.854545 235.201573 
L 725.072727 243.019746 
L 740.290909 230.632604 
L 755.509091 226.129939 
L 770.727273 240.150088 
L 785.945455 228.763174 
L 801.163636 237.217696 
L 816.381818 251.251465 
L 831.6 235.882161 
L 846.818182 231.29108 
L 862.036364 216.747259 
L 877.254545 236.008446 
L 892.472727 258.418542 
L 907.690909 211.348698 
L 922.909091 234.050124 
L 938.127273 218.09206 
L 953.345455 215.360015 
L 968.563636 155.414015 
L 983.781818 200.070875 
L 999 107.73873 
L 1014.218182 114.44788 
L 1029.436364 85.530195 
L 1044.654545 129.88364 
L 1059.872727 133.206001 
L 1075.090909 154.968787 
L 1090.309091 104.29618 
L 1105.527273 144.109523 
L 1120.745455 122.143856 
" style="fill:none;stroke:#808080;stroke-linecap:square;stroke-opacity:0.4;"/>
   </g>
   <g id="line2d_38">
    <path clip-path="url(#p8420079a52)" d="M 302.857778 -1 
L 314.181818 24.036632 
L 329.4 71.647122 
L 344.618182 89.611993 
L 359.836364 125.327635 
L 375.054545 146.610092 
L 390.272727 152.136178 
L 405.490909 188.148978 
L 420.709091 215.263011 
L 435.927273 230.980953 
L 451.145455 242.720589 
L 466.363636 258.721952 
L 481.581818 259.313443 
L 496.8 258.237977 
L 512.018182 266.952947 
L 527.236364 269.681112 
L 542.454545 271.325688 
L 557.672727 271.354511 
L 572.890909 272.148513 
L 588.109091 272.825319 
L 603.327273 264.253281 
L 618.545455 269.925823 
L 633.763636 269.206184 
L 648.981818 272.250359 
L 664.2 268.581602 
L 679.418182 269.024219 
L 694.636364 266.736128 
L 709.854545 258.093311 
L 725.072727 259.637138 
L 740.290909 263.562494 
L 755.509091 264.203088 
L 770.727273 257.807784 
L 785.945455 253.758245 
L 801.163636 249.604128 
L 816.381818 239.971457 
L 831.6 253.986753 
L 846.818182 260.782691 
L 862.036364 264.22494 
L 877.254545 264.272279 
L 892.472727 269.459006 
L 907.690909 271.463224 
L 922.909091 267.859112 
L 938.127273 276.087057 
L 953.345455 282.861929 
L 968.563636 290.302335 
L 983.781818 291.178961 
L 999 292.170105 
L 1014.218182 288.986954 
L 1029.436364 277.062318 
L 1044.654545 281.511226 
L 1059.872727 285.000209 
L 1075.090909 291.605143 
L 1090.309091 287.865537 
L 1105.527273 288.491291 
L 1120.745455 286.209077 
" style="fill:none;stroke:#808080;stroke-linecap:square;stroke-opacity:0.4;"/>
   </g>
   <g id="line2d_39">
    <path clip-path="url(#p8420079a52)" d="M 384.552764 -1 
L 390.272727 23.178236 
L 405.490909 73.844855 
L 420.709091 119.044497 
L 435.927273 136.616118 
L 451.145455 148.205872 
L 466.363636 198.233492 
L 481.581818 235.54436 
L 496.8 260.072383 
L 512.018182 279.006101 
L 527.236364 292.123075 
L 542.454545 300.113244 
L 557.672727 303.553198 
L 572.890909 318.024116 
L 588.109091 327.048878 
L 603.327273 330.558979 
L 618.545455 326.982997 
L 633.763636 327.984783 
L 648.981818 326.105999 
L 664.2 315.020566 
L 679.418182 315.052717 
L 694.636364 314.11278 
L 709.854545 307.298872 
L 725.072727 300.343375 
L 740.290909 294.462153 
L 755.509091 292.501243 
L 770.727273 276.495958 
L 785.945455 280.068749 
L 801.163636 284.77213 
L 816.381818 287.36 
L 831.6 279.57131 
L 846.818182 278.912501 
L 862.036364 271.399229 
L 877.254545 246.231689 
L 892.472727 251.57901 
L 907.690909 270.971494 
L 922.909091 282.786151 
L 938.127273 289.877989 
L 953.345455 300.293996 
L 968.563636 302.301139 
L 983.781818 304.824326 
L 999 321.731634 
L 1014.218182 339.683136 
L 1029.436364 346.318226 
L 1044.654545 346.926446 
L 1059.872727 342.486475 
L 1075.090909 342.531927 
L 1090.309091 330.46225 
L 1105.527273 319.519135 
L 1120.745455 308.193238 
" style="fill:none;stroke:#808080;stroke-linecap:square;stroke-opacity:0.4;"/>
   </g>
   <g id="line2d_40">
    <path clip-path="url(#p8420079a52)" d="M 207.654545 504 
L 222.872727 504 
L 238.090909 504 
L 253.309091 504 
L 268.527273 504 
L 283.745455 504 
L 298.963636 504 
L 314.181818 504 
L 329.4 504 
L 334.583759 -1 
M 579.929706 -1 
L 588.109091 55.347993 
L 603.327273 97.617806 
L 618.545455 151.159349 
L 633.763636 167.187629 
L 648.981818 207.276177 
L 664.2 248.219016 
L 679.418182 271.79291 
L 694.636364 289.510239 
L 709.854545 304.774863 
L 725.072727 324.986583 
L 740.290909 342.549576 
L 755.509091 349.681243 
L 770.727273 357.556719 
L 785.945455 360.950296 
L 801.163636 358.254269 
L 816.381818 362.756147 
L 831.6 382.457441 
L 846.818182 387.060937 
L 862.036364 388.761459 
L 877.254545 394.457416 
L 892.472727 395.368864 
L 907.690909 398.067384 
L 922.909091 403.04262 
L 938.127273 403.715717 
L 953.345455 412.646288 
L 968.563636 410.687721 
L 983.781818 408.448613 
L 999 418.206994 
L 1014.218182 419.727674 
L 1029.436364 412.491132 
L 1044.654545 424.791712 
L 1059.872727 424.52305 
L 1075.090909 405.522261 
L 1090.309091 387.325931 
L 1105.527273 404.663617 
L 1120.745455 409.661126 
" style="fill:none;stroke:#808080;stroke-linecap:square;stroke-opacity:0.4;"/>
   </g>
   <g id="line2d_41">
    <path clip-path="url(#p8420079a52)" d="M 497.269777 -1 
L 512.018182 23.497418 
L 527.236364 56.308061 
L 542.454545 116.701298 
L 557.672727 139.996163 
L 572.890909 154.923063 
L 588.109091 199.095482 
L 603.327273 233.477953 
L 618.545455 228.937793 
L 633.763636 259.199977 
L 648.981818 259.54248 
L 664.2 268.916425 
L 679.418182 283.245876 
L 694.636364 286.510764 
L 709.854545 292.599944 
L 725.072727 299.876834 
L 740.290909 294.393141 
L 755.509091 296.272253 
L 770.727273 307.85496 
L 785.945455 309.421429 
L 801.163636 305.726781 
L 816.381818 314.354585 
L 831.6 312.922636 
L 846.818182 315.466507 
L 862.036364 311.065414 
L 877.254545 303.673416 
L 892.472727 289.628819 
L 907.690909 294.385086 
L 922.909091 299.315128 
L 938.127273 309.677765 
L 953.345455 312.947461 
L 968.563636 301.604473 
L 983.781818 299.41474 
L 999 302.575328 
L 1014.218182 304.615893 
L 1029.436364 297.769291 
L 1044.654545 316.269091 
L 1059.872727 314.877726 
L 1075.090909 319.159328 
L 1090.309091 317.066126 
L 1105.527273 315.134659 
L 1120.745455 315.459867 
" style="fill:none;stroke:#808080;stroke-linecap:square;stroke-opacity:0.4;"/>
   </g>
   <g id="line2d_42">
    <path clip-path="url(#p8420079a52)" d="M 207.654545 62.085262 
L 222.0859 -1 
M 275.492303 -1 
L 283.745455 183.253871 
L 298.963636 190.381563 
L 314.181818 106.749013 
L 322.895911 -1 
M 504.7062 -1 
L 512.018182 32.674873 
L 525.728727 -1 
M 529.063801 -1 
L 542.454545 26.133758 
L 557.672727 18.892176 
L 572.890909 33.763624 
L 588.109091 18.564176 
L 603.327273 46.933207 
L 618.545455 69.042221 
L 633.763636 88.208888 
L 648.981818 112.56878 
L 664.2 152.545944 
L 679.418182 189.300589 
L 694.636364 236.778906 
L 709.854545 254.807816 
L 725.072727 277.334765 
L 740.290909 283.783952 
L 755.509091 299.361024 
L 770.727273 302.507617 
L 785.945455 315.179591 
L 801.163636 306.979842 
L 816.381818 294.807899 
L 831.6 277.025055 
L 846.818182 277.173407 
L 862.036364 266.130957 
L 877.254545 270.676686 
L 892.472727 261.281203 
L 907.690909 255.272608 
L 922.909091 251.12945 
L 938.127273 257.778733 
L 953.345455 253.993241 
L 968.563636 272.330399 
L 983.781818 272.446276 
L 999 271.153721 
L 1014.218182 269.045795 
L 1029.436364 266.136855 
L 1044.654545 250.337265 
L 1059.872727 245.645439 
L 1075.090909 225.288728 
L 1090.309091 223.395977 
L 1105.527273 250.005978 
L 1120.745455 262.603065 
" style="fill:none;stroke:#808080;stroke-linecap:square;stroke-opacity:0.4;"/>
   </g>
   <g id="line2d_43">
    <path clip-path="url(#p8420079a52)" d="M 207.654545 504 
L 222.872727 504 
L 238.090909 504 
L 253.309091 504 
L 268.527273 504 
L 283.745455 504 
L 298.963636 504 
L 314.181818 504 
L 319.189052 -1 
M 696.03053 -1 
L 709.854545 43.388801 
L 725.072727 54.665229 
L 740.290909 99.423142 
L 755.509091 133.350245 
L 770.727273 173.161273 
L 785.945455 203.710912 
L 801.163636 221.802428 
L 816.381818 239.874015 
L 831.6 258.266565 
L 846.818182 265.361138 
L 862.036364 276.960579 
L 877.254545 287.225864 
L 892.472727 292.803077 
L 907.690909 295.060044 
L 922.909091 298.83066 
L 938.127273 301.468753 
L 953.345455 297.049468 
L 968.563636 296.782855 
L 983.781818 291.239657 
L 999 286.676427 
L 1014.218182 287.916315 
L 1029.436364 290.523115 
L 1044.654545 292.304788 
L 1059.872727 297.010159 
L 1075.090909 303.676598 
L 1090.309091 304.004791 
L 1105.527273 311.145495 
L 1120.745455 322.295507 
" style="fill:none;stroke:#808080;stroke-linecap:square;stroke-opacity:0.4;"/>
   </g>
   <g id="line2d_44">
    <path clip-path="url(#p8420079a52)" d="M 207.654545 504 
L 222.872727 504 
L 238.090909 504 
L 253.309091 504 
L 268.527273 504 
L 283.745455 504 
L 298.963636 504 
L 314.181818 504 
L 329.4 504 
L 344.618182 504 
L 359.836364 504 
L 375.054545 504 
L 380.151174 -1 
M 620.418233 -1 
L 633.763636 89.134423 
L 648.981818 60.635081 
L 664.2 54.630455 
L 679.418182 83.390929 
L 694.636364 79.627129 
L 709.854545 98.268602 
L 725.072727 93.690759 
L 740.290909 129.41585 
L 755.509091 121.841814 
L 770.727273 133.046556 
L 785.945455 134.416151 
L 801.163636 170.963003 
L 816.381818 179.751507 
L 831.6 205.275433 
L 846.818182 231.376155 
L 862.036364 245.724902 
L 877.254545 249.679884 
L 892.472727 266.690574 
L 907.690909 273.359865 
L 922.909091 282.790975 
L 938.127273 284.105085 
L 953.345455 288.251356 
L 968.563636 275.459421 
L 983.781818 257.81901 
L 999 244.872285 
L 1014.218182 243.672454 
L 1029.436364 243.555585 
L 1044.654545 250.800105 
L 1059.872727 246.270546 
L 1075.090909 241.727239 
L 1090.309091 228.263703 
L 1105.527273 223.433952 
L 1120.745455 232.107019 
" style="fill:none;stroke:#808080;stroke-linecap:square;stroke-opacity:0.4;"/>
   </g>
   <g id="line2d_45">
    <path clip-path="url(#p8420079a52)" d="M 207.654545 504 
L 222.872727 504 
L 238.090909 504 
L 253.309091 504 
L 268.527273 504 
L 283.745455 504 
L 284.156991 -1 
M 628.154694 -1 
L 633.763636 21.816854 
L 648.981818 79.509298 
L 664.2 118.591356 
L 679.418182 142.510888 
L 694.636364 159.122198 
L 709.854545 178.114626 
L 725.072727 195.637473 
L 740.290909 215.757468 
L 755.509091 232.083365 
L 770.727273 238.878445 
L 785.945455 239.204994 
L 801.163636 242.414733 
L 816.381818 249.830274 
L 831.6 267.655511 
L 846.818182 282.706607 
L 862.036364 295.2761 
L 877.254545 303.006233 
L 892.472727 309.482428 
L 907.690909 315.045255 
L 922.909091 325.737724 
L 938.127273 334.154729 
L 953.345455 339.673202 
L 968.563636 342.413569 
L 983.781818 345.650605 
L 999 346.621559 
L 1014.218182 340.326451 
L 1029.436364 324.298394 
L 1044.654545 311.758549 
L 1059.872727 302.888344 
L 1075.090909 303.857174 
L 1090.309091 319.614065 
L 1105.527273 324.601572 
L 1120.745455 323.971443 
" style="fill:none;stroke:#808080;stroke-linecap:square;stroke-opacity:0.4;"/>
   </g>
   <g id="line2d_46">
    <path clip-path="url(#p8420079a52)" d="M 437.903663 -1 
L 451.145455 47.503987 
L 466.363636 48.021172 
L 481.581818 61.950485 
L 496.8 140.701156 
L 512.018182 188.476427 
L 527.236364 224.681917 
L 542.454545 242.163254 
L 557.672727 254.199808 
L 572.890909 257.725278 
L 588.109091 251.437693 
L 603.327273 262.556214 
L 618.545455 272.583919 
L 633.763636 270.804942 
L 648.981818 262.564952 
L 664.2 259.259639 
L 679.418182 246.908151 
L 694.636364 215.256733 
L 709.854545 233.31466 
L 725.072727 238.565221 
L 740.290909 243.071703 
L 755.509091 252.578593 
L 770.727273 262.183104 
L 785.945455 256.930747 
L 801.163636 244.823652 
L 816.381818 248.635045 
L 831.6 256.276386 
L 846.818182 265.746166 
L 862.036364 279.170272 
L 877.254545 274.146787 
L 892.472727 262.420177 
L 907.690909 227.341497 
L 922.909091 231.673988 
L 938.127273 245.334746 
L 953.345455 247.212283 
L 968.563636 247.006872 
L 983.781818 259.900315 
L 999 261.923364 
L 1014.218182 254.197561 
L 1029.436364 274.521928 
L 1044.654545 286.712407 
L 1059.872727 283.461855 
L 1075.090909 288.281554 
L 1090.309091 286.924042 
L 1105.527273 275.293407 
L 1120.745455 254.472815 
" style="fill:none;stroke:#808080;stroke-linecap:square;stroke-opacity:0.4;"/>
   </g>
   <g id="line2d_47">
    <path clip-path="url(#p8420079a52)" d="M 207.654545 504 
L 222.872727 504 
L 238.090909 504 
L 253.309091 504 
L 268.527273 504 
L 283.745455 504 
L 298.963636 504 
L 314.181818 504 
L 329.4 504 
L 344.618182 504 
L 359.836364 504 
L 364.466143 -1 
M 633.951576 -1 
L 648.981818 37.16068 
L 664.2 60.292777 
L 679.418182 84.364905 
L 694.636364 106.558723 
L 709.854545 137.979393 
L 725.072727 166.628963 
L 740.290909 193.204321 
L 755.509091 215.278147 
L 770.727273 227.829968 
L 785.945455 245.642144 
L 801.163636 260.683381 
L 816.381818 272.932301 
L 831.6 280.526894 
L 846.818182 283.276412 
L 862.036364 280.102354 
L 877.254545 265.707055 
L 892.472727 247.165046 
L 907.690909 200.532418 
L 922.909091 156.401222 
L 938.127273 122.960679 
L 953.345455 109.297525 
L 968.563636 140.925517 
L 983.781818 183.755132 
L 999 224.663909 
L 1014.218182 251.201886 
L 1029.436364 271.687345 
L 1044.654545 300.843843 
L 1059.872727 328.473871 
L 1075.090909 349.868077 
L 1090.309091 356.328217 
L 1105.527273 355.202234 
L 1120.745455 347.764241 
" style="fill:none;stroke:#808080;stroke-linecap:square;stroke-opacity:0.4;"/>
   </g>
   <g id="line2d_48">
    <path clip-path="url(#p8420079a52)" d="M 207.654545 504 
L 215.741228 -1 
M 252.268908 -1 
L 253.309091 35.159733 
L 254.947864 -1 
M 341.304233 -1 
L 344.618182 74.980293 
L 359.836364 48.505976 
L 370.260596 -1 
M 616.673272 -1 
L 618.545455 3.617169 
L 633.763636 97.247475 
L 648.981818 114.04896 
L 664.2 140.675368 
L 679.418182 147.985668 
L 694.636364 183.244841 
L 709.854545 196.402243 
L 725.072727 228.404495 
L 740.290909 248.287549 
L 755.509091 272.00946 
L 770.727273 285.40972 
L 785.945455 299.809783 
L 801.163636 298.555888 
L 816.381818 305.48716 
L 831.6 307.094213 
L 846.818182 312.549228 
L 862.036364 316.651823 
L 877.254545 324.066804 
L 892.472727 321.168305 
L 907.690909 324.949416 
L 922.909091 317.770076 
L 938.127273 321.848926 
L 953.345455 315.409451 
L 968.563636 314.010015 
L 983.781818 312.713592 
L 999 306.783343 
L 1014.218182 299.196876 
L 1029.436364 293.976946 
L 1044.654545 301.804689 
L 1059.872727 297.408077 
L 1075.090909 297.134924 
L 1090.309091 294.554849 
L 1105.527273 291.559982 
L 1120.745455 294.092988 
" style="fill:none;stroke:#808080;stroke-linecap:square;stroke-opacity:0.4;"/>
   </g>
   <g id="line2d_49">
    <path clip-path="url(#p8420079a52)" d="M 569.151176 -1 
L 572.890909 6.840346 
L 588.109091 43.721886 
L 603.327273 79.915841 
L 618.545455 112.936281 
L 633.763636 134.558041 
L 648.981818 154.072348 
L 664.2 179.639787 
L 679.418182 202.442371 
L 694.636364 232.944855 
L 709.854545 258.17792 
L 725.072727 278.708584 
L 740.290909 289.599985 
L 755.509091 300.696516 
L 770.727273 308.057079 
L 785.945455 314.431411 
L 801.163636 316.931888 
L 816.381818 320.613043 
L 831.6 321.815761 
L 846.818182 318.317772 
L 862.036364 310.183325 
L 877.254545 306.565802 
L 892.472727 301.481381 
L 907.690909 302.230863 
L 922.909091 304.788182 
L 938.127273 307.039945 
L 953.345455 304.041925 
L 968.563636 302.178855 
L 983.781818 305.792988 
L 999 309.992643 
L 1014.218182 313.211185 
L 1029.436364 313.613344 
L 1044.654545 318.301142 
L 1059.872727 319.746201 
L 1075.090909 317.22245 
L 1090.309091 314.580906 
L 1105.527273 313.502751 
L 1120.745455 310.509728 
" style="fill:none;stroke:#808080;stroke-linecap:square;stroke-opacity:0.4;"/>
   </g>
   <g id="line2d_50">
    <path clip-path="url(#p8420079a52)" d="M 207.654545 57.332855 
L 213.881828 -1 
M 312.920952 -1 
L 314.181818 42.381276 
L 329.4 101.026404 
L 344.618182 3.134233 
L 344.973789 -1 
M 476.80247 -1 
L 481.581818 14.942805 
L 491.400155 -1 
M 579.050646 -1 
L 588.109091 49.112574 
L 603.327273 66.370731 
L 618.545455 62.163848 
L 633.763636 66.344088 
L 648.981818 32.828777 
L 664.2 18.512511 
L 679.418182 14.449276 
L 694.636364 19.458534 
L 709.854545 36.632912 
L 725.072727 62.820715 
L 740.290909 93.786626 
L 755.509091 127.745056 
L 770.727273 170.123782 
L 785.945455 183.728033 
L 801.163636 203.25294 
L 816.381818 213.702743 
L 831.6 227.54733 
L 846.818182 245.616386 
L 862.036364 261.64745 
L 877.254545 262.412171 
L 892.472727 257.874029 
L 907.690909 254.04583 
L 922.909091 255.502404 
L 938.127273 260.5031 
L 953.345455 269.515608 
L 968.563636 272.789199 
L 983.781818 281.963377 
L 999 286.47272 
L 1014.218182 296.702964 
L 1029.436364 302.19356 
L 1044.654545 313.684308 
L 1059.872727 321.654847 
L 1075.090909 329.32403 
L 1090.309091 330.779827 
L 1105.527273 326.042782 
L 1120.745455 319.862229 
" style="fill:none;stroke:#808080;stroke-linecap:square;stroke-opacity:0.4;"/>
   </g>
   <g id="line2d_51">
    <path clip-path="url(#p8420079a52)" d="M 354.698248 -1 
L 359.836364 39.894595 
L 375.054545 35.038705 
L 390.272727 67.744002 
L 405.490909 35.55365 
L 420.709091 35.653182 
L 435.927273 45.63647 
L 451.145455 57.767711 
L 466.363636 68.706208 
L 481.581818 93.607089 
L 496.8 124.734792 
L 512.018182 162.476543 
L 527.236364 179.101239 
L 542.454545 209.330749 
L 557.672727 208.114864 
L 572.890909 229.531135 
L 588.109091 250.970447 
L 603.327273 270.407974 
L 618.545455 292.200115 
L 633.763636 312.952373 
L 648.981818 317.223192 
L 664.2 319.028402 
L 679.418182 320.055908 
L 694.636364 317.045557 
L 709.854545 313.935536 
L 725.072727 327.99129 
L 740.290909 321.524547 
L 755.509091 321.879165 
L 770.727273 316.353711 
L 785.945455 298.422591 
L 801.163636 299.370653 
L 816.381818 289.886405 
L 831.6 274.419129 
L 846.818182 278.095828 
L 862.036364 289.897533 
L 877.254545 289.719471 
L 892.472727 292.039444 
L 907.690909 294.041058 
L 922.909091 281.853144 
L 938.127273 295.000167 
L 953.345455 305.053331 
L 968.563636 311.80742 
L 983.781818 314.772065 
L 999 304.311311 
L 1014.218182 299.12985 
L 1029.436364 296.650321 
L 1044.654545 300.142498 
L 1059.872727 298.758648 
L 1075.090909 296.47596 
L 1090.309091 282.064397 
L 1105.527273 270.162823 
L 1120.745455 264.470671 
" style="fill:none;stroke:#808080;stroke-linecap:square;stroke-opacity:0.4;"/>
   </g>
   <g id="line2d_52">
    <path clip-path="url(#p8420079a52)" d="M 401.082973 -1 
L 405.490909 26.088751 
L 420.709091 39.64784 
L 435.927273 50.503244 
L 451.145455 119.229168 
L 466.363636 161.505421 
L 481.581818 192.344097 
L 496.8 215.59339 
L 512.018182 229.598494 
L 527.236364 243.156426 
L 542.454545 246.019368 
L 557.672727 266.640266 
L 572.890909 282.821987 
L 588.109091 292.068807 
L 603.327273 295.698017 
L 618.545455 307.722446 
L 633.763636 315.018274 
L 648.981818 312.775805 
L 664.2 324.922498 
L 679.418182 332.212991 
L 694.636364 331.343054 
L 709.854545 324.463657 
L 725.072727 314.360475 
L 740.290909 307.605781 
L 755.509091 279.956656 
L 770.727273 272.838018 
L 785.945455 259.102271 
L 801.163636 236.528032 
L 816.381818 206.127114 
L 831.6 196.362445 
L 846.818182 201.819267 
L 862.036364 178.251415 
L 877.254545 216.124744 
L 892.472727 228.406731 
L 907.690909 245.183708 
L 922.909091 239.523469 
L 938.127273 235.513091 
L 953.345455 226.981424 
L 968.563636 202.386371 
L 983.781818 208.302793 
L 999 255.204336 
L 1014.218182 287.651775 
L 1029.436364 293.800005 
L 1044.654545 294.337597 
L 1059.872727 292.050547 
L 1075.090909 279.882955 
L 1090.309091 300.369837 
L 1105.527273 316.664855 
L 1120.745455 328.616249 
" style="fill:none;stroke:#808080;stroke-linecap:square;stroke-opacity:0.4;"/>
   </g>
   <g id="line2d_53">
    <path clip-path="url(#p8420079a52)" d="M 535.682758 -1 
L 542.454545 26.313934 
L 557.672727 41.561911 
L 572.890909 57.854913 
L 588.109091 116.067524 
L 603.327273 140.660567 
L 618.545455 154.263845 
L 633.763636 176.723626 
L 648.981818 180.282659 
L 664.2 159.950622 
L 679.418182 178.792508 
L 694.636364 199.73373 
L 709.854545 216.53784 
L 725.072727 249.646962 
L 740.290909 258.550922 
L 755.509091 273.170254 
L 770.727273 279.14386 
L 785.945455 285.864454 
L 801.163636 297.807474 
L 816.381818 311.744599 
L 831.6 315.043113 
L 846.818182 317.570786 
L 862.036364 317.39635 
L 877.254545 308.775015 
L 892.472727 302.136523 
L 907.690909 303.021606 
L 922.909091 290.637709 
L 938.127273 286.694256 
L 953.345455 280.98929 
L 968.563636 282.326097 
L 983.781818 272.986679 
L 999 265.972202 
L 1014.218182 259.431487 
L 1029.436364 257.176679 
L 1044.654545 258.107163 
L 1059.872727 266.959248 
L 1075.090909 271.22221 
L 1090.309091 267.977785 
L 1105.527273 269.111773 
L 1120.745455 272.702577 
" style="fill:none;stroke:#808080;stroke-linecap:square;stroke-opacity:0.4;"/>
   </g>
   <g id="line2d_54">
    <path clip-path="url(#p8420079a52)" d="M 207.654545 504 
L 222.872727 504 
L 238.090909 504 
L 253.309091 504 
L 268.527273 504 
L 274.429959 -1 
M 510.434777 -1 
L 512.018182 19.422808 
L 516.098507 -1 
M 564.982196 -1 
L 572.890909 16.839922 
L 588.109091 75.020479 
L 603.327273 166.462797 
L 618.545455 140.9878 
L 633.763636 161.123879 
L 648.981818 161.129376 
L 664.2 192.709391 
L 679.418182 208.662028 
L 694.636364 238.752184 
L 709.854545 248.966783 
L 725.072727 271.348633 
L 740.290909 281.181878 
L 755.509091 300.287373 
L 770.727273 321.538109 
L 785.945455 320.147461 
L 801.163636 310.214339 
L 816.381818 326.355122 
L 831.6 315.172682 
L 846.818182 304.54037 
L 862.036364 300.826815 
L 877.254545 296.194357 
L 892.472727 265.668302 
L 907.690909 245.738729 
L 922.909091 254.329015 
L 938.127273 251.920895 
L 953.345455 241.755368 
L 968.563636 237.400446 
L 983.781818 255.12195 
L 999 247.049617 
L 1014.218182 252.17732 
L 1029.436364 281.821629 
L 1044.654545 287.40562 
L 1059.872727 275.315126 
L 1075.090909 278.702733 
L 1090.309091 286.896976 
L 1105.527273 286.204779 
L 1120.745455 283.378687 
" style="fill:none;stroke:#808080;stroke-linecap:square;stroke-opacity:0.4;"/>
   </g>
   <g id="line2d_55">
    <path clip-path="url(#p8420079a52)" d="M 207.654545 504 
L 222.872727 504 
L 238.090909 504 
L 253.309091 504 
L 268.527273 504 
L 283.745455 504 
L 298.963636 504 
L 313.404074 -1 
M 574.851081 -1 
L 588.109091 69.935587 
L 603.327273 114.029655 
L 618.545455 151.243467 
L 633.763636 170.677749 
L 648.981818 169.544499 
L 664.2 185.980985 
L 679.418182 191.804496 
L 694.636364 178.741392 
L 709.854545 196.838807 
L 725.072727 244.534532 
L 740.290909 256.501345 
L 755.509091 263.648425 
L 770.727273 272.177517 
L 785.945455 282.874578 
L 801.163636 305.879557 
L 816.381818 341.462545 
L 831.6 363.303186 
L 846.818182 377.692812 
L 862.036364 386.914112 
L 877.254545 394.423391 
L 892.472727 408.11555 
L 907.690909 417.564859 
L 922.909091 414.789176 
L 938.127273 416.665958 
L 953.345455 420.431728 
L 968.563636 413.066242 
L 983.781818 407.158314 
L 999 406.815896 
L 1014.218182 385.568638 
L 1029.436364 372.917152 
L 1044.654545 375.294508 
L 1059.872727 349.366872 
L 1075.090909 343.254544 
L 1090.309091 330.256981 
L 1105.527273 306.651748 
L 1120.745455 292.857661 
" style="fill:none;stroke:#808080;stroke-linecap:square;stroke-opacity:0.4;"/>
   </g>
   <g id="line2d_56">
    <path clip-path="url(#p8420079a52)" d="M 207.654545 504 
L 222.872727 504 
L 225.05242 -1 
M 358.787397 -1 
L 359.836364 3.514285 
L 360.21289 -1 
M 554.816461 -1 
L 557.672727 22.660843 
L 564.086894 -1 
M 577.172429 -1 
L 588.109091 81.957871 
L 603.327273 82.972946 
L 618.545455 108.896264 
L 633.763636 67.043724 
L 648.981818 97.005245 
L 664.2 155.088973 
L 679.418182 190.39347 
L 694.636364 192.331457 
L 709.854545 197.586947 
L 725.072727 221.80357 
L 740.290909 211.074211 
L 755.509091 226.270492 
L 770.727273 256.377598 
L 785.945455 254.322219 
L 801.163636 250.036591 
L 816.381818 241.703903 
L 831.6 267.96236 
L 846.818182 264.466065 
L 862.036364 229.7723 
L 877.254545 233.810587 
L 892.472727 242.805048 
L 907.690909 210.251782 
L 922.909091 238.596509 
L 938.127273 249.953825 
L 953.345455 243.789692 
L 968.563636 209.112418 
L 983.781818 237.949626 
L 999 251.259532 
L 1014.218182 252.145727 
L 1029.436364 256.695091 
L 1044.654545 267.527724 
L 1059.872727 272.76936 
L 1075.090909 267.362036 
L 1090.309091 296.143346 
L 1105.527273 296.295575 
L 1120.745455 271.675237 
" style="fill:none;stroke:#808080;stroke-linecap:square;stroke-opacity:0.4;"/>
   </g>
   <g id="line2d_57">
    <path clip-path="url(#p8420079a52)" d="M 207.654545 504 
L 222.872727 504 
L 238.090909 504 
L 253.309091 504 
L 260.045763 -1 
M 425.689013 -1 
L 435.927273 36.290492 
L 451.145455 76.143595 
L 466.363636 83.977931 
L 481.581818 102.250115 
L 496.8 119.972741 
L 512.018182 135.581487 
L 527.236364 141.313828 
L 542.454545 147.0903 
L 557.672727 108.234627 
L 572.890909 110.216191 
L 588.109091 89.918223 
L 603.327273 71.67487 
L 618.545455 117.93735 
L 633.763636 148.754647 
L 648.981818 164.271176 
L 664.2 187.032341 
L 679.418182 199.129358 
L 694.636364 219.195204 
L 709.854545 242.507256 
L 725.072727 266.312795 
L 740.290909 277.074081 
L 755.509091 296.228388 
L 770.727273 303.765716 
L 785.945455 314.863379 
L 801.163636 324.132141 
L 816.381818 323.667663 
L 831.6 325.843868 
L 846.818182 330.146434 
L 862.036364 336.613374 
L 877.254545 337.820994 
L 892.472727 334.467674 
L 907.690909 332.401486 
L 922.909091 327.65253 
L 938.127273 330.188957 
L 953.345455 326.143625 
L 968.563636 326.592696 
L 983.781818 322.765995 
L 999 321.648749 
L 1014.218182 319.515939 
L 1029.436364 313.741769 
L 1044.654545 314.489894 
L 1059.872727 309.694475 
L 1075.090909 314.740025 
L 1090.309091 312.16637 
L 1105.527273 304.688592 
L 1120.745455 296.075726 
" style="fill:none;stroke:#808080;stroke-linecap:square;stroke-opacity:0.4;"/>
   </g>
   <g id="line2d_58">
    <path clip-path="url(#p8420079a52)" d="M 207.654545 504 
L 222.872727 504 
L 238.090909 504 
L 253.309091 504 
L 268.527273 504 
L 283.745455 504 
L 298.963636 504 
L 314.181818 504 
L 329.4 504 
L 344.618182 504 
L 359.836364 504 
L 375.054545 504 
L 390.272727 504 
L 405.490909 504 
L 420.709091 504 
L 435.927273 504 
L 451.145455 504 
L 453.319292 -1 
M 611.283347 -1 
L 618.545455 29.828873 
L 633.763636 63.045374 
L 648.981818 78.006483 
L 664.2 109.432498 
L 679.418182 112.932738 
L 694.636364 146.01246 
L 709.854545 144.636274 
L 725.072727 149.729327 
L 740.290909 158.057599 
L 755.509091 164.431819 
L 770.727273 143.716607 
L 785.945455 191.015423 
L 801.163636 169.696465 
L 816.381818 237.622288 
L 831.6 263.091709 
L 846.818182 274.922048 
L 862.036364 282.615933 
L 877.254545 291.502274 
L 892.472727 310.819526 
L 907.690909 321.896875 
L 922.909091 322.808807 
L 938.127273 311.959932 
L 953.345455 314.416011 
L 968.563636 323.7356 
L 983.781818 325.228282 
L 999 333.533939 
L 1014.218182 317.210228 
L 1029.436364 316.1451 
L 1044.654545 337.22893 
L 1059.872727 347.48402 
L 1075.090909 360.130528 
L 1090.309091 345.105538 
L 1105.527273 351.331964 
L 1120.745455 347.23765 
" style="fill:none;stroke:#808080;stroke-linecap:square;stroke-opacity:0.4;"/>
   </g>
   <g id="line2d_59">
    <path clip-path="url(#p8420079a52)" d="M 207.654545 504 
L 222.872727 504 
L 238.090909 161.87393 
L 253.309091 171.377432 
L 267.837093 -1 
M 525.707587 -1 
L 527.236364 7.634574 
L 531.657914 -1 
M 559.725555 -1 
L 572.890909 58.57224 
L 588.109091 102.827745 
L 603.327273 130.485788 
L 618.545455 153.343465 
L 633.763636 107.107992 
L 648.981818 149.775763 
L 664.2 166.496296 
L 679.418182 189.622906 
L 694.636364 207.967517 
L 709.854545 220.530769 
L 725.072727 231.873518 
L 740.290909 254.560536 
L 755.509091 273.277352 
L 770.727273 281.279427 
L 785.945455 296.042957 
L 801.163636 304.230325 
L 816.381818 313.612208 
L 831.6 329.473999 
L 846.818182 321.629936 
L 862.036364 317.478683 
L 877.254545 310.902493 
L 892.472727 307.457957 
L 907.690909 304.45023 
L 922.909091 295.159049 
L 938.127273 284.931327 
L 953.345455 265.489153 
L 968.563636 247.345907 
L 983.781818 220.948446 
L 999 220.467844 
L 1014.218182 211.799484 
L 1029.436364 221.545393 
L 1044.654545 234.055513 
L 1059.872727 230.409226 
L 1075.090909 217.385497 
L 1090.309091 209.887738 
L 1105.527273 209.387018 
L 1120.745455 219.601116 
" style="fill:none;stroke:#808080;stroke-linecap:square;stroke-opacity:0.4;"/>
   </g>
   <g id="line2d_60">
    <path clip-path="url(#p8420079a52)" d="M 207.654545 148.702827 
L 222.872727 33.785113 
L 230.026386 -1 
M 573.581699 -1 
L 588.109091 40.858257 
L 603.327273 78.01979 
L 618.545455 99.268216 
L 633.763636 123.142519 
L 648.981818 144.723315 
L 664.2 163.925393 
L 679.418182 180.46441 
L 694.636364 199.199587 
L 709.854545 210.380923 
L 725.072727 227.794934 
L 740.290909 237.59047 
L 755.509091 246.525901 
L 770.727273 255.956011 
L 785.945455 266.141019 
L 801.163636 271.286753 
L 816.381818 278.682066 
L 831.6 286.014056 
L 846.818182 290.433909 
L 862.036364 292.168028 
L 877.254545 294.919288 
L 892.472727 294.460626 
L 907.690909 290.882636 
L 922.909091 289.595322 
L 938.127273 288.919478 
L 953.345455 287.112453 
L 968.563636 283.170822 
L 983.781818 284.670423 
L 999 284.65955 
L 1014.218182 284.01329 
L 1029.436364 283.064125 
L 1044.654545 288.310843 
L 1059.872727 290.245991 
L 1075.090909 291.075146 
L 1090.309091 291.840639 
L 1105.527273 292.742114 
L 1120.745455 292.381924 
" style="fill:none;stroke:#0000ff;stroke-linecap:square;stroke-width:6;"/>
   </g>
   <g id="patch_3">
    <path d="M 162 504 
L 162 69.12 
" style="fill:none;stroke:#000000;stroke-linecap:square;stroke-linejoin:miter;stroke-width:0.8;"/>
   </g>
   <g id="patch_4">
    <path d="M 1166.4 504 
L 1166.4 69.12 
" style="fill:none;stroke:#000000;stroke-linecap:square;stroke-linejoin:miter;stroke-width:0.8;"/>
   </g>
   <g id="patch_5">
    <path d="M 162 504 
L 1166.4 504 
" style="fill:none;stroke:#000000;stroke-linecap:square;stroke-linejoin:miter;stroke-width:0.8;"/>
   </g>
   <g id="patch_6">
    <path d="M 162 69.12 
L 1166.4 69.12 
" style="fill:none;stroke:#000000;stroke-linecap:square;stroke-linejoin:miter;stroke-width:0.8;"/>
   </g>
   <g id="legend_1">
    <g id="patch_7">
     <path d="M 888.696875 173.18875 
L 1152.4 173.18875 
Q 1156.4 173.18875 1156.4 169.18875 
L 1156.4 83.12 
Q 1156.4 79.12 1152.4 79.12 
L 888.696875 79.12 
Q 884.696875 79.12 884.696875 83.12 
L 884.696875 169.18875 
Q 884.696875 173.18875 888.696875 173.18875 
z
" style="fill:#ffffff;opacity:0.8;stroke:#cccccc;stroke-linejoin:miter;"/>
    </g>
    <g id="patch_8">
     <path d="M 892.696875 102.316875 
L 932.696875 102.316875 
L 932.696875 88.316875 
L 892.696875 88.316875 
z
" style="fill:#0000ff;stroke:#0000ff;stroke-linejoin:miter;"/>
    </g>
    <g id="text_17">
     <!-- US Average -->
     <g transform="translate(948.696875 102.316875)scale(0.2 -0.2)">
      <defs>
       <path d="M 8.6875 72.90625 
L 18.609375 72.90625 
L 18.609375 28.609375 
Q 18.609375 16.890625 22.84375 11.734375 
Q 27.09375 6.59375 36.625 6.59375 
Q 46.09375 6.59375 50.34375 11.734375 
Q 54.59375 16.890625 54.59375 28.609375 
L 54.59375 72.90625 
L 64.5 72.90625 
L 64.5 27.390625 
Q 64.5 13.140625 57.4375 5.859375 
Q 50.390625 -1.421875 36.625 -1.421875 
Q 22.796875 -1.421875 15.734375 5.859375 
Q 8.6875 13.140625 8.6875 27.390625 
z
" id="DejaVuSans-85"/>
       <path d="M 53.515625 70.515625 
L 53.515625 60.890625 
Q 47.90625 63.578125 42.921875 64.890625 
Q 37.9375 66.21875 33.296875 66.21875 
Q 25.25 66.21875 20.875 63.09375 
Q 16.5 59.96875 16.5 54.203125 
Q 16.5 49.359375 19.40625 46.890625 
Q 22.3125 44.4375 30.421875 42.921875 
L 36.375 41.703125 
Q 47.40625 39.59375 52.65625 34.296875 
Q 57.90625 29 57.90625 20.125 
Q 57.90625 9.515625 50.796875 4.046875 
Q 43.703125 -1.421875 29.984375 -1.421875 
Q 24.8125 -1.421875 18.96875 -0.25 
Q 13.140625 0.921875 6.890625 3.21875 
L 6.890625 13.375 
Q 12.890625 10.015625 18.65625 8.296875 
Q 24.421875 6.59375 29.984375 6.59375 
Q 38.421875 6.59375 43.015625 9.90625 
Q 47.609375 13.234375 47.609375 19.390625 
Q 47.609375 24.75 44.3125 27.78125 
Q 41.015625 30.8125 33.5 32.328125 
L 27.484375 33.5 
Q 16.453125 35.6875 11.515625 40.375 
Q 6.59375 45.0625 6.59375 53.421875 
Q 6.59375 63.09375 13.40625 68.65625 
Q 20.21875 74.21875 32.171875 74.21875 
Q 37.3125 74.21875 42.625 73.28125 
Q 47.953125 72.359375 53.515625 70.515625 
z
" id="DejaVuSans-83"/>
       <path id="DejaVuSans-32"/>
       <path d="M 34.1875 63.1875 
L 20.796875 26.90625 
L 47.609375 26.90625 
z
M 28.609375 72.90625 
L 39.796875 72.90625 
L 67.578125 0 
L 57.328125 0 
L 50.6875 18.703125 
L 17.828125 18.703125 
L 11.1875 0 
L 0.78125 0 
z
" id="DejaVuSans-65"/>
       <path d="M 2.984375 54.6875 
L 12.5 54.6875 
L 29.59375 8.796875 
L 46.6875 54.6875 
L 56.203125 54.6875 
L 35.6875 0 
L 23.484375 0 
z
" id="DejaVuSans-118"/>
       <path d="M 56.203125 29.59375 
L 56.203125 25.203125 
L 14.890625 25.203125 
Q 15.484375 15.921875 20.484375 11.0625 
Q 25.484375 6.203125 34.421875 6.203125 
Q 39.59375 6.203125 44.453125 7.46875 
Q 49.3125 8.734375 54.109375 11.28125 
L 54.109375 2.78125 
Q 49.265625 0.734375 44.1875 -0.34375 
Q 39.109375 -1.421875 33.890625 -1.421875 
Q 20.796875 -1.421875 13.15625 6.1875 
Q 5.515625 13.8125 5.515625 26.8125 
Q 5.515625 40.234375 12.765625 48.109375 
Q 20.015625 56 32.328125 56 
Q 43.359375 56 49.78125 48.890625 
Q 56.203125 41.796875 56.203125 29.59375 
z
M 47.21875 32.234375 
Q 47.125 39.59375 43.09375 43.984375 
Q 39.0625 48.390625 32.421875 48.390625 
Q 24.90625 48.390625 20.390625 44.140625 
Q 15.875 39.890625 15.1875 32.171875 
z
" id="DejaVuSans-101"/>
       <path d="M 41.109375 46.296875 
Q 39.59375 47.171875 37.8125 47.578125 
Q 36.03125 48 33.890625 48 
Q 26.265625 48 22.1875 43.046875 
Q 18.109375 38.09375 18.109375 28.8125 
L 18.109375 0 
L 9.078125 0 
L 9.078125 54.6875 
L 18.109375 54.6875 
L 18.109375 46.1875 
Q 20.953125 51.171875 25.484375 53.578125 
Q 30.03125 56 36.53125 56 
Q 37.453125 56 38.578125 55.875 
Q 39.703125 55.765625 41.0625 55.515625 
z
" id="DejaVuSans-114"/>
       <path d="M 34.28125 27.484375 
Q 23.390625 27.484375 19.1875 25 
Q 14.984375 22.515625 14.984375 16.5 
Q 14.984375 11.71875 18.140625 8.90625 
Q 21.296875 6.109375 26.703125 6.109375 
Q 34.1875 6.109375 38.703125 11.40625 
Q 43.21875 16.703125 43.21875 25.484375 
L 43.21875 27.484375 
z
M 52.203125 31.203125 
L 52.203125 0 
L 43.21875 0 
L 43.21875 8.296875 
Q 40.140625 3.328125 35.546875 0.953125 
Q 30.953125 -1.421875 24.3125 -1.421875 
Q 15.921875 -1.421875 10.953125 3.296875 
Q 6 8.015625 6 15.921875 
Q 6 25.140625 12.171875 29.828125 
Q 18.359375 34.515625 30.609375 34.515625 
L 43.21875 34.515625 
L 43.21875 35.40625 
Q 43.21875 41.609375 39.140625 45 
Q 35.0625 48.390625 27.6875 48.390625 
Q 23 48.390625 18.546875 47.265625 
Q 14.109375 46.140625 10.015625 43.890625 
L 10.015625 52.203125 
Q 14.9375 54.109375 19.578125 55.046875 
Q 24.21875 56 28.609375 56 
Q 40.484375 56 46.34375 49.84375 
Q 52.203125 43.703125 52.203125 31.203125 
z
" id="DejaVuSans-97"/>
       <path d="M 45.40625 27.984375 
Q 45.40625 37.75 41.375 43.109375 
Q 37.359375 48.484375 30.078125 48.484375 
Q 22.859375 48.484375 18.828125 43.109375 
Q 14.796875 37.75 14.796875 27.984375 
Q 14.796875 18.265625 18.828125 12.890625 
Q 22.859375 7.515625 30.078125 7.515625 
Q 37.359375 7.515625 41.375 12.890625 
Q 45.40625 18.265625 45.40625 27.984375 
z
M 54.390625 6.78125 
Q 54.390625 -7.171875 48.1875 -13.984375 
Q 42 -20.796875 29.203125 -20.796875 
Q 24.46875 -20.796875 20.265625 -20.09375 
Q 16.0625 -19.390625 12.109375 -17.921875 
L 12.109375 -9.1875 
Q 16.0625 -11.328125 19.921875 -12.34375 
Q 23.78125 -13.375 27.78125 -13.375 
Q 36.625 -13.375 41.015625 -8.765625 
Q 45.40625 -4.15625 45.40625 5.171875 
L 45.40625 9.625 
Q 42.625 4.78125 38.28125 2.390625 
Q 33.9375 0 27.875 0 
Q 17.828125 0 11.671875 7.65625 
Q 5.515625 15.328125 5.515625 27.984375 
Q 5.515625 40.671875 11.671875 48.328125 
Q 17.828125 56 27.875 56 
Q 33.9375 56 38.28125 53.609375 
Q 42.625 51.21875 45.40625 46.390625 
L 45.40625 54.6875 
L 54.390625 54.6875 
z
" id="DejaVuSans-103"/>
      </defs>
      <use xlink:href="#DejaVuSans-85"/>
      <use x="73.193359" xlink:href="#DejaVuSans-83"/>
      <use x="136.669922" xlink:href="#DejaVuSans-32"/>
      <use x="168.457031" xlink:href="#DejaVuSans-65"/>
      <use x="230.990234" xlink:href="#DejaVuSans-118"/>
      <use x="290.169922" xlink:href="#DejaVuSans-101"/>
      <use x="351.693359" xlink:href="#DejaVuSans-114"/>
      <use x="392.806641" xlink:href="#DejaVuSans-97"/>
      <use x="454.085938" xlink:href="#DejaVuSans-103"/>
      <use x="517.5625" xlink:href="#DejaVuSans-101"/>
     </g>
    </g>
    <g id="patch_9">
     <path d="M 892.696875 131.673125 
L 932.696875 131.673125 
L 932.696875 117.673125 
L 892.696875 117.673125 
z
" style="fill:#808080;stroke:#808080;stroke-linejoin:miter;"/>
    </g>
    <g id="text_18">
     <!-- Individual States -->
     <g transform="translate(948.696875 131.673125)scale(0.2 -0.2)">
      <defs>
       <path d="M 9.8125 72.90625 
L 19.671875 72.90625 
L 19.671875 0 
L 9.8125 0 
z
" id="DejaVuSans-73"/>
       <path d="M 54.890625 33.015625 
L 54.890625 0 
L 45.90625 0 
L 45.90625 32.71875 
Q 45.90625 40.484375 42.875 44.328125 
Q 39.84375 48.1875 33.796875 48.1875 
Q 26.515625 48.1875 22.3125 43.546875 
Q 18.109375 38.921875 18.109375 30.90625 
L 18.109375 0 
L 9.078125 0 
L 9.078125 54.6875 
L 18.109375 54.6875 
L 18.109375 46.1875 
Q 21.34375 51.125 25.703125 53.5625 
Q 30.078125 56 35.796875 56 
Q 45.21875 56 50.046875 50.171875 
Q 54.890625 44.34375 54.890625 33.015625 
z
" id="DejaVuSans-110"/>
       <path d="M 45.40625 46.390625 
L 45.40625 75.984375 
L 54.390625 75.984375 
L 54.390625 0 
L 45.40625 0 
L 45.40625 8.203125 
Q 42.578125 3.328125 38.25 0.953125 
Q 33.9375 -1.421875 27.875 -1.421875 
Q 17.96875 -1.421875 11.734375 6.484375 
Q 5.515625 14.40625 5.515625 27.296875 
Q 5.515625 40.1875 11.734375 48.09375 
Q 17.96875 56 27.875 56 
Q 33.9375 56 38.25 53.625 
Q 42.578125 51.265625 45.40625 46.390625 
z
M 14.796875 27.296875 
Q 14.796875 17.390625 18.875 11.75 
Q 22.953125 6.109375 30.078125 6.109375 
Q 37.203125 6.109375 41.296875 11.75 
Q 45.40625 17.390625 45.40625 27.296875 
Q 45.40625 37.203125 41.296875 42.84375 
Q 37.203125 48.484375 30.078125 48.484375 
Q 22.953125 48.484375 18.875 42.84375 
Q 14.796875 37.203125 14.796875 27.296875 
z
" id="DejaVuSans-100"/>
       <path d="M 9.421875 54.6875 
L 18.40625 54.6875 
L 18.40625 0 
L 9.421875 0 
z
M 9.421875 75.984375 
L 18.40625 75.984375 
L 18.40625 64.59375 
L 9.421875 64.59375 
z
" id="DejaVuSans-105"/>
       <path d="M 8.5 21.578125 
L 8.5 54.6875 
L 17.484375 54.6875 
L 17.484375 21.921875 
Q 17.484375 14.15625 20.5 10.265625 
Q 23.53125 6.390625 29.59375 6.390625 
Q 36.859375 6.390625 41.078125 11.03125 
Q 45.3125 15.671875 45.3125 23.6875 
L 45.3125 54.6875 
L 54.296875 54.6875 
L 54.296875 0 
L 45.3125 0 
L 45.3125 8.40625 
Q 42.046875 3.421875 37.71875 1 
Q 33.40625 -1.421875 27.6875 -1.421875 
Q 18.265625 -1.421875 13.375 4.4375 
Q 8.5 10.296875 8.5 21.578125 
z
M 31.109375 56 
z
" id="DejaVuSans-117"/>
       <path d="M 9.421875 75.984375 
L 18.40625 75.984375 
L 18.40625 0 
L 9.421875 0 
z
" id="DejaVuSans-108"/>
       <path d="M 18.3125 70.21875 
L 18.3125 54.6875 
L 36.8125 54.6875 
L 36.8125 47.703125 
L 18.3125 47.703125 
L 18.3125 18.015625 
Q 18.3125 11.328125 20.140625 9.421875 
Q 21.96875 7.515625 27.59375 7.515625 
L 36.8125 7.515625 
L 36.8125 0 
L 27.59375 0 
Q 17.1875 0 13.234375 3.875 
Q 9.28125 7.765625 9.28125 18.015625 
L 9.28125 47.703125 
L 2.6875 47.703125 
L 2.6875 54.6875 
L 9.28125 54.6875 
L 9.28125 70.21875 
z
" id="DejaVuSans-116"/>
       <path d="M 44.28125 53.078125 
L 44.28125 44.578125 
Q 40.484375 46.53125 36.375 47.5 
Q 32.28125 48.484375 27.875 48.484375 
Q 21.1875 48.484375 17.84375 46.4375 
Q 14.5 44.390625 14.5 40.28125 
Q 14.5 37.15625 16.890625 35.375 
Q 19.28125 33.59375 26.515625 31.984375 
L 29.59375 31.296875 
Q 39.15625 29.25 43.1875 25.515625 
Q 47.21875 21.78125 47.21875 15.09375 
Q 47.21875 7.46875 41.1875 3.015625 
Q 35.15625 -1.421875 24.609375 -1.421875 
Q 20.21875 -1.421875 15.453125 -0.5625 
Q 10.6875 0.296875 5.421875 2 
L 5.421875 11.28125 
Q 10.40625 8.6875 15.234375 7.390625 
Q 20.0625 6.109375 24.8125 6.109375 
Q 31.15625 6.109375 34.5625 8.28125 
Q 37.984375 10.453125 37.984375 14.40625 
Q 37.984375 18.0625 35.515625 20.015625 
Q 33.0625 21.96875 24.703125 23.78125 
L 21.578125 24.515625 
Q 13.234375 26.265625 9.515625 29.90625 
Q 5.8125 33.546875 5.8125 39.890625 
Q 5.8125 47.609375 11.28125 51.796875 
Q 16.75 56 26.8125 56 
Q 31.78125 56 36.171875 55.265625 
Q 40.578125 54.546875 44.28125 53.078125 
z
" id="DejaVuSans-115"/>
      </defs>
      <use xlink:href="#DejaVuSans-73"/>
      <use x="29.492188" xlink:href="#DejaVuSans-110"/>
      <use x="92.871094" xlink:href="#DejaVuSans-100"/>
      <use x="156.347656" xlink:href="#DejaVuSans-105"/>
      <use x="184.130859" xlink:href="#DejaVuSans-118"/>
      <use x="243.310547" xlink:href="#DejaVuSans-105"/>
      <use x="271.09375" xlink:href="#DejaVuSans-100"/>
      <use x="334.570312" xlink:href="#DejaVuSans-117"/>
      <use x="397.949219" xlink:href="#DejaVuSans-97"/>
      <use x="459.228516" xlink:href="#DejaVuSans-108"/>
      <use x="487.011719" xlink:href="#DejaVuSans-32"/>
      <use x="518.798828" xlink:href="#DejaVuSans-83"/>
      <use x="582.275391" xlink:href="#DejaVuSans-116"/>
      <use x="621.484375" xlink:href="#DejaVuSans-97"/>
      <use x="682.763672" xlink:href="#DejaVuSans-116"/>
      <use x="721.972656" xlink:href="#DejaVuSans-101"/>
      <use x="783.496094" xlink:href="#DejaVuSans-115"/>
     </g>
    </g>
    <g id="line2d_61">
     <path d="M 892.696875 154.029375 
L 932.696875 154.029375 
" style="fill:none;stroke:#000000;stroke-linecap:square;stroke-width:4;"/>
    </g>
    <g id="line2d_62"/>
    <g id="text_19">
     <!-- Stay at Home Order -->
     <g transform="translate(948.696875 161.029375)scale(0.2 -0.2)">
      <defs>
       <path d="M 32.171875 -5.078125 
Q 28.375 -14.84375 24.75 -17.8125 
Q 21.140625 -20.796875 15.09375 -20.796875 
L 7.90625 -20.796875 
L 7.90625 -13.28125 
L 13.1875 -13.28125 
Q 16.890625 -13.28125 18.9375 -11.515625 
Q 21 -9.765625 23.484375 -3.21875 
L 25.09375 0.875 
L 2.984375 54.6875 
L 12.5 54.6875 
L 29.59375 11.921875 
L 46.6875 54.6875 
L 56.203125 54.6875 
z
" id="DejaVuSans-121"/>
       <path d="M 9.8125 72.90625 
L 19.671875 72.90625 
L 19.671875 43.015625 
L 55.515625 43.015625 
L 55.515625 72.90625 
L 65.375 72.90625 
L 65.375 0 
L 55.515625 0 
L 55.515625 34.71875 
L 19.671875 34.71875 
L 19.671875 0 
L 9.8125 0 
z
" id="DejaVuSans-72"/>
       <path d="M 30.609375 48.390625 
Q 23.390625 48.390625 19.1875 42.75 
Q 14.984375 37.109375 14.984375 27.296875 
Q 14.984375 17.484375 19.15625 11.84375 
Q 23.34375 6.203125 30.609375 6.203125 
Q 37.796875 6.203125 41.984375 11.859375 
Q 46.1875 17.53125 46.1875 27.296875 
Q 46.1875 37.015625 41.984375 42.703125 
Q 37.796875 48.390625 30.609375 48.390625 
z
M 30.609375 56 
Q 42.328125 56 49.015625 48.375 
Q 55.71875 40.765625 55.71875 27.296875 
Q 55.71875 13.875 49.015625 6.21875 
Q 42.328125 -1.421875 30.609375 -1.421875 
Q 18.84375 -1.421875 12.171875 6.21875 
Q 5.515625 13.875 5.515625 27.296875 
Q 5.515625 40.765625 12.171875 48.375 
Q 18.84375 56 30.609375 56 
z
" id="DejaVuSans-111"/>
       <path d="M 52 44.1875 
Q 55.375 50.25 60.0625 53.125 
Q 64.75 56 71.09375 56 
Q 79.640625 56 84.28125 50.015625 
Q 88.921875 44.046875 88.921875 33.015625 
L 88.921875 0 
L 79.890625 0 
L 79.890625 32.71875 
Q 79.890625 40.578125 77.09375 44.375 
Q 74.3125 48.1875 68.609375 48.1875 
Q 61.625 48.1875 57.5625 43.546875 
Q 53.515625 38.921875 53.515625 30.90625 
L 53.515625 0 
L 44.484375 0 
L 44.484375 32.71875 
Q 44.484375 40.625 41.703125 44.40625 
Q 38.921875 48.1875 33.109375 48.1875 
Q 26.21875 48.1875 22.15625 43.53125 
Q 18.109375 38.875 18.109375 30.90625 
L 18.109375 0 
L 9.078125 0 
L 9.078125 54.6875 
L 18.109375 54.6875 
L 18.109375 46.1875 
Q 21.1875 51.21875 25.484375 53.609375 
Q 29.78125 56 35.6875 56 
Q 41.65625 56 45.828125 52.96875 
Q 50 49.953125 52 44.1875 
z
" id="DejaVuSans-109"/>
       <path d="M 39.40625 66.21875 
Q 28.65625 66.21875 22.328125 58.203125 
Q 16.015625 50.203125 16.015625 36.375 
Q 16.015625 22.609375 22.328125 14.59375 
Q 28.65625 6.59375 39.40625 6.59375 
Q 50.140625 6.59375 56.421875 14.59375 
Q 62.703125 22.609375 62.703125 36.375 
Q 62.703125 50.203125 56.421875 58.203125 
Q 50.140625 66.21875 39.40625 66.21875 
z
M 39.40625 74.21875 
Q 54.734375 74.21875 63.90625 63.9375 
Q 73.09375 53.65625 73.09375 36.375 
Q 73.09375 19.140625 63.90625 8.859375 
Q 54.734375 -1.421875 39.40625 -1.421875 
Q 24.03125 -1.421875 14.8125 8.828125 
Q 5.609375 19.09375 5.609375 36.375 
Q 5.609375 53.65625 14.8125 63.9375 
Q 24.03125 74.21875 39.40625 74.21875 
z
" id="DejaVuSans-79"/>
      </defs>
      <use xlink:href="#DejaVuSans-83"/>
      <use x="63.476562" xlink:href="#DejaVuSans-116"/>
      <use x="102.685547" xlink:href="#DejaVuSans-97"/>
      <use x="163.964844" xlink:href="#DejaVuSans-121"/>
      <use x="223.144531" xlink:href="#DejaVuSans-32"/>
      <use x="254.931641" xlink:href="#DejaVuSans-97"/>
      <use x="316.210938" xlink:href="#DejaVuSans-116"/>
      <use x="355.419922" xlink:href="#DejaVuSans-32"/>
      <use x="387.207031" xlink:href="#DejaVuSans-72"/>
      <use x="462.402344" xlink:href="#DejaVuSans-111"/>
      <use x="523.583984" xlink:href="#DejaVuSans-109"/>
      <use x="620.996094" xlink:href="#DejaVuSans-101"/>
      <use x="682.519531" xlink:href="#DejaVuSans-32"/>
      <use x="714.306641" xlink:href="#DejaVuSans-79"/>
      <use x="793.017578" xlink:href="#DejaVuSans-114"/>
      <use x="832.380859" xlink:href="#DejaVuSans-100"/>
      <use x="895.857422" xlink:href="#DejaVuSans-101"/>
      <use x="957.380859" xlink:href="#DejaVuSans-114"/>
     </g>
    </g>
   </g>
  </g>
 </g>
 <defs>
  <clipPath id="p8420079a52">
   <rect height="434.88" width="1004.4" x="162" y="69.12"/>
  </clipPath>
 </defs>
</svg>
